<svg width="553" height="195" viewBox="0 0 553 195" fill="none" xmlns="http://www.w3.org/2000/svg">
<g filter="url(#filter0_dd)">
<rect x="4" y="3" width="545" height="187" fill="#FAFBFF"/>
</g>
<path d="M122.37 49.1V46.006H122.258L120.2 51.032L118.142 46.006H118.03V49.1V54H116.952V44.228H118.464L120.186 48.54H120.27L121.992 44.228H123.448V54H122.37V49.1ZM130.933 46.776H132.053L128.469 55.582C128.385 55.7873 128.291 55.9647 128.189 56.114C128.086 56.2727 127.965 56.3987 127.825 56.492C127.685 56.5947 127.517 56.6693 127.321 56.716C127.125 56.772 126.891 56.8 126.621 56.8H125.557V55.848H127.237L128.049 53.86L125.137 46.776H126.285L127.503 49.8L128.581 52.544H128.637L129.715 49.8L130.933 46.776ZM145.636 54.168C145.113 54.168 144.646 54.0793 144.236 53.902C143.834 53.7153 143.494 53.4587 143.214 53.132C142.934 52.8053 142.719 52.4087 142.57 51.942C142.43 51.4753 142.36 50.9573 142.36 50.388C142.36 49.8187 142.434 49.3007 142.584 48.834C142.733 48.3673 142.948 47.9707 143.228 47.644C143.508 47.308 143.848 47.0513 144.25 46.874C144.651 46.6967 145.108 46.608 145.622 46.608C146.322 46.608 146.891 46.762 147.33 47.07C147.768 47.378 148.09 47.7793 148.296 48.274L147.4 48.75C147.269 48.3767 147.05 48.0873 146.742 47.882C146.443 47.6767 146.07 47.574 145.622 47.574C145.295 47.574 145.001 47.63 144.74 47.742C144.488 47.8447 144.273 47.994 144.096 48.19C143.918 48.386 143.783 48.6193 143.69 48.89C143.606 49.1607 143.564 49.4547 143.564 49.772V51.004C143.564 51.3213 143.606 51.6153 143.69 51.886C143.783 52.1567 143.918 52.39 144.096 52.586C144.273 52.782 144.492 52.936 144.754 53.048C145.015 53.1507 145.314 53.202 145.65 53.202C146.135 53.202 146.536 53.09 146.854 52.866C147.171 52.642 147.423 52.334 147.61 51.942L148.408 52.488C148.193 52.9733 147.857 53.3747 147.4 53.692C146.952 54.0093 146.364 54.168 145.636 54.168ZM153.778 54.168C153.274 54.168 152.817 54.0793 152.406 53.902C152.005 53.7247 151.659 53.4727 151.37 53.146C151.09 52.81 150.875 52.4133 150.726 51.956C150.577 51.4893 150.502 50.9667 150.502 50.388C150.502 49.8187 150.577 49.3007 150.726 48.834C150.875 48.3673 151.09 47.9707 151.37 47.644C151.659 47.308 152.005 47.0513 152.406 46.874C152.817 46.6967 153.274 46.608 153.778 46.608C154.282 46.608 154.735 46.6967 155.136 46.874C155.547 47.0513 155.892 47.308 156.172 47.644C156.461 47.9707 156.681 48.3673 156.83 48.834C156.979 49.3007 157.054 49.8187 157.054 50.388C157.054 50.9667 156.979 51.4893 156.83 51.956C156.681 52.4133 156.461 52.81 156.172 53.146C155.892 53.4727 155.547 53.7247 155.136 53.902C154.735 54.0793 154.282 54.168 153.778 54.168ZM153.778 53.202C154.403 53.202 154.907 53.0153 155.29 52.642C155.673 52.2687 155.864 51.69 155.864 50.906V49.87C155.864 49.086 155.673 48.5073 155.29 48.134C154.907 47.7607 154.403 47.574 153.778 47.574C153.153 47.574 152.649 47.7607 152.266 48.134C151.883 48.5073 151.692 49.086 151.692 49.87V50.906C151.692 51.69 151.883 52.2687 152.266 52.642C152.649 53.0153 153.153 53.202 153.778 53.202ZM158.393 46.776H159.387L160.213 53.02H160.339L161.571 46.776H162.803L164.035 53.02H164.161L164.987 46.776H165.953L164.847 54H163.391L162.243 47.952H162.131L160.955 54H159.499L158.393 46.776ZM170.567 54.168C170.063 54.168 169.606 54.0793 169.195 53.902C168.794 53.7247 168.449 53.4727 168.159 53.146C167.879 52.81 167.665 52.4133 167.515 51.956C167.366 51.4893 167.291 50.9667 167.291 50.388C167.291 49.8187 167.366 49.3007 167.515 48.834C167.665 48.3673 167.879 47.9707 168.159 47.644C168.449 47.308 168.794 47.0513 169.195 46.874C169.606 46.6967 170.063 46.608 170.567 46.608C171.071 46.608 171.524 46.6967 171.925 46.874C172.336 47.0513 172.681 47.308 172.961 47.644C173.251 47.9707 173.47 48.3673 173.619 48.834C173.769 49.3007 173.843 49.8187 173.843 50.388C173.843 50.9667 173.769 51.4893 173.619 51.956C173.47 52.4133 173.251 52.81 172.961 53.146C172.681 53.4727 172.336 53.7247 171.925 53.902C171.524 54.0793 171.071 54.168 170.567 54.168ZM170.567 53.202C171.193 53.202 171.697 53.0153 172.079 52.642C172.462 52.2687 172.653 51.69 172.653 50.906V49.87C172.653 49.086 172.462 48.5073 172.079 48.134C171.697 47.7607 171.193 47.574 170.567 47.574C169.942 47.574 169.438 47.7607 169.055 48.134C168.673 48.5073 168.481 49.086 168.481 49.87V50.906C168.481 51.69 168.673 52.2687 169.055 52.642C169.438 53.0153 169.942 53.202 170.567 53.202ZM175.84 53.048H177.954V47.728H175.84V46.776H179.074V48.596H179.144C179.293 48.0267 179.573 47.5833 179.984 47.266C180.404 46.9393 180.936 46.776 181.58 46.776H182.588V47.896H181.23C180.586 47.896 180.063 48.0827 179.662 48.456C179.27 48.8293 179.074 49.3193 179.074 49.926V53.048H181.874V54H175.84V53.048ZM184.626 43.64H185.746V50.178H185.802L187.062 48.988L189.47 46.776H190.842L187.846 49.604L191.192 54H189.806L186.992 50.248L185.746 51.382V54H184.626V43.64ZM195.877 54.168C195.354 54.168 194.883 54.0793 194.463 53.902C194.052 53.7247 193.697 53.4727 193.399 53.146C193.109 52.81 192.885 52.4133 192.727 51.956C192.568 51.4893 192.489 50.9713 192.489 50.402C192.489 49.8233 192.568 49.3007 192.727 48.834C192.895 48.3673 193.123 47.9707 193.413 47.644C193.702 47.308 194.047 47.0513 194.449 46.874C194.859 46.6967 195.312 46.608 195.807 46.608C196.292 46.608 196.731 46.6967 197.123 46.874C197.524 47.0513 197.865 47.2987 198.145 47.616C198.425 47.924 198.639 48.2927 198.789 48.722C198.938 49.1513 199.013 49.6227 199.013 50.136V50.668H193.665V51.004C193.665 51.3213 193.716 51.6153 193.819 51.886C193.921 52.1567 194.066 52.39 194.253 52.586C194.449 52.782 194.682 52.936 194.953 53.048C195.233 53.1507 195.541 53.202 195.877 53.202C196.362 53.202 196.782 53.09 197.137 52.866C197.491 52.642 197.762 52.334 197.949 51.942L198.775 52.502C198.56 52.9873 198.201 53.3887 197.697 53.706C197.202 54.014 196.595 54.168 195.877 54.168ZM195.807 47.532C195.499 47.532 195.214 47.588 194.953 47.7C194.691 47.812 194.463 47.966 194.267 48.162C194.08 48.358 193.931 48.5913 193.819 48.862C193.716 49.1233 193.665 49.4127 193.665 49.73V49.828H197.809V49.674C197.809 49.3567 197.757 49.0673 197.655 48.806C197.561 48.5447 197.426 48.3207 197.249 48.134C197.081 47.938 196.871 47.7887 196.619 47.686C196.376 47.5833 196.105 47.532 195.807 47.532ZM201.023 53.048H203.137V47.728H201.023V46.776H204.257V48.596H204.327C204.477 48.0267 204.757 47.5833 205.167 47.266C205.587 46.9393 206.119 46.776 206.763 46.776H207.771V47.896H206.413C205.769 47.896 205.247 48.0827 204.845 48.456C204.453 48.8293 204.257 49.3193 204.257 49.926V53.048H207.057V54H201.023V53.048ZM212.624 54.168C211.868 54.168 211.215 54.042 210.664 53.79C210.123 53.5287 209.661 53.1833 209.278 52.754L210.034 52.096C210.379 52.46 210.757 52.74 211.168 52.936C211.579 53.132 212.073 53.23 212.652 53.23C213.212 53.23 213.669 53.132 214.024 52.936C214.388 52.7307 214.57 52.4133 214.57 51.984C214.57 51.7973 214.533 51.6433 214.458 51.522C214.393 51.3913 214.299 51.2887 214.178 51.214C214.057 51.1393 213.921 51.0833 213.772 51.046C213.623 50.9993 213.464 50.962 213.296 50.934L212.162 50.766C211.91 50.7287 211.635 50.6773 211.336 50.612C211.047 50.5467 210.781 50.444 210.538 50.304C210.295 50.1547 210.09 49.9587 209.922 49.716C209.763 49.4733 209.684 49.156 209.684 48.764C209.684 48.4 209.754 48.0873 209.894 47.826C210.043 47.5553 210.249 47.3313 210.51 47.154C210.771 46.9673 211.079 46.832 211.434 46.748C211.789 46.6547 212.176 46.608 212.596 46.608C213.249 46.608 213.814 46.7107 214.29 46.916C214.775 47.1213 215.191 47.406 215.536 47.77L214.808 48.456C214.724 48.3533 214.617 48.2507 214.486 48.148C214.365 48.036 214.211 47.938 214.024 47.854C213.847 47.7607 213.637 47.686 213.394 47.63C213.151 47.574 212.871 47.546 212.554 47.546C211.985 47.546 211.546 47.644 211.238 47.84C210.939 48.036 210.79 48.3207 210.79 48.694C210.79 48.8807 210.823 49.0393 210.888 49.17C210.963 49.2913 211.061 49.3893 211.182 49.464C211.303 49.5387 211.439 49.5993 211.588 49.646C211.747 49.6833 211.905 49.716 212.064 49.744L213.198 49.912C213.459 49.9493 213.735 50.0007 214.024 50.066C214.313 50.1313 214.579 50.2387 214.822 50.388C215.065 50.528 215.265 50.7193 215.424 50.962C215.592 51.2047 215.676 51.522 215.676 51.914C215.676 52.6327 215.396 53.188 214.836 53.58C214.285 53.972 213.548 54.168 212.624 54.168ZM226.501 43.64H227.621V47.952H227.677C227.752 47.7747 227.845 47.6067 227.957 47.448C228.069 47.28 228.204 47.1353 228.363 47.014C228.531 46.8927 228.727 46.7947 228.951 46.72C229.175 46.6453 229.436 46.608 229.735 46.608C230.491 46.608 231.098 46.8507 231.555 47.336C232.012 47.812 232.241 48.4887 232.241 49.366V54H231.121V49.562C231.121 48.8993 230.976 48.4093 230.687 48.092C230.398 47.7653 229.973 47.602 229.413 47.602C229.189 47.602 228.97 47.63 228.755 47.686C228.54 47.742 228.349 47.826 228.181 47.938C228.013 48.05 227.878 48.1947 227.775 48.372C227.672 48.5493 227.621 48.7547 227.621 48.988V54H226.501V43.64ZM240.453 54C240.015 54 239.702 53.888 239.515 53.664C239.329 53.44 239.212 53.16 239.165 52.824H239.095C238.937 53.244 238.68 53.5753 238.325 53.818C237.98 54.0513 237.513 54.168 236.925 54.168C236.169 54.168 235.567 53.972 235.119 53.58C234.671 53.188 234.447 52.6513 234.447 51.97C234.447 51.298 234.69 50.78 235.175 50.416C235.67 50.052 236.463 49.87 237.555 49.87H239.095V49.156C239.095 48.624 238.946 48.2273 238.647 47.966C238.349 47.6953 237.924 47.56 237.373 47.56C236.888 47.56 236.491 47.658 236.183 47.854C235.875 48.0407 235.628 48.2973 235.441 48.624L234.685 48.064C234.779 47.8773 234.905 47.6953 235.063 47.518C235.222 47.3407 235.418 47.1867 235.651 47.056C235.885 46.916 236.151 46.8087 236.449 46.734C236.748 46.65 237.079 46.608 237.443 46.608C238.293 46.608 238.965 46.8227 239.459 47.252C239.963 47.6813 240.215 48.2787 240.215 49.044V53.02H241.223V54H240.453ZM237.121 53.23C237.411 53.23 237.672 53.1973 237.905 53.132C238.148 53.0573 238.358 52.964 238.535 52.852C238.713 52.7307 238.848 52.5907 238.941 52.432C239.044 52.264 239.095 52.0867 239.095 51.9V50.71H237.555C236.883 50.71 236.393 50.8033 236.085 50.99C235.777 51.1767 235.623 51.4473 235.623 51.802V52.096C235.623 52.4693 235.754 52.754 236.015 52.95C236.286 53.1367 236.655 53.23 237.121 53.23ZM245.404 54L242.814 46.776H243.948L244.984 49.8L246.104 53.062H246.16L247.28 49.8L248.316 46.776H249.422L246.832 54H245.404ZM254.639 54.168C254.116 54.168 253.645 54.0793 253.225 53.902C252.814 53.7247 252.459 53.4727 252.16 53.146C251.871 52.81 251.647 52.4133 251.489 51.956C251.33 51.4893 251.251 50.9713 251.251 50.402C251.251 49.8233 251.33 49.3007 251.489 48.834C251.657 48.3673 251.885 47.9707 252.175 47.644C252.464 47.308 252.809 47.0513 253.211 46.874C253.621 46.6967 254.074 46.608 254.569 46.608C255.054 46.608 255.493 46.6967 255.885 46.874C256.286 47.0513 256.627 47.2987 256.907 47.616C257.187 47.924 257.401 48.2927 257.551 48.722C257.7 49.1513 257.775 49.6227 257.775 50.136V50.668H252.427V51.004C252.427 51.3213 252.478 51.6153 252.581 51.886C252.683 52.1567 252.828 52.39 253.015 52.586C253.211 52.782 253.444 52.936 253.715 53.048C253.995 53.1507 254.303 53.202 254.639 53.202C255.124 53.202 255.544 53.09 255.899 52.866C256.253 52.642 256.524 52.334 256.711 51.942L257.537 52.502C257.322 52.9873 256.963 53.3887 256.459 53.706C255.964 54.014 255.357 54.168 254.639 54.168ZM254.569 47.532C254.261 47.532 253.976 47.588 253.715 47.7C253.453 47.812 253.225 47.966 253.029 48.162C252.842 48.358 252.693 48.5913 252.581 48.862C252.478 49.1233 252.427 49.4127 252.427 49.73V49.828H256.571V49.674C256.571 49.3567 256.519 49.0673 256.417 48.806C256.323 48.5447 256.188 48.3207 256.011 48.134C255.843 47.938 255.633 47.7887 255.381 47.686C255.138 47.5833 254.867 47.532 254.569 47.532ZM271.652 54C271.101 54 270.695 53.846 270.434 53.538C270.182 53.23 270.056 52.8333 270.056 52.348V47.728H267.648V46.776H269.44C269.682 46.776 269.85 46.7293 269.944 46.636C270.046 46.5333 270.098 46.3607 270.098 46.118V44.228H271.176V46.776H274.466V47.728H271.176V53.048H274.466V54H271.652ZM276.868 43.64H277.988V47.952H278.044C278.119 47.7747 278.212 47.6067 278.324 47.448C278.436 47.28 278.571 47.1353 278.73 47.014C278.898 46.8927 279.094 46.7947 279.318 46.72C279.542 46.6453 279.803 46.608 280.102 46.608C280.858 46.608 281.465 46.8507 281.922 47.336C282.379 47.812 282.608 48.4887 282.608 49.366V54H281.488V49.562C281.488 48.8993 281.343 48.4093 281.054 48.092C280.765 47.7653 280.34 47.602 279.78 47.602C279.556 47.602 279.337 47.63 279.122 47.686C278.907 47.742 278.716 47.826 278.548 47.938C278.38 48.05 278.245 48.1947 278.142 48.372C278.039 48.5493 277.988 48.7547 277.988 48.988V54H276.868V43.64ZM288.217 54.168C287.694 54.168 287.223 54.0793 286.803 53.902C286.392 53.7247 286.037 53.4727 285.739 53.146C285.449 52.81 285.225 52.4133 285.067 51.956C284.908 51.4893 284.829 50.9713 284.829 50.402C284.829 49.8233 284.908 49.3007 285.067 48.834C285.235 48.3673 285.463 47.9707 285.753 47.644C286.042 47.308 286.387 47.0513 286.789 46.874C287.199 46.6967 287.652 46.608 288.147 46.608C288.632 46.608 289.071 46.6967 289.463 46.874C289.864 47.0513 290.205 47.2987 290.485 47.616C290.765 47.924 290.979 48.2927 291.129 48.722C291.278 49.1513 291.353 49.6227 291.353 50.136V50.668H286.005V51.004C286.005 51.3213 286.056 51.6153 286.159 51.886C286.261 52.1567 286.406 52.39 286.593 52.586C286.789 52.782 287.022 52.936 287.293 53.048C287.573 53.1507 287.881 53.202 288.217 53.202C288.702 53.202 289.122 53.09 289.477 52.866C289.831 52.642 290.102 52.334 290.289 51.942L291.115 52.502C290.9 52.9873 290.541 53.3887 290.037 53.706C289.542 54.014 288.935 54.168 288.217 54.168ZM288.147 47.532C287.839 47.532 287.554 47.588 287.293 47.7C287.031 47.812 286.803 47.966 286.607 48.162C286.42 48.358 286.271 48.5913 286.159 48.862C286.056 49.1233 286.005 49.4127 286.005 49.73V49.828H290.149V49.674C290.149 49.3567 290.097 49.0673 289.995 48.806C289.901 48.5447 289.766 48.3207 289.589 48.134C289.421 47.938 289.211 47.7887 288.959 47.686C288.716 47.5833 288.445 47.532 288.147 47.532ZM304.964 54.168C304.208 54.168 303.554 54.042 303.004 53.79C302.462 53.5287 302 53.1833 301.618 52.754L302.374 52.096C302.719 52.46 303.097 52.74 303.508 52.936C303.918 53.132 304.413 53.23 304.992 53.23C305.552 53.23 306.009 53.132 306.364 52.936C306.728 52.7307 306.91 52.4133 306.91 51.984C306.91 51.7973 306.872 51.6433 306.798 51.522C306.732 51.3913 306.639 51.2887 306.518 51.214C306.396 51.1393 306.261 51.0833 306.112 51.046C305.962 50.9993 305.804 50.962 305.636 50.934L304.502 50.766C304.25 50.7287 303.974 50.6773 303.676 50.612C303.386 50.5467 303.12 50.444 302.878 50.304C302.635 50.1547 302.43 49.9587 302.262 49.716C302.103 49.4733 302.024 49.156 302.024 48.764C302.024 48.4 302.094 48.0873 302.234 47.826C302.383 47.5553 302.588 47.3313 302.85 47.154C303.111 46.9673 303.419 46.832 303.774 46.748C304.128 46.6547 304.516 46.608 304.936 46.608C305.589 46.608 306.154 46.7107 306.63 46.916C307.115 47.1213 307.53 47.406 307.876 47.77L307.148 48.456C307.064 48.3533 306.956 48.2507 306.826 48.148C306.704 48.036 306.55 47.938 306.364 47.854C306.186 47.7607 305.976 47.686 305.734 47.63C305.491 47.574 305.211 47.546 304.894 47.546C304.324 47.546 303.886 47.644 303.578 47.84C303.279 48.036 303.13 48.3207 303.13 48.694C303.13 48.8807 303.162 49.0393 303.228 49.17C303.302 49.2913 303.4 49.3893 303.522 49.464C303.643 49.5387 303.778 49.5993 303.928 49.646C304.086 49.6833 304.245 49.716 304.404 49.744L305.538 49.912C305.799 49.9493 306.074 50.0007 306.364 50.066C306.653 50.1313 306.919 50.2387 307.162 50.388C307.404 50.528 307.605 50.7193 307.764 50.962C307.932 51.2047 308.016 51.522 308.016 51.914C308.016 52.6327 307.736 53.188 307.176 53.58C306.625 53.972 305.888 54.168 304.964 54.168ZM310.544 43.64H311.664V50.178H311.72L312.98 48.988L315.388 46.776H316.76L313.764 49.604L317.11 54H315.724L312.91 50.248L311.664 51.382V54H310.544V43.64ZM322.117 45.18C321.79 45.18 321.561 45.1147 321.431 44.984C321.3 44.844 321.235 44.6713 321.235 44.466V44.242C321.235 44.0367 321.3 43.8687 321.431 43.738C321.561 43.598 321.79 43.528 322.117 43.528C322.443 43.528 322.672 43.598 322.803 43.738C322.933 43.8687 322.999 44.0367 322.999 44.242V44.466C322.999 44.6713 322.933 44.844 322.803 44.984C322.672 45.1147 322.443 45.18 322.117 45.18ZM318.953 53.048H321.557V47.728H318.953V46.776H322.677V53.048H325.113V54H318.953V53.048ZM326.983 53.048H329.503V44.592H326.983V43.64H330.623V53.048H333.143V54H326.983V53.048ZM335.378 53.048H337.898V44.592H335.378V43.64H339.018V53.048H341.538V54H335.378V53.048ZM346.936 54.168C346.18 54.168 345.527 54.042 344.976 53.79C344.435 53.5287 343.973 53.1833 343.59 52.754L344.346 52.096C344.692 52.46 345.07 52.74 345.48 52.936C345.891 53.132 346.386 53.23 346.964 53.23C347.524 53.23 347.982 53.132 348.336 52.936C348.7 52.7307 348.882 52.4133 348.882 51.984C348.882 51.7973 348.845 51.6433 348.77 51.522C348.705 51.3913 348.612 51.2887 348.49 51.214C348.369 51.1393 348.234 51.0833 348.084 51.046C347.935 50.9993 347.776 50.962 347.608 50.934L346.474 50.766C346.222 50.7287 345.947 50.6773 345.648 50.612C345.359 50.5467 345.093 50.444 344.85 50.304C344.608 50.1547 344.402 49.9587 344.234 49.716C344.076 49.4733 343.996 49.156 343.996 48.764C343.996 48.4 344.066 48.0873 344.206 47.826C344.356 47.5553 344.561 47.3313 344.822 47.154C345.084 46.9673 345.392 46.832 345.746 46.748C346.101 46.6547 346.488 46.608 346.908 46.608C347.562 46.608 348.126 46.7107 348.602 46.916C349.088 47.1213 349.503 47.406 349.848 47.77L349.12 48.456C349.036 48.3533 348.929 48.2507 348.798 48.148C348.677 48.036 348.523 47.938 348.336 47.854C348.159 47.7607 347.949 47.686 347.706 47.63C347.464 47.574 347.184 47.546 346.866 47.546C346.297 47.546 345.858 47.644 345.55 47.84C345.252 48.036 345.102 48.3207 345.102 48.694C345.102 48.8807 345.135 49.0393 345.2 49.17C345.275 49.2913 345.373 49.3893 345.494 49.464C345.616 49.5387 345.751 49.5993 345.9 49.646C346.059 49.6833 346.218 49.716 346.376 49.744L347.51 49.912C347.772 49.9493 348.047 50.0007 348.336 50.066C348.626 50.1313 348.892 50.2387 349.134 50.388C349.377 50.528 349.578 50.7193 349.736 50.962C349.904 51.2047 349.988 51.522 349.988 51.914C349.988 52.6327 349.708 53.188 349.148 53.58C348.598 53.972 347.86 54.168 346.936 54.168ZM354.645 52.096H356.451L354.841 55.974H353.903L354.645 52.096ZM369.166 46.776H370.286V47.952H370.342C370.809 47.056 371.551 46.608 372.568 46.608C373.455 46.608 374.145 46.9393 374.64 47.602C375.144 48.2647 375.396 49.1933 375.396 50.388C375.396 51.5827 375.144 52.5113 374.64 53.174C374.145 53.8367 373.455 54.168 372.568 54.168C371.551 54.168 370.809 53.72 370.342 52.824H370.286V56.8H369.166V46.776ZM372.134 53.174C372.787 53.174 373.291 52.978 373.646 52.586C374.01 52.1847 374.192 51.6573 374.192 51.004V49.772C374.192 49.1187 374.01 48.596 373.646 48.204C373.291 47.8027 372.787 47.602 372.134 47.602C371.882 47.602 371.644 47.6347 371.42 47.7C371.196 47.7653 371 47.8633 370.832 47.994C370.664 48.1153 370.529 48.2693 370.426 48.456C370.333 48.6333 370.286 48.8433 370.286 49.086V51.69C370.286 51.9327 370.333 52.1473 370.426 52.334C370.529 52.5113 370.664 52.6653 370.832 52.796C371 52.9173 371.196 53.0107 371.42 53.076C371.644 53.1413 371.882 53.174 372.134 53.174ZM377.308 53.048H379.422V47.728H377.308V46.776H380.542V48.596H380.612C380.762 48.0267 381.042 47.5833 381.452 47.266C381.872 46.9393 382.404 46.776 383.048 46.776H384.056V47.896H382.698C382.054 47.896 381.532 48.0827 381.13 48.456C380.738 48.8293 380.542 49.3193 380.542 49.926V53.048H383.342V54H377.308V53.048ZM388.825 54.168C388.321 54.168 387.864 54.0793 387.453 53.902C387.052 53.7247 386.706 53.4727 386.417 53.146C386.137 52.81 385.922 52.4133 385.773 51.956C385.624 51.4893 385.549 50.9667 385.549 50.388C385.549 49.8187 385.624 49.3007 385.773 48.834C385.922 48.3673 386.137 47.9707 386.417 47.644C386.706 47.308 387.052 47.0513 387.453 46.874C387.864 46.6967 388.321 46.608 388.825 46.608C389.329 46.608 389.782 46.6967 390.183 46.874C390.594 47.0513 390.939 47.308 391.219 47.644C391.508 47.9707 391.728 48.3673 391.877 48.834C392.026 49.3007 392.101 49.8187 392.101 50.388C392.101 50.9667 392.026 51.4893 391.877 51.956C391.728 52.4133 391.508 52.81 391.219 53.146C390.939 53.4727 390.594 53.7247 390.183 53.902C389.782 54.0793 389.329 54.168 388.825 54.168ZM388.825 53.202C389.45 53.202 389.954 53.0153 390.337 52.642C390.72 52.2687 390.911 51.69 390.911 50.906V49.87C390.911 49.086 390.72 48.5073 390.337 48.134C389.954 47.7607 389.45 47.574 388.825 47.574C388.2 47.574 387.696 47.7607 387.313 48.134C386.93 48.5073 386.739 49.086 386.739 49.87V50.906C386.739 51.69 386.93 52.2687 387.313 52.642C387.696 53.0153 388.2 53.202 388.825 53.202ZM394.182 53.048H396.618V47.728H394.042V46.776H396.618V45.292C396.618 44.8067 396.744 44.41 396.996 44.102C397.257 43.794 397.663 43.64 398.214 43.64H400.636V44.592H397.738V46.776H400.636V47.728H397.738V53.048H400.314V54H394.182V53.048ZM406.062 45.18C405.735 45.18 405.507 45.1147 405.376 44.984C405.245 44.844 405.18 44.6713 405.18 44.466V44.242C405.18 44.0367 405.245 43.8687 405.376 43.738C405.507 43.598 405.735 43.528 406.062 43.528C406.389 43.528 406.617 43.598 406.748 43.738C406.879 43.8687 406.944 44.0367 406.944 44.242V44.466C406.944 44.6713 406.879 44.844 406.748 44.984C406.617 45.1147 406.389 45.18 406.062 45.18ZM402.898 53.048H405.502V47.728H402.898V46.776H406.622V53.048H409.058V54H402.898V53.048ZM414.261 54.168C413.738 54.168 413.271 54.0793 412.861 53.902C412.459 53.7153 412.119 53.4587 411.839 53.132C411.559 52.8053 411.344 52.4087 411.195 51.942C411.055 51.4753 410.985 50.9573 410.985 50.388C410.985 49.8187 411.059 49.3007 411.209 48.834C411.358 48.3673 411.573 47.9707 411.853 47.644C412.133 47.308 412.473 47.0513 412.875 46.874C413.276 46.6967 413.733 46.608 414.247 46.608C414.947 46.608 415.516 46.762 415.955 47.07C416.393 47.378 416.715 47.7793 416.921 48.274L416.025 48.75C415.894 48.3767 415.675 48.0873 415.367 47.882C415.068 47.6767 414.695 47.574 414.247 47.574C413.92 47.574 413.626 47.63 413.365 47.742C413.113 47.8447 412.898 47.994 412.721 48.19C412.543 48.386 412.408 48.6193 412.315 48.89C412.231 49.1607 412.189 49.4547 412.189 49.772V51.004C412.189 51.3213 412.231 51.6153 412.315 51.886C412.408 52.1567 412.543 52.39 412.721 52.586C412.898 52.782 413.117 52.936 413.379 53.048C413.64 53.1507 413.939 53.202 414.275 53.202C414.76 53.202 415.161 53.09 415.479 52.866C415.796 52.642 416.048 52.334 416.235 51.942L417.033 52.488C416.818 52.9733 416.482 53.3747 416.025 53.692C415.577 54.0093 414.989 54.168 414.261 54.168ZM422.851 45.18C422.524 45.18 422.296 45.1147 422.165 44.984C422.034 44.844 421.969 44.6713 421.969 44.466V44.242C421.969 44.0367 422.034 43.8687 422.165 43.738C422.296 43.598 422.524 43.528 422.851 43.528C423.178 43.528 423.406 43.598 423.537 43.738C423.668 43.8687 423.733 44.0367 423.733 44.242V44.466C423.733 44.6713 423.668 44.844 423.537 44.984C423.406 45.1147 423.178 45.18 422.851 45.18ZM419.687 53.048H422.291V47.728H419.687V46.776H423.411V53.048H425.847V54H419.687V53.048ZM430.924 54.168C430.401 54.168 429.93 54.0793 429.51 53.902C429.099 53.7247 428.744 53.4727 428.446 53.146C428.156 52.81 427.932 52.4133 427.774 51.956C427.615 51.4893 427.536 50.9713 427.536 50.402C427.536 49.8233 427.615 49.3007 427.774 48.834C427.942 48.3673 428.17 47.9707 428.46 47.644C428.749 47.308 429.094 47.0513 429.496 46.874C429.906 46.6967 430.359 46.608 430.854 46.608C431.339 46.608 431.778 46.6967 432.17 46.874C432.571 47.0513 432.912 47.2987 433.192 47.616C433.472 47.924 433.686 48.2927 433.836 48.722C433.985 49.1513 434.06 49.6227 434.06 50.136V50.668H428.712V51.004C428.712 51.3213 428.763 51.6153 428.866 51.886C428.968 52.1567 429.113 52.39 429.3 52.586C429.496 52.782 429.729 52.936 430 53.048C430.28 53.1507 430.588 53.202 430.924 53.202C431.409 53.202 431.829 53.09 432.184 52.866C432.538 52.642 432.809 52.334 432.996 51.942L433.822 52.502C433.607 52.9873 433.248 53.3887 432.744 53.706C432.249 54.014 431.642 54.168 430.924 54.168ZM430.854 47.532C430.546 47.532 430.261 47.588 430 47.7C429.738 47.812 429.51 47.966 429.314 48.162C429.127 48.358 428.978 48.5913 428.866 48.862C428.763 49.1233 428.712 49.4127 428.712 49.73V49.828H432.856V49.674C432.856 49.3567 432.804 49.0673 432.702 48.806C432.608 48.5447 432.473 48.3207 432.296 48.134C432.128 47.938 431.918 47.7887 431.666 47.686C431.423 47.5833 431.152 47.532 430.854 47.532ZM436.364 54V46.776H437.484V47.952H437.54C437.615 47.7747 437.708 47.6067 437.82 47.448C437.932 47.28 438.068 47.1353 438.226 47.014C438.394 46.8927 438.59 46.7947 438.814 46.72C439.038 46.6453 439.3 46.608 439.598 46.608C440.354 46.608 440.961 46.8507 441.418 47.336C441.876 47.812 442.104 48.4887 442.104 49.366V54H440.984V49.562C440.984 48.8993 440.84 48.4093 440.55 48.092C440.261 47.7653 439.836 47.602 439.276 47.602C439.052 47.602 438.833 47.63 438.618 47.686C438.404 47.742 438.212 47.826 438.044 47.938C437.876 48.05 437.741 48.1947 437.638 48.372C437.536 48.5493 437.484 48.7547 437.484 48.988V54H436.364ZM447.839 54.168C447.316 54.168 446.849 54.0793 446.439 53.902C446.037 53.7153 445.697 53.4587 445.417 53.132C445.137 52.8053 444.922 52.4087 444.773 51.942C444.633 51.4753 444.563 50.9573 444.563 50.388C444.563 49.8187 444.637 49.3007 444.787 48.834C444.936 48.3673 445.151 47.9707 445.431 47.644C445.711 47.308 446.051 47.0513 446.453 46.874C446.854 46.6967 447.311 46.608 447.825 46.608C448.525 46.608 449.094 46.762 449.533 47.07C449.971 47.378 450.293 47.7793 450.499 48.274L449.603 48.75C449.472 48.3767 449.253 48.0873 448.945 47.882C448.646 47.6767 448.273 47.574 447.825 47.574C447.498 47.574 447.204 47.63 446.943 47.742C446.691 47.8447 446.476 47.994 446.299 48.19C446.121 48.386 445.986 48.6193 445.893 48.89C445.809 49.1607 445.767 49.4547 445.767 49.772V51.004C445.767 51.3213 445.809 51.6153 445.893 51.886C445.986 52.1567 446.121 52.39 446.299 52.586C446.476 52.782 446.695 52.936 446.957 53.048C447.218 53.1507 447.517 53.202 447.853 53.202C448.338 53.202 448.739 53.09 449.057 52.866C449.374 52.642 449.626 52.334 449.813 51.942L450.611 52.488C450.396 52.9733 450.06 53.3747 449.603 53.692C449.155 54.0093 448.567 54.168 447.839 54.168ZM458.319 46.776H459.439L455.855 55.582C455.771 55.7873 455.678 55.9647 455.575 56.114C455.473 56.2727 455.351 56.3987 455.211 56.492C455.071 56.5947 454.903 56.6693 454.707 56.716C454.511 56.772 454.278 56.8 454.007 56.8H452.943V55.848H454.623L455.435 53.86L452.523 46.776H453.671L454.889 49.8L455.967 52.544H456.023L457.101 49.8L458.319 46.776ZM463.774 52.096H465.58L463.97 55.974H463.032L463.774 52.096ZM122.93 72C122.491 72 122.179 71.888 121.992 71.664C121.805 71.44 121.689 71.16 121.642 70.824H121.572C121.413 71.244 121.157 71.5753 120.802 71.818C120.457 72.0513 119.99 72.168 119.402 72.168C118.646 72.168 118.044 71.972 117.596 71.58C117.148 71.188 116.924 70.6513 116.924 69.97C116.924 69.298 117.167 68.78 117.652 68.416C118.147 68.052 118.94 67.87 120.032 67.87H121.572V67.156C121.572 66.624 121.423 66.2273 121.124 65.966C120.825 65.6953 120.401 65.56 119.85 65.56C119.365 65.56 118.968 65.658 118.66 65.854C118.352 66.0407 118.105 66.2973 117.918 66.624L117.162 66.064C117.255 65.8773 117.381 65.6953 117.54 65.518C117.699 65.3407 117.895 65.1867 118.128 65.056C118.361 64.916 118.627 64.8087 118.926 64.734C119.225 64.65 119.556 64.608 119.92 64.608C120.769 64.608 121.441 64.8227 121.936 65.252C122.44 65.6813 122.692 66.2787 122.692 67.044V71.02H123.7V72H122.93ZM119.598 71.23C119.887 71.23 120.149 71.1973 120.382 71.132C120.625 71.0573 120.835 70.964 121.012 70.852C121.189 70.7307 121.325 70.5907 121.418 70.432C121.521 70.264 121.572 70.0867 121.572 69.9V68.71H120.032C119.36 68.71 118.87 68.8033 118.562 68.99C118.254 69.1767 118.1 69.4473 118.1 69.802V70.096C118.1 70.4693 118.231 70.754 118.492 70.95C118.763 71.1367 119.131 71.23 119.598 71.23ZM125.767 72V64.776H126.887V65.952H126.943C127.017 65.7747 127.111 65.6067 127.223 65.448C127.335 65.28 127.47 65.1353 127.629 65.014C127.797 64.8927 127.993 64.7947 128.217 64.72C128.441 64.6453 128.702 64.608 129.001 64.608C129.757 64.608 130.363 64.8507 130.821 65.336C131.278 65.812 131.507 66.4887 131.507 67.366V72H130.387V67.562C130.387 66.8993 130.242 66.4093 129.953 66.092C129.663 65.7653 129.239 65.602 128.679 65.602C128.455 65.602 128.235 65.63 128.021 65.686C127.806 65.742 127.615 65.826 127.447 65.938C127.279 66.05 127.143 66.1947 127.041 66.372C126.938 66.5493 126.887 66.7547 126.887 66.988V72H125.767ZM138.739 70.824H138.683C138.216 71.72 137.474 72.168 136.457 72.168C135.57 72.168 134.875 71.8367 134.371 71.174C133.876 70.5113 133.629 69.5827 133.629 68.388C133.629 67.1933 133.876 66.2647 134.371 65.602C134.875 64.9393 135.57 64.608 136.457 64.608C137.474 64.608 138.216 65.056 138.683 65.952H138.739V61.64H139.859V72H138.739V70.824ZM136.891 71.174C137.143 71.174 137.381 71.1413 137.605 71.076C137.829 71.0107 138.025 70.9173 138.193 70.796C138.361 70.6653 138.492 70.5113 138.585 70.334C138.688 70.1473 138.739 69.9327 138.739 69.69V67.086C138.739 66.8433 138.688 66.6333 138.585 66.456C138.492 66.2693 138.361 66.1153 138.193 65.994C138.025 65.8633 137.829 65.7653 137.605 65.7C137.381 65.6347 137.143 65.602 136.891 65.602C136.238 65.602 135.729 65.8027 135.365 66.204C135.01 66.596 134.833 67.1187 134.833 67.772V69.004C134.833 69.6573 135.01 70.1847 135.365 70.586C135.729 70.978 136.238 71.174 136.891 71.174ZM150.334 72V64.776H151.37V65.616H151.426C151.538 65.336 151.697 65.098 151.902 64.902C152.107 64.706 152.411 64.608 152.812 64.608C153.232 64.608 153.545 64.7153 153.75 64.93C153.955 65.1353 154.081 65.406 154.128 65.742H154.17C154.301 65.4153 154.487 65.1447 154.73 64.93C154.973 64.7153 155.309 64.608 155.738 64.608C156.326 64.608 156.718 64.8133 156.914 65.224C157.119 65.6347 157.222 66.2227 157.222 66.988V72H156.186V67.17C156.186 66.554 156.121 66.1293 155.99 65.896C155.869 65.6533 155.64 65.532 155.304 65.532C155.005 65.532 154.763 65.63 154.576 65.826C154.389 66.0127 154.296 66.302 154.296 66.694V72H153.26V67.17C153.26 66.554 153.195 66.1293 153.064 65.896C152.943 65.6533 152.719 65.532 152.392 65.532C152.093 65.532 151.846 65.63 151.65 65.826C151.463 66.0127 151.37 66.302 151.37 66.694V72H150.334ZM162.173 72.168C161.669 72.168 161.211 72.0793 160.801 71.902C160.399 71.7247 160.054 71.4727 159.765 71.146C159.485 70.81 159.27 70.4133 159.121 69.956C158.971 69.4893 158.897 68.9667 158.897 68.388C158.897 67.8187 158.971 67.3007 159.121 66.834C159.27 66.3673 159.485 65.9707 159.765 65.644C160.054 65.308 160.399 65.0513 160.801 64.874C161.211 64.6967 161.669 64.608 162.173 64.608C162.677 64.608 163.129 64.6967 163.531 64.874C163.941 65.0513 164.287 65.308 164.567 65.644C164.856 65.9707 165.075 66.3673 165.225 66.834C165.374 67.3007 165.449 67.8187 165.449 68.388C165.449 68.9667 165.374 69.4893 165.225 69.956C165.075 70.4133 164.856 70.81 164.567 71.146C164.287 71.4727 163.941 71.7247 163.531 71.902C163.129 72.0793 162.677 72.168 162.173 72.168ZM162.173 71.202C162.798 71.202 163.302 71.0153 163.685 70.642C164.067 70.2687 164.259 69.69 164.259 68.906V67.87C164.259 67.086 164.067 66.5073 163.685 66.134C163.302 65.7607 162.798 65.574 162.173 65.574C161.547 65.574 161.043 65.7607 160.661 66.134C160.278 66.5073 160.087 67.086 160.087 67.87V68.906C160.087 69.69 160.278 70.2687 160.661 70.642C161.043 71.0153 161.547 71.202 162.173 71.202ZM170.917 72C170.367 72 169.961 71.846 169.699 71.538C169.447 71.23 169.321 70.8333 169.321 70.348V65.728H166.913V64.776H168.705C168.948 64.776 169.116 64.7293 169.209 64.636C169.312 64.5333 169.363 64.3607 169.363 64.118V62.228H170.441V64.776H173.731V65.728H170.441V71.048H173.731V72H170.917ZM179.41 63.18C179.083 63.18 178.854 63.1147 178.724 62.984C178.593 62.844 178.528 62.6713 178.528 62.466V62.242C178.528 62.0367 178.593 61.8687 178.724 61.738C178.854 61.598 179.083 61.528 179.41 61.528C179.736 61.528 179.965 61.598 180.096 61.738C180.226 61.8687 180.292 62.0367 180.292 62.242V62.466C180.292 62.6713 180.226 62.844 180.096 62.984C179.965 63.1147 179.736 63.18 179.41 63.18ZM176.246 71.048H178.85V65.728H176.246V64.776H179.97V71.048H182.406V72H176.246V71.048ZM186.642 72L184.052 64.776H185.186L186.222 67.8L187.342 71.062H187.398L188.518 67.8L189.554 64.776H190.66L188.07 72H186.642ZM198.481 72C198.042 72 197.729 71.888 197.543 71.664C197.356 71.44 197.239 71.16 197.193 70.824H197.123C196.964 71.244 196.707 71.5753 196.353 71.818C196.007 72.0513 195.541 72.168 194.953 72.168C194.197 72.168 193.595 71.972 193.147 71.58C192.699 71.188 192.475 70.6513 192.475 69.97C192.475 69.298 192.717 68.78 193.203 68.416C193.697 68.052 194.491 67.87 195.583 67.87H197.123V67.156C197.123 66.624 196.973 66.2273 196.675 65.966C196.376 65.6953 195.951 65.56 195.401 65.56C194.915 65.56 194.519 65.658 194.211 65.854C193.903 66.0407 193.655 66.2973 193.469 66.624L192.713 66.064C192.806 65.8773 192.932 65.6953 193.091 65.518C193.249 65.3407 193.445 65.1867 193.679 65.056C193.912 64.916 194.178 64.8087 194.477 64.734C194.775 64.65 195.107 64.608 195.471 64.608C196.32 64.608 196.992 64.8227 197.487 65.252C197.991 65.6813 198.243 66.2787 198.243 67.044V71.02H199.251V72H198.481ZM195.149 71.23C195.438 71.23 195.699 71.1973 195.933 71.132C196.175 71.0573 196.385 70.964 196.563 70.852C196.74 70.7307 196.875 70.5907 196.969 70.432C197.071 70.264 197.123 70.0867 197.123 69.9V68.71H195.583C194.911 68.71 194.421 68.8033 194.113 68.99C193.805 69.1767 193.651 69.4473 193.651 69.802V70.096C193.651 70.4693 193.781 70.754 194.043 70.95C194.313 71.1367 194.682 71.23 195.149 71.23ZM204.495 72C203.945 72 203.539 71.846 203.277 71.538C203.025 71.23 202.899 70.8333 202.899 70.348V65.728H200.491V64.776H202.283C202.526 64.776 202.694 64.7293 202.787 64.636C202.89 64.5333 202.941 64.3607 202.941 64.118V62.228H204.019V64.776H207.309V65.728H204.019V71.048H207.309V72H204.495ZM212.988 63.18C212.661 63.18 212.433 63.1147 212.302 62.984C212.171 62.844 212.106 62.6713 212.106 62.466V62.242C212.106 62.0367 212.171 61.8687 212.302 61.738C212.433 61.598 212.661 61.528 212.988 61.528C213.315 61.528 213.543 61.598 213.674 61.738C213.805 61.8687 213.87 62.0367 213.87 62.242V62.466C213.87 62.6713 213.805 62.844 213.674 62.984C213.543 63.1147 213.315 63.18 212.988 63.18ZM209.824 71.048H212.428V65.728H209.824V64.776H213.548V71.048H215.984V72H209.824V71.048ZM220.934 72.168C220.43 72.168 219.973 72.0793 219.562 71.902C219.161 71.7247 218.816 71.4727 218.526 71.146C218.246 70.81 218.032 70.4133 217.882 69.956C217.733 69.4893 217.658 68.9667 217.658 68.388C217.658 67.8187 217.733 67.3007 217.882 66.834C218.032 66.3673 218.246 65.9707 218.526 65.644C218.816 65.308 219.161 65.0513 219.562 64.874C219.973 64.6967 220.43 64.608 220.934 64.608C221.438 64.608 221.891 64.6967 222.292 64.874C222.703 65.0513 223.048 65.308 223.328 65.644C223.618 65.9707 223.837 66.3673 223.986 66.834C224.136 67.3007 224.21 67.8187 224.21 68.388C224.21 68.9667 224.136 69.4893 223.986 69.956C223.837 70.4133 223.618 70.81 223.328 71.146C223.048 71.4727 222.703 71.7247 222.292 71.902C221.891 72.0793 221.438 72.168 220.934 72.168ZM220.934 71.202C221.56 71.202 222.064 71.0153 222.446 70.642C222.829 70.2687 223.02 69.69 223.02 68.906V67.87C223.02 67.086 222.829 66.5073 222.446 66.134C222.064 65.7607 221.56 65.574 220.934 65.574C220.309 65.574 219.805 65.7607 219.422 66.134C219.04 66.5073 218.848 67.086 218.848 67.87V68.906C218.848 69.69 219.04 70.2687 219.422 70.642C219.805 71.0153 220.309 71.202 220.934 71.202ZM226.501 72V64.776H227.621V65.952H227.677C227.752 65.7747 227.845 65.6067 227.957 65.448C228.069 65.28 228.204 65.1353 228.363 65.014C228.531 64.8927 228.727 64.7947 228.951 64.72C229.175 64.6453 229.436 64.608 229.735 64.608C230.491 64.608 231.098 64.8507 231.555 65.336C232.012 65.812 232.241 66.4887 232.241 67.366V72H231.121V67.562C231.121 66.8993 230.976 66.4093 230.687 66.092C230.398 65.7653 229.973 65.602 229.413 65.602C229.189 65.602 228.97 65.63 228.755 65.686C228.54 65.742 228.349 65.826 228.181 65.938C228.013 66.05 227.878 66.1947 227.775 66.372C227.672 66.5493 227.621 66.7547 227.621 66.988V72H226.501ZM246.468 72C245.917 72 245.511 71.846 245.25 71.538C244.998 71.23 244.872 70.8333 244.872 70.348V65.728H242.464V64.776H244.256C244.499 64.776 244.667 64.7293 244.76 64.636C244.863 64.5333 244.914 64.3607 244.914 64.118V62.228H245.992V64.776H249.282V65.728H245.992V71.048H249.282V72H246.468ZM254.513 72.168C254.009 72.168 253.551 72.0793 253.141 71.902C252.739 71.7247 252.394 71.4727 252.105 71.146C251.825 70.81 251.61 70.4133 251.461 69.956C251.311 69.4893 251.236 68.9667 251.236 68.388C251.236 67.8187 251.311 67.3007 251.461 66.834C251.61 66.3673 251.825 65.9707 252.105 65.644C252.394 65.308 252.739 65.0513 253.141 64.874C253.551 64.6967 254.009 64.608 254.513 64.608C255.017 64.608 255.469 64.6967 255.871 64.874C256.281 65.0513 256.627 65.308 256.907 65.644C257.196 65.9707 257.415 66.3673 257.565 66.834C257.714 67.3007 257.789 67.8187 257.789 68.388C257.789 68.9667 257.714 69.4893 257.565 69.956C257.415 70.4133 257.196 70.81 256.907 71.146C256.627 71.4727 256.281 71.7247 255.871 71.902C255.469 72.0793 255.017 72.168 254.513 72.168ZM254.513 71.202C255.138 71.202 255.642 71.0153 256.025 70.642C256.407 70.2687 256.599 69.69 256.599 68.906V67.87C256.599 67.086 256.407 66.5073 256.025 66.134C255.642 65.7607 255.138 65.574 254.513 65.574C253.887 65.574 253.383 65.7607 253.001 66.134C252.618 66.5073 252.427 67.086 252.427 67.87V68.906C252.427 69.69 252.618 70.2687 253.001 70.642C253.383 71.0153 253.887 71.202 254.513 71.202ZM273.052 70.824H272.996C272.529 71.72 271.787 72.168 270.77 72.168C269.883 72.168 269.188 71.8367 268.684 71.174C268.189 70.5113 267.942 69.5827 267.942 68.388C267.942 67.1933 268.189 66.2647 268.684 65.602C269.188 64.9393 269.883 64.608 270.77 64.608C271.787 64.608 272.529 65.056 272.996 65.952H273.052V61.64H274.172V72H273.052V70.824ZM271.204 71.174C271.456 71.174 271.694 71.1413 271.918 71.076C272.142 71.0107 272.338 70.9173 272.506 70.796C272.674 70.6653 272.804 70.5113 272.898 70.334C273 70.1473 273.052 69.9327 273.052 69.69V67.086C273.052 66.8433 273 66.6333 272.898 66.456C272.804 66.2693 272.674 66.1153 272.506 65.994C272.338 65.8633 272.142 65.7653 271.918 65.7C271.694 65.6347 271.456 65.602 271.204 65.602C270.55 65.602 270.042 65.8027 269.678 66.204C269.323 66.596 269.146 67.1187 269.146 67.772V69.004C269.146 69.6573 269.323 70.1847 269.678 70.586C270.042 70.978 270.55 71.174 271.204 71.174ZM279.696 72.168C279.192 72.168 278.735 72.0793 278.324 71.902C277.923 71.7247 277.577 71.4727 277.288 71.146C277.008 70.81 276.793 70.4133 276.644 69.956C276.495 69.4893 276.42 68.9667 276.42 68.388C276.42 67.8187 276.495 67.3007 276.644 66.834C276.793 66.3673 277.008 65.9707 277.288 65.644C277.577 65.308 277.923 65.0513 278.324 64.874C278.735 64.6967 279.192 64.608 279.696 64.608C280.2 64.608 280.653 64.6967 281.054 64.874C281.465 65.0513 281.81 65.308 282.09 65.644C282.379 65.9707 282.599 66.3673 282.748 66.834C282.897 67.3007 282.972 67.8187 282.972 68.388C282.972 68.9667 282.897 69.4893 282.748 69.956C282.599 70.4133 282.379 70.81 282.09 71.146C281.81 71.4727 281.465 71.7247 281.054 71.902C280.653 72.0793 280.2 72.168 279.696 72.168ZM279.696 71.202C280.321 71.202 280.825 71.0153 281.208 70.642C281.591 70.2687 281.782 69.69 281.782 68.906V67.87C281.782 67.086 281.591 66.5073 281.208 66.134C280.825 65.7607 280.321 65.574 279.696 65.574C279.071 65.574 278.567 65.7607 278.184 66.134C277.801 66.5073 277.61 67.086 277.61 67.87V68.906C277.61 69.69 277.801 70.2687 278.184 70.642C278.567 71.0153 279.071 71.202 279.696 71.202ZM296.835 72C296.284 72 295.878 71.846 295.617 71.538C295.365 71.23 295.239 70.8333 295.239 70.348V65.728H292.831V64.776H294.623C294.866 64.776 295.034 64.7293 295.127 64.636C295.23 64.5333 295.281 64.3607 295.281 64.118V62.228H296.359V64.776H299.649V65.728H296.359V71.048H299.649V72H296.835ZM302.052 61.64H303.172V65.952H303.228C303.302 65.7747 303.396 65.6067 303.508 65.448C303.62 65.28 303.755 65.1353 303.914 65.014C304.082 64.8927 304.278 64.7947 304.502 64.72C304.726 64.6453 304.987 64.608 305.286 64.608C306.042 64.608 306.648 64.8507 307.106 65.336C307.563 65.812 307.792 66.4887 307.792 67.366V72H306.672V67.562C306.672 66.8993 306.527 66.4093 306.238 66.092C305.948 65.7653 305.524 65.602 304.964 65.602C304.74 65.602 304.52 65.63 304.306 65.686C304.091 65.742 303.9 65.826 303.732 65.938C303.564 66.05 303.428 66.1947 303.326 66.372C303.223 66.5493 303.172 66.7547 303.172 66.988V72H302.052V61.64ZM313.4 72.168C312.878 72.168 312.406 72.0793 311.986 71.902C311.576 71.7247 311.221 71.4727 310.922 71.146C310.633 70.81 310.409 70.4133 310.25 69.956C310.092 69.4893 310.012 68.9713 310.012 68.402C310.012 67.8233 310.092 67.3007 310.25 66.834C310.418 66.3673 310.647 65.9707 310.936 65.644C311.226 65.308 311.571 65.0513 311.972 64.874C312.383 64.6967 312.836 64.608 313.33 64.608C313.816 64.608 314.254 64.6967 314.646 64.874C315.048 65.0513 315.388 65.2987 315.668 65.616C315.948 65.924 316.163 66.2927 316.312 66.722C316.462 67.1513 316.536 67.6227 316.536 68.136V68.668H311.188V69.004C311.188 69.3213 311.24 69.6153 311.342 69.886C311.445 70.1567 311.59 70.39 311.776 70.586C311.972 70.782 312.206 70.936 312.476 71.048C312.756 71.1507 313.064 71.202 313.4 71.202C313.886 71.202 314.306 71.09 314.66 70.866C315.015 70.642 315.286 70.334 315.472 69.942L316.298 70.502C316.084 70.9873 315.724 71.3887 315.22 71.706C314.726 72.014 314.119 72.168 313.4 72.168ZM313.33 65.532C313.022 65.532 312.738 65.588 312.476 65.7C312.215 65.812 311.986 65.966 311.79 66.162C311.604 66.358 311.454 66.5913 311.342 66.862C311.24 67.1233 311.188 67.4127 311.188 67.73V67.828H315.332V67.674C315.332 67.3567 315.281 67.0673 315.178 66.806C315.085 66.5447 314.95 66.3207 314.772 66.134C314.604 65.938 314.394 65.7887 314.142 65.686C313.9 65.5833 313.629 65.532 313.33 65.532ZM322.117 63.18C321.79 63.18 321.561 63.1147 321.431 62.984C321.3 62.844 321.235 62.6713 321.235 62.466V62.242C321.235 62.0367 321.3 61.8687 321.431 61.738C321.561 61.598 321.79 61.528 322.117 61.528C322.443 61.528 322.672 61.598 322.803 61.738C322.933 61.8687 322.999 62.0367 322.999 62.242V62.466C322.999 62.6713 322.933 62.844 322.803 62.984C322.672 63.1147 322.443 63.18 322.117 63.18ZM318.953 71.048H321.557V65.728H318.953V64.776H322.677V71.048H325.113V72H318.953V71.048ZM326.941 71.048H329.055V65.728H326.941V64.776H330.175V66.596H330.245C330.395 66.0267 330.675 65.5833 331.085 65.266C331.505 64.9393 332.037 64.776 332.681 64.776H333.689V65.896H332.331C331.687 65.896 331.165 66.0827 330.763 66.456C330.371 66.8293 330.175 67.3193 330.175 67.926V71.048H332.975V72H326.941V71.048ZM344.08 73.848H347.58V65.728H343.954V64.776H348.7V73.148C348.7 73.6333 348.57 74.03 348.308 74.338C348.056 74.646 347.655 74.8 347.104 74.8H344.08V73.848ZM348.14 63.18C347.814 63.18 347.585 63.1147 347.454 62.984C347.324 62.844 347.258 62.6713 347.258 62.466V62.242C347.258 62.0367 347.324 61.8687 347.454 61.738C347.585 61.598 347.814 61.528 348.14 61.528C348.467 61.528 348.696 61.598 348.826 61.738C348.957 61.8687 349.022 62.0367 349.022 62.242V62.466C349.022 62.6713 348.957 62.844 348.826 62.984C348.696 63.1147 348.467 63.18 348.14 63.18ZM355.247 72.168C354.743 72.168 354.286 72.0793 353.875 71.902C353.474 71.7247 353.128 71.4727 352.839 71.146C352.559 70.81 352.344 70.4133 352.195 69.956C352.046 69.4893 351.971 68.9667 351.971 68.388C351.971 67.8187 352.046 67.3007 352.195 66.834C352.344 66.3673 352.559 65.9707 352.839 65.644C353.128 65.308 353.474 65.0513 353.875 64.874C354.286 64.6967 354.743 64.608 355.247 64.608C355.751 64.608 356.204 64.6967 356.605 64.874C357.016 65.0513 357.361 65.308 357.641 65.644C357.93 65.9707 358.15 66.3673 358.299 66.834C358.448 67.3007 358.523 67.8187 358.523 68.388C358.523 68.9667 358.448 69.4893 358.299 69.956C358.15 70.4133 357.93 70.81 357.641 71.146C357.361 71.4727 357.016 71.7247 356.605 71.902C356.204 72.0793 355.751 72.168 355.247 72.168ZM355.247 71.202C355.872 71.202 356.376 71.0153 356.759 70.642C357.142 70.2687 357.333 69.69 357.333 68.906V67.87C357.333 67.086 357.142 66.5073 356.759 66.134C356.376 65.7607 355.872 65.574 355.247 65.574C354.622 65.574 354.118 65.7607 353.735 66.134C353.352 66.5073 353.161 67.086 353.161 67.87V68.906C353.161 69.69 353.352 70.2687 353.735 70.642C354.118 71.0153 354.622 71.202 355.247 71.202ZM360.771 61.64H361.891V65.952H361.947C362.414 65.056 363.156 64.608 364.173 64.608C365.06 64.608 365.751 64.9393 366.245 65.602C366.749 66.2647 367.001 67.1933 367.001 68.388C367.001 69.5827 366.749 70.5113 366.245 71.174C365.751 71.8367 365.06 72.168 364.173 72.168C363.156 72.168 362.414 71.72 361.947 70.824H361.891V72H360.771V61.64ZM363.739 71.174C364.393 71.174 364.897 70.978 365.251 70.586C365.615 70.1847 365.797 69.6573 365.797 69.004V67.772C365.797 67.1187 365.615 66.596 365.251 66.204C364.897 65.8027 364.393 65.602 363.739 65.602C363.487 65.602 363.249 65.6347 363.025 65.7C362.801 65.7653 362.605 65.8633 362.437 65.994C362.269 66.1153 362.134 66.2693 362.031 66.456C361.938 66.6333 361.891 66.8433 361.891 67.086V69.69C361.891 69.9327 361.938 70.1473 362.031 70.334C362.134 70.5113 362.269 70.6653 362.437 70.796C362.605 70.9173 362.801 71.0107 363.025 71.076C363.249 71.1413 363.487 71.174 363.739 71.174ZM372.12 72.168C371.364 72.168 370.711 72.042 370.16 71.79C369.619 71.5287 369.157 71.1833 368.774 70.754L369.53 70.096C369.875 70.46 370.253 70.74 370.664 70.936C371.075 71.132 371.569 71.23 372.148 71.23C372.708 71.23 373.165 71.132 373.52 70.936C373.884 70.7307 374.066 70.4133 374.066 69.984C374.066 69.7973 374.029 69.6433 373.954 69.522C373.889 69.3913 373.795 69.2887 373.674 69.214C373.553 69.1393 373.417 69.0833 373.268 69.046C373.119 68.9993 372.96 68.962 372.792 68.934L371.658 68.766C371.406 68.7287 371.131 68.6773 370.832 68.612C370.543 68.5467 370.277 68.444 370.034 68.304C369.791 68.1547 369.586 67.9587 369.418 67.716C369.259 67.4733 369.18 67.156 369.18 66.764C369.18 66.4 369.25 66.0873 369.39 65.826C369.539 65.5553 369.745 65.3313 370.006 65.154C370.267 64.9673 370.575 64.832 370.93 64.748C371.285 64.6547 371.672 64.608 372.092 64.608C372.745 64.608 373.31 64.7107 373.786 64.916C374.271 65.1213 374.687 65.406 375.032 65.77L374.304 66.456C374.22 66.3533 374.113 66.2507 373.982 66.148C373.861 66.036 373.707 65.938 373.52 65.854C373.343 65.7607 373.133 65.686 372.89 65.63C372.647 65.574 372.367 65.546 372.05 65.546C371.481 65.546 371.042 65.644 370.734 65.84C370.435 66.036 370.286 66.3207 370.286 66.694C370.286 66.8807 370.319 67.0393 370.384 67.17C370.459 67.2913 370.557 67.3893 370.678 67.464C370.799 67.5387 370.935 67.5993 371.084 67.646C371.243 67.6833 371.401 67.716 371.56 67.744L372.694 67.912C372.955 67.9493 373.231 68.0007 373.52 68.066C373.809 68.1313 374.075 68.2387 374.318 68.388C374.561 68.528 374.761 68.7193 374.92 68.962C375.088 69.2047 375.172 69.522 375.172 69.914C375.172 70.6327 374.892 71.188 374.332 71.58C373.781 71.972 373.044 72.168 372.12 72.168ZM385.045 64.776H386.039L386.865 71.02H386.991L388.223 64.776H389.455L390.687 71.02H390.813L391.639 64.776H392.605L391.499 72H390.043L388.895 65.952H388.783L387.607 72H386.151L385.045 64.776ZM397.346 72.168C396.823 72.168 396.352 72.0793 395.932 71.902C395.521 71.7247 395.166 71.4727 394.868 71.146C394.578 70.81 394.354 70.4133 394.196 69.956C394.037 69.4893 393.958 68.9713 393.958 68.402C393.958 67.8233 394.037 67.3007 394.196 66.834C394.364 66.3673 394.592 65.9707 394.882 65.644C395.171 65.308 395.516 65.0513 395.918 64.874C396.328 64.6967 396.781 64.608 397.276 64.608C397.761 64.608 398.2 64.6967 398.592 64.874C398.993 65.0513 399.334 65.2987 399.614 65.616C399.894 65.924 400.108 66.2927 400.258 66.722C400.407 67.1513 400.482 67.6227 400.482 68.136V68.668H395.134V69.004C395.134 69.3213 395.185 69.6153 395.288 69.886C395.39 70.1567 395.535 70.39 395.722 70.586C395.918 70.782 396.151 70.936 396.422 71.048C396.702 71.1507 397.01 71.202 397.346 71.202C397.831 71.202 398.251 71.09 398.606 70.866C398.96 70.642 399.231 70.334 399.418 69.942L400.244 70.502C400.029 70.9873 399.67 71.3887 399.166 71.706C398.671 72.014 398.064 72.168 397.346 72.168ZM397.276 65.532C396.968 65.532 396.683 65.588 396.422 65.7C396.16 65.812 395.932 65.966 395.736 66.162C395.549 66.358 395.4 66.5913 395.288 66.862C395.185 67.1233 395.134 67.4127 395.134 67.73V67.828H399.278V67.674C399.278 67.3567 399.226 67.0673 399.124 66.806C399.03 66.5447 398.895 66.3207 398.718 66.134C398.55 65.938 398.34 65.7887 398.088 65.686C397.845 65.5833 397.574 65.532 397.276 65.532ZM402.534 71.048H405.054V62.592H402.534V61.64H406.174V71.048H408.694V72H402.534V71.048ZM410.929 71.048H413.449V62.592H410.929V61.64H414.569V71.048H417.089V72H410.929V71.048ZM422.403 72.126C422.02 72.126 421.75 72.0467 421.591 71.888C421.442 71.7293 421.367 71.5287 421.367 71.286V71.034C421.367 70.7913 421.442 70.5907 421.591 70.432C421.75 70.2733 422.02 70.194 422.403 70.194C422.786 70.194 423.052 70.2733 423.201 70.432C423.36 70.5907 423.439 70.7913 423.439 71.034V71.286C423.439 71.5287 423.36 71.7293 423.201 71.888C423.052 72.0467 422.786 72.126 422.403 72.126Z" fill="black"/>
<rect x="64" y="44" width="22" height="22" rx="6" fill="#08B24C"/>
<path d="M73.401 60.804H72.114C71.6813 60.804 71.3623 60.683 71.157 60.441C70.959 60.199 70.86 59.8873 70.86 59.506V59.099C70.4713 59.0477 70.134 58.923 69.848 58.725C69.5693 58.5197 69.3383 58.252 69.155 57.922C68.9717 57.5847 68.836 57.185 68.748 56.723C68.66 56.2537 68.616 55.733 68.616 55.161C68.616 54.5377 68.6673 53.9803 68.77 53.489C68.8727 52.9903 69.034 52.5723 69.254 52.235C69.474 51.8977 69.7527 51.641 70.09 51.465C70.4273 51.2817 70.8307 51.19 71.3 51.19C71.7693 51.19 72.1727 51.2817 72.51 51.465C72.8473 51.641 73.126 51.8977 73.346 52.235C73.566 52.5723 73.7273 52.9903 73.83 53.489C73.9327 53.9803 73.984 54.5377 73.984 55.161C73.984 56.3123 73.8043 57.2327 73.445 57.922C73.0857 58.604 72.5173 58.9963 71.74 59.099V60.056H73.401V60.804ZM71.3 58.329C71.608 58.329 71.8683 58.2703 72.081 58.153C72.2937 58.0283 72.4697 57.856 72.609 57.636C72.7483 57.416 72.8473 57.152 72.906 56.844C72.972 56.5287 73.005 56.1767 73.005 55.788V54.534C73.005 54.1527 72.972 53.8043 72.906 53.489C72.8473 53.1737 72.7483 52.906 72.609 52.686C72.4697 52.466 72.2937 52.2973 72.081 52.18C71.8683 52.0553 71.608 51.993 71.3 51.993C70.992 51.993 70.7317 52.0553 70.519 52.18C70.3063 52.2973 70.1303 52.466 69.991 52.686C69.8517 52.906 69.749 53.1737 69.683 53.489C69.6243 53.8043 69.595 54.1527 69.595 54.534V55.788C69.595 56.1767 69.6243 56.5287 69.683 56.844C69.749 57.152 69.8517 57.416 69.991 57.636C70.1303 57.856 70.3063 58.0283 70.519 58.153C70.7317 58.2703 70.992 58.329 71.3 58.329ZM75.5307 59V58.197H77.7307V52.004H77.6537L75.7177 53.808L75.1787 53.225L77.2137 51.322H78.6547V58.197H80.6787V59H75.5307Z" fill="white"/>
<g filter="url(#filter1_d)">
<rect x="116" y="96" width="364" height="36" rx="3" fill="url(#paint0_linear)"/>
</g>
<line x1="189" y1="96" x2="189" y2="132" stroke="black" stroke-opacity="0.5"/>
<line x1="261.5" y1="96" x2="261.5" y2="132" stroke="black" stroke-opacity="0.5"/>
<line x1="334" y1="96" x2="334" y2="132" stroke="black" stroke-opacity="0.5"/>
<line x1="406.5" y1="96" x2="406.5" y2="132" stroke="black" stroke-opacity="0.5"/>
<path d="M149.19 119V117.978H151.99V110.096H151.892L149.428 112.392L148.742 111.65L151.332 109.228H153.166V117.978H155.742V119H149.19Z" fill="black"/>
<path d="M228.518 119H221.994V117.796L225.256 114.856C225.732 114.427 226.124 113.988 226.432 113.54C226.74 113.083 226.894 112.602 226.894 112.098V111.93C226.894 111.342 226.74 110.889 226.432 110.572C226.124 110.245 225.667 110.082 225.06 110.082C224.463 110.082 224.001 110.236 223.674 110.544C223.357 110.843 223.119 111.244 222.96 111.748L221.91 111.356C222.003 111.067 222.129 110.787 222.288 110.516C222.456 110.236 222.666 109.989 222.918 109.774C223.17 109.559 223.473 109.387 223.828 109.256C224.192 109.125 224.612 109.06 225.088 109.06C225.573 109.06 226.003 109.13 226.376 109.27C226.759 109.41 227.076 109.606 227.328 109.858C227.589 110.11 227.785 110.409 227.916 110.754C228.056 111.099 228.126 111.477 228.126 111.888C228.126 112.261 228.07 112.611 227.958 112.938C227.855 113.265 227.706 113.577 227.51 113.876C227.323 114.175 227.095 114.469 226.824 114.758C226.563 115.038 226.269 115.318 225.942 115.598L223.212 117.978H228.518V119Z" fill="black"/>
<path d="M297.78 113.372C298.461 113.372 298.97 113.223 299.306 112.924C299.651 112.616 299.824 112.224 299.824 111.748V111.65C299.824 111.127 299.656 110.735 299.32 110.474C298.993 110.213 298.564 110.082 298.032 110.082C297.509 110.082 297.085 110.199 296.758 110.432C296.441 110.656 296.179 110.955 295.974 111.328L295.092 110.656C295.213 110.46 295.363 110.269 295.54 110.082C295.717 109.886 295.923 109.713 296.156 109.564C296.399 109.415 296.674 109.293 296.982 109.2C297.299 109.107 297.659 109.06 298.06 109.06C298.48 109.06 298.872 109.116 299.236 109.228C299.6 109.331 299.917 109.489 300.188 109.704C300.459 109.909 300.669 110.166 300.818 110.474C300.977 110.782 301.056 111.132 301.056 111.524C301.056 111.841 301.005 112.126 300.902 112.378C300.809 112.63 300.673 112.849 300.496 113.036C300.328 113.223 300.127 113.381 299.894 113.512C299.661 113.643 299.413 113.741 299.152 113.806V113.862C299.423 113.918 299.684 114.011 299.936 114.142C300.188 114.263 300.412 114.427 300.608 114.632C300.804 114.828 300.958 115.071 301.07 115.36C301.191 115.64 301.252 115.962 301.252 116.326C301.252 116.746 301.168 117.133 301 117.488C300.841 117.833 300.613 118.132 300.314 118.384C300.025 118.627 299.67 118.818 299.25 118.958C298.839 119.098 298.382 119.168 297.878 119.168C297.449 119.168 297.066 119.121 296.73 119.028C296.403 118.935 296.109 118.809 295.848 118.65C295.596 118.491 295.372 118.314 295.176 118.118C294.989 117.922 294.821 117.717 294.672 117.502L295.554 116.83C295.685 117.026 295.82 117.203 295.96 117.362C296.1 117.521 296.259 117.661 296.436 117.782C296.623 117.894 296.833 117.983 297.066 118.048C297.299 118.113 297.57 118.146 297.878 118.146C298.569 118.146 299.096 117.987 299.46 117.67C299.833 117.353 300.02 116.9 300.02 116.312V116.2C300.02 115.621 299.838 115.173 299.474 114.856C299.119 114.539 298.583 114.38 297.864 114.38H296.702V113.372H297.78Z" fill="black"/>
<path d="M372.292 119V117.082H367.476V116.046L371.704 109.228H373.412V116.116H374.868V117.082H373.412V119H372.292ZM368.526 116.116H372.292V110.138H372.236L368.526 116.116Z" fill="black"/>
<path d="M447.014 110.25H442.646L442.366 113.988H442.464C442.707 113.661 442.977 113.405 443.276 113.218C443.575 113.022 443.985 112.924 444.508 112.924C444.937 112.924 445.329 112.994 445.684 113.134C446.048 113.265 446.361 113.461 446.622 113.722C446.883 113.983 447.089 114.301 447.238 114.674C447.387 115.038 447.462 115.458 447.462 115.934C447.462 116.41 447.387 116.849 447.238 117.25C447.089 117.642 446.869 117.983 446.58 118.272C446.291 118.552 445.941 118.771 445.53 118.93C445.119 119.089 444.653 119.168 444.13 119.168C443.719 119.168 443.351 119.121 443.024 119.028C442.707 118.935 442.422 118.809 442.17 118.65C441.927 118.491 441.713 118.314 441.526 118.118C441.339 117.922 441.171 117.717 441.022 117.502L441.904 116.83C442.035 117.026 442.165 117.203 442.296 117.362C442.436 117.521 442.595 117.661 442.772 117.782C442.949 117.894 443.15 117.983 443.374 118.048C443.598 118.113 443.859 118.146 444.158 118.146C444.83 118.146 445.343 117.964 445.698 117.6C446.062 117.236 446.244 116.732 446.244 116.088V115.976C446.244 115.332 446.062 114.828 445.698 114.464C445.334 114.1 444.811 113.918 444.13 113.918C443.663 113.918 443.299 113.997 443.038 114.156C442.786 114.315 442.553 114.511 442.338 114.744L441.344 114.604L441.694 109.228H447.014V110.25Z" fill="black"/>
<path d="M117.33 146.228H120.06C121.255 146.228 122.146 146.639 122.734 147.46C123.322 148.281 123.616 149.499 123.616 151.114C123.616 152.729 123.322 153.947 122.734 154.768C122.146 155.589 121.255 156 120.06 156H117.33V146.228ZM120.004 154.978C120.788 154.978 121.376 154.707 121.768 154.166C122.169 153.625 122.37 152.859 122.37 151.87V150.358C122.37 149.369 122.169 148.603 121.768 148.062C121.376 147.521 120.788 147.25 120.004 147.25H118.506V154.978H120.004ZM129.043 147.18C128.716 147.18 128.487 147.115 128.357 146.984C128.226 146.844 128.161 146.671 128.161 146.466V146.242C128.161 146.037 128.226 145.869 128.357 145.738C128.487 145.598 128.716 145.528 129.043 145.528C129.369 145.528 129.598 145.598 129.729 145.738C129.859 145.869 129.925 146.037 129.925 146.242V146.466C129.925 146.671 129.859 146.844 129.729 146.984C129.598 147.115 129.369 147.18 129.043 147.18ZM125.879 155.048H128.483V149.728H125.879V148.776H129.603V155.048H132.039V156H125.879V155.048ZM137.073 156.168C136.317 156.168 135.664 156.042 135.113 155.79C134.572 155.529 134.11 155.183 133.727 154.754L134.483 154.096C134.828 154.46 135.206 154.74 135.617 154.936C136.028 155.132 136.522 155.23 137.101 155.23C137.661 155.23 138.118 155.132 138.473 154.936C138.837 154.731 139.019 154.413 139.019 153.984C139.019 153.797 138.982 153.643 138.907 153.522C138.842 153.391 138.748 153.289 138.627 153.214C138.506 153.139 138.37 153.083 138.221 153.046C138.072 152.999 137.913 152.962 137.745 152.934L136.611 152.766C136.359 152.729 136.084 152.677 135.785 152.612C135.496 152.547 135.23 152.444 134.987 152.304C134.744 152.155 134.539 151.959 134.371 151.716C134.212 151.473 134.133 151.156 134.133 150.764C134.133 150.4 134.203 150.087 134.343 149.826C134.492 149.555 134.698 149.331 134.959 149.154C135.22 148.967 135.528 148.832 135.883 148.748C136.238 148.655 136.625 148.608 137.045 148.608C137.698 148.608 138.263 148.711 138.739 148.916C139.224 149.121 139.64 149.406 139.985 149.77L139.257 150.456C139.173 150.353 139.066 150.251 138.935 150.148C138.814 150.036 138.66 149.938 138.473 149.854C138.296 149.761 138.086 149.686 137.843 149.63C137.6 149.574 137.32 149.546 137.003 149.546C136.434 149.546 135.995 149.644 135.687 149.84C135.388 150.036 135.239 150.321 135.239 150.694C135.239 150.881 135.272 151.039 135.337 151.17C135.412 151.291 135.51 151.389 135.631 151.464C135.752 151.539 135.888 151.599 136.037 151.646C136.196 151.683 136.354 151.716 136.513 151.744L137.647 151.912C137.908 151.949 138.184 152.001 138.473 152.066C138.762 152.131 139.028 152.239 139.271 152.388C139.514 152.528 139.714 152.719 139.873 152.962C140.041 153.205 140.125 153.522 140.125 153.914C140.125 154.633 139.845 155.188 139.285 155.58C138.734 155.972 137.997 156.168 137.073 156.168ZM148.114 156C147.675 156 147.362 155.888 147.176 155.664C146.989 155.44 146.872 155.16 146.826 154.824H146.756C146.597 155.244 146.34 155.575 145.986 155.818C145.64 156.051 145.174 156.168 144.586 156.168C143.83 156.168 143.228 155.972 142.78 155.58C142.332 155.188 142.108 154.651 142.108 153.97C142.108 153.298 142.35 152.78 142.836 152.416C143.33 152.052 144.124 151.87 145.216 151.87H146.756V151.156C146.756 150.624 146.606 150.227 146.308 149.966C146.009 149.695 145.584 149.56 145.034 149.56C144.548 149.56 144.152 149.658 143.844 149.854C143.536 150.041 143.288 150.297 143.102 150.624L142.346 150.064C142.439 149.877 142.565 149.695 142.724 149.518C142.882 149.341 143.078 149.187 143.312 149.056C143.545 148.916 143.811 148.809 144.11 148.734C144.408 148.65 144.74 148.608 145.104 148.608C145.953 148.608 146.625 148.823 147.12 149.252C147.624 149.681 147.876 150.279 147.876 151.044V155.02H148.884V156H148.114ZM144.782 155.23C145.071 155.23 145.332 155.197 145.566 155.132C145.808 155.057 146.018 154.964 146.196 154.852C146.373 154.731 146.508 154.591 146.602 154.432C146.704 154.264 146.756 154.087 146.756 153.9V152.71H145.216C144.544 152.71 144.054 152.803 143.746 152.99C143.438 153.177 143.284 153.447 143.284 153.802V154.096C143.284 154.469 143.414 154.754 143.676 154.95C143.946 155.137 144.315 155.23 144.782 155.23ZM157.432 156.826C157.432 157.554 157.129 158.091 156.522 158.436C155.915 158.791 155.005 158.968 153.792 158.968C152.625 158.968 151.785 158.814 151.272 158.506C150.768 158.198 150.516 157.755 150.516 157.176C150.516 156.784 150.619 156.481 150.824 156.266C151.029 156.051 151.319 155.893 151.692 155.79V155.622C151.487 155.519 151.328 155.389 151.216 155.23C151.104 155.071 151.048 154.871 151.048 154.628C151.048 154.255 151.169 153.975 151.412 153.788C151.664 153.601 151.977 153.461 152.35 153.368V153.312C151.902 153.116 151.552 152.827 151.3 152.444C151.057 152.061 150.936 151.613 150.936 151.1C150.936 150.736 151.001 150.4 151.132 150.092C151.263 149.784 151.449 149.523 151.692 149.308C151.944 149.084 152.243 148.911 152.588 148.79C152.933 148.669 153.316 148.608 153.736 148.608C154.277 148.608 154.753 148.706 155.164 148.902V148.776C155.164 148.496 155.229 148.263 155.36 148.076C155.491 147.889 155.715 147.796 156.032 147.796H157.362V148.776H155.738V149.266C155.999 149.49 156.2 149.756 156.34 150.064C156.48 150.372 156.55 150.717 156.55 151.1C156.55 151.464 156.48 151.8 156.34 152.108C156.209 152.416 156.023 152.682 155.78 152.906C155.537 153.121 155.239 153.289 154.884 153.41C154.539 153.531 154.156 153.592 153.736 153.592C153.615 153.592 153.498 153.587 153.386 153.578C153.274 153.569 153.162 153.555 153.05 153.536C152.938 153.555 152.821 153.587 152.7 153.634C152.579 153.671 152.467 153.727 152.364 153.802C152.261 153.867 152.177 153.947 152.112 154.04C152.047 154.133 152.014 154.241 152.014 154.362C152.014 154.577 152.121 154.721 152.336 154.796C152.551 154.861 152.831 154.894 153.176 154.894H154.772C155.705 154.894 156.382 155.071 156.802 155.426C157.222 155.771 157.432 156.238 157.432 156.826ZM156.382 156.882C156.382 156.593 156.265 156.359 156.032 156.182C155.799 156.014 155.393 155.93 154.814 155.93H152.308C151.823 156.126 151.58 156.453 151.58 156.91C151.58 157.227 151.706 157.498 151.958 157.722C152.21 157.955 152.63 158.072 153.218 158.072H154.31C154.963 158.072 155.472 157.969 155.836 157.764C156.2 157.568 156.382 157.274 156.382 156.882ZM153.736 152.724C154.296 152.724 154.707 152.593 154.968 152.332C155.239 152.071 155.374 151.725 155.374 151.296V150.89C155.374 150.461 155.239 150.12 154.968 149.868C154.707 149.607 154.296 149.476 153.736 149.476C153.176 149.476 152.765 149.607 152.504 149.868C152.243 150.12 152.112 150.461 152.112 150.89V151.296C152.112 151.725 152.243 152.071 152.504 152.332C152.765 152.593 153.176 152.724 153.736 152.724ZM159.051 155.048H161.165V149.728H159.051V148.776H162.285V150.596H162.355C162.504 150.027 162.784 149.583 163.195 149.266C163.615 148.939 164.147 148.776 164.791 148.776H165.799V149.896H164.441C163.797 149.896 163.274 150.083 162.873 150.456C162.481 150.829 162.285 151.319 162.285 151.926V155.048H165.085V156H159.051V155.048ZM170.693 156.168C170.171 156.168 169.699 156.079 169.279 155.902C168.869 155.725 168.514 155.473 168.215 155.146C167.926 154.81 167.702 154.413 167.543 153.956C167.385 153.489 167.305 152.971 167.305 152.402C167.305 151.823 167.385 151.301 167.543 150.834C167.711 150.367 167.94 149.971 168.229 149.644C168.519 149.308 168.864 149.051 169.265 148.874C169.676 148.697 170.129 148.608 170.623 148.608C171.109 148.608 171.547 148.697 171.939 148.874C172.341 149.051 172.681 149.299 172.961 149.616C173.241 149.924 173.456 150.293 173.605 150.722C173.755 151.151 173.829 151.623 173.829 152.136V152.668H168.481V153.004C168.481 153.321 168.533 153.615 168.635 153.886C168.738 154.157 168.883 154.39 169.069 154.586C169.265 154.782 169.499 154.936 169.769 155.048C170.049 155.151 170.357 155.202 170.693 155.202C171.179 155.202 171.599 155.09 171.953 154.866C172.308 154.642 172.579 154.334 172.765 153.942L173.591 154.502C173.377 154.987 173.017 155.389 172.513 155.706C172.019 156.014 171.412 156.168 170.693 156.168ZM170.623 149.532C170.315 149.532 170.031 149.588 169.769 149.7C169.508 149.812 169.279 149.966 169.083 150.162C168.897 150.358 168.747 150.591 168.635 150.862C168.533 151.123 168.481 151.413 168.481 151.73V151.828H172.625V151.674C172.625 151.357 172.574 151.067 172.471 150.806C172.378 150.545 172.243 150.321 172.065 150.134C171.897 149.938 171.687 149.789 171.435 149.686C171.193 149.583 170.922 149.532 170.623 149.532ZM179.088 156.168C178.565 156.168 178.094 156.079 177.674 155.902C177.263 155.725 176.908 155.473 176.61 155.146C176.32 154.81 176.096 154.413 175.938 153.956C175.779 153.489 175.7 152.971 175.7 152.402C175.7 151.823 175.779 151.301 175.938 150.834C176.106 150.367 176.334 149.971 176.624 149.644C176.913 149.308 177.258 149.051 177.66 148.874C178.07 148.697 178.523 148.608 179.018 148.608C179.503 148.608 179.942 148.697 180.334 148.874C180.735 149.051 181.076 149.299 181.356 149.616C181.636 149.924 181.85 150.293 182 150.722C182.149 151.151 182.224 151.623 182.224 152.136V152.668H176.876V153.004C176.876 153.321 176.927 153.615 177.03 153.886C177.132 154.157 177.277 154.39 177.464 154.586C177.66 154.782 177.893 154.936 178.164 155.048C178.444 155.151 178.752 155.202 179.088 155.202C179.573 155.202 179.993 155.09 180.348 154.866C180.702 154.642 180.973 154.334 181.16 153.942L181.986 154.502C181.771 154.987 181.412 155.389 180.908 155.706C180.413 156.014 179.806 156.168 179.088 156.168ZM179.018 149.532C178.71 149.532 178.425 149.588 178.164 149.7C177.902 149.812 177.674 149.966 177.478 150.162C177.291 150.358 177.142 150.591 177.03 150.862C176.927 151.123 176.876 151.413 176.876 151.73V151.828H181.02V151.674C181.02 151.357 180.968 151.067 180.866 150.806C180.772 150.545 180.637 150.321 180.46 150.134C180.292 149.938 180.082 149.789 179.83 149.686C179.587 149.583 179.316 149.532 179.018 149.532Z" fill="black"/>
<path d="M444.734 156L443.908 153.214H440.478L439.652 156H438.434L441.43 146.228H442.984L445.98 156H444.734ZM442.256 147.474H442.13L440.758 152.192H443.628L442.256 147.474ZM454.249 156.826C454.249 157.554 453.945 158.091 453.339 158.436C452.732 158.791 451.822 158.968 450.609 158.968C449.442 158.968 448.602 158.814 448.089 158.506C447.585 158.198 447.333 157.755 447.333 157.176C447.333 156.784 447.435 156.481 447.641 156.266C447.846 156.051 448.135 155.893 448.509 155.79V155.622C448.303 155.519 448.145 155.389 448.033 155.23C447.921 155.071 447.865 154.871 447.865 154.628C447.865 154.255 447.986 153.975 448.229 153.788C448.481 153.601 448.793 153.461 449.167 153.368V153.312C448.719 153.116 448.369 152.827 448.117 152.444C447.874 152.061 447.753 151.613 447.753 151.1C447.753 150.736 447.818 150.4 447.949 150.092C448.079 149.784 448.266 149.523 448.509 149.308C448.761 149.084 449.059 148.911 449.405 148.79C449.75 148.669 450.133 148.608 450.553 148.608C451.094 148.608 451.57 148.706 451.981 148.902V148.776C451.981 148.496 452.046 148.263 452.177 148.076C452.307 147.889 452.531 147.796 452.849 147.796H454.179V148.776H452.555V149.266C452.816 149.49 453.017 149.756 453.157 150.064C453.297 150.372 453.367 150.717 453.367 151.1C453.367 151.464 453.297 151.8 453.157 152.108C453.026 152.416 452.839 152.682 452.597 152.906C452.354 153.121 452.055 153.289 451.701 153.41C451.355 153.531 450.973 153.592 450.553 153.592C450.431 153.592 450.315 153.587 450.203 153.578C450.091 153.569 449.979 153.555 449.867 153.536C449.755 153.555 449.638 153.587 449.517 153.634C449.395 153.671 449.283 153.727 449.181 153.802C449.078 153.867 448.994 153.947 448.929 154.04C448.863 154.133 448.831 154.241 448.831 154.362C448.831 154.577 448.938 154.721 449.153 154.796C449.367 154.861 449.647 154.894 449.993 154.894H451.589C452.522 154.894 453.199 155.071 453.619 155.426C454.039 155.771 454.249 156.238 454.249 156.826ZM453.199 156.882C453.199 156.593 453.082 156.359 452.849 156.182C452.615 156.014 452.209 155.93 451.631 155.93H449.125C448.639 156.126 448.397 156.453 448.397 156.91C448.397 157.227 448.523 157.498 448.775 157.722C449.027 157.955 449.447 158.072 450.035 158.072H451.127C451.78 158.072 452.289 157.969 452.653 157.764C453.017 157.568 453.199 157.274 453.199 156.882ZM450.553 152.724C451.113 152.724 451.523 152.593 451.785 152.332C452.055 152.071 452.191 151.725 452.191 151.296V150.89C452.191 150.461 452.055 150.12 451.785 149.868C451.523 149.607 451.113 149.476 450.553 149.476C449.993 149.476 449.582 149.607 449.321 149.868C449.059 150.12 448.929 150.461 448.929 150.89V151.296C448.929 151.725 449.059 152.071 449.321 152.332C449.582 152.593 449.993 152.724 450.553 152.724ZM455.867 155.048H457.981V149.728H455.867V148.776H459.101V150.596H459.171C459.32 150.027 459.6 149.583 460.011 149.266C460.431 148.939 460.963 148.776 461.607 148.776H462.615V149.896H461.257C460.613 149.896 460.09 150.083 459.689 150.456C459.297 150.829 459.101 151.319 459.101 151.926V155.048H461.901V156H455.867V155.048ZM467.51 156.168C466.987 156.168 466.516 156.079 466.096 155.902C465.685 155.725 465.33 155.473 465.032 155.146C464.742 154.81 464.518 154.413 464.36 153.956C464.201 153.489 464.122 152.971 464.122 152.402C464.122 151.823 464.201 151.301 464.36 150.834C464.528 150.367 464.756 149.971 465.046 149.644C465.335 149.308 465.68 149.051 466.082 148.874C466.492 148.697 466.945 148.608 467.44 148.608C467.925 148.608 468.364 148.697 468.756 148.874C469.157 149.051 469.498 149.299 469.778 149.616C470.058 149.924 470.272 150.293 470.422 150.722C470.571 151.151 470.646 151.623 470.646 152.136V152.668H465.298V153.004C465.298 153.321 465.349 153.615 465.452 153.886C465.554 154.157 465.699 154.39 465.886 154.586C466.082 154.782 466.315 154.936 466.586 155.048C466.866 155.151 467.174 155.202 467.51 155.202C467.995 155.202 468.415 155.09 468.77 154.866C469.124 154.642 469.395 154.334 469.582 153.942L470.408 154.502C470.193 154.987 469.834 155.389 469.33 155.706C468.835 156.014 468.228 156.168 467.51 156.168ZM467.44 149.532C467.132 149.532 466.847 149.588 466.586 149.7C466.324 149.812 466.096 149.966 465.9 150.162C465.713 150.358 465.564 150.591 465.452 150.862C465.349 151.123 465.298 151.413 465.298 151.73V151.828H469.442V151.674C469.442 151.357 469.39 151.067 469.288 150.806C469.194 150.545 469.059 150.321 468.882 150.134C468.714 149.938 468.504 149.789 468.252 149.686C468.009 149.583 467.738 149.532 467.44 149.532ZM475.904 156.168C475.381 156.168 474.91 156.079 474.49 155.902C474.079 155.725 473.725 155.473 473.426 155.146C473.137 154.81 472.913 154.413 472.754 153.956C472.595 153.489 472.516 152.971 472.516 152.402C472.516 151.823 472.595 151.301 472.754 150.834C472.922 150.367 473.151 149.971 473.44 149.644C473.729 149.308 474.075 149.051 474.476 148.874C474.887 148.697 475.339 148.608 475.834 148.608C476.319 148.608 476.758 148.697 477.15 148.874C477.551 149.051 477.892 149.299 478.172 149.616C478.452 149.924 478.667 150.293 478.816 150.722C478.965 151.151 479.04 151.623 479.04 152.136V152.668H473.692V153.004C473.692 153.321 473.743 153.615 473.846 153.886C473.949 154.157 474.093 154.39 474.28 154.586C474.476 154.782 474.709 154.936 474.98 155.048C475.26 155.151 475.568 155.202 475.904 155.202C476.389 155.202 476.809 155.09 477.164 154.866C477.519 154.642 477.789 154.334 477.976 153.942L478.802 154.502C478.587 154.987 478.228 155.389 477.724 155.706C477.229 156.014 476.623 156.168 475.904 156.168ZM475.834 149.532C475.526 149.532 475.241 149.588 474.98 149.7C474.719 149.812 474.49 149.966 474.294 150.162C474.107 150.358 473.958 150.591 473.846 150.862C473.743 151.123 473.692 151.413 473.692 151.73V151.828H477.836V151.674C477.836 151.357 477.785 151.067 477.682 150.806C477.589 150.545 477.453 150.321 477.276 150.134C477.108 149.938 476.898 149.789 476.646 149.686C476.403 149.583 476.133 149.532 475.834 149.532Z" fill="black"/>
<defs>
<filter id="filter0_dd" x="0" y="0" width="553" height="195" filterUnits="userSpaceOnUse" color-interpolation-filters="sRGB">
<feFlood flood-opacity="0" result="BackgroundImageFix"/>
<feColorMatrix in="SourceAlpha" type="matrix" values="0 0 0 0 0 0 0 0 0 0 0 0 0 0 0 0 0 0 127 0" result="hardAlpha"/>
<feMorphology radius="1" operator="dilate" in="SourceAlpha" result="effect1_dropShadow"/>
<feOffset dy="1"/>
<feGaussianBlur stdDeviation="1.5"/>
<feComposite in2="hardAlpha" operator="out"/>
<feColorMatrix type="matrix" values="0 0 0 0 0.235294 0 0 0 0 0.25098 0 0 0 0 0.262745 0 0 0 0.15 0"/>
<feBlend mode="normal" in2="BackgroundImageFix" result="effect1_dropShadow"/>
<feColorMatrix in="SourceAlpha" type="matrix" values="0 0 0 0 0 0 0 0 0 0 0 0 0 0 0 0 0 0 127 0" result="hardAlpha"/>
<feOffset dy="1"/>
<feGaussianBlur stdDeviation="1"/>
<feComposite in2="hardAlpha" operator="out"/>
<feColorMatrix type="matrix" values="0 0 0 0 0 0 0 0 0 0 0 0 0 0 0 0 0 0 0.25 0"/>
<feBlend mode="normal" in2="effect1_dropShadow" result="effect2_dropShadow"/>
<feBlend mode="normal" in="SourceGraphic" in2="effect2_dropShadow" result="shape"/>
</filter>
<filter id="filter1_d" x="114" y="95" width="368" height="40" filterUnits="userSpaceOnUse" color-interpolation-filters="sRGB">
<feFlood flood-opacity="0" result="BackgroundImageFix"/>
<feColorMatrix in="SourceAlpha" type="matrix" values="0 0 0 0 0 0 0 0 0 0 0 0 0 0 0 0 0 0 127 0" result="hardAlpha"/>
<feOffset dy="1"/>
<feGaussianBlur stdDeviation="1"/>
<feComposite in2="hardAlpha" operator="out"/>
<feColorMatrix type="matrix" values="0 0 0 0 0 0 0 0 0 0 0 0 0 0 0 0 0 0 0.25 0"/>
<feBlend mode="normal" in2="BackgroundImageFix" result="effect1_dropShadow"/>
<feBlend mode="normal" in="SourceGraphic" in2="effect1_dropShadow" result="shape"/>
</filter>
<linearGradient id="paint0_linear" x1="480" y1="114" x2="127" y2="114" gradientUnits="userSpaceOnUse">
<stop stop-color="#08B24C"/>
<stop offset="0.240793" stop-color="#78D629"/>
<stop offset="0.560906" stop-color="#F1DB12"/>
<stop offset="1" stop-color="#EF2B10"/>
</linearGradient>
</defs>
</svg>
