<svg width="3190" height="2541" xmlns="http://www.w3.org/2000/svg" xmlns:xlink="http://www.w3.org/1999/xlink" xml:space="preserve" overflow="hidden"><defs><clipPath id="clip0"><rect x="6758" y="236" width="3190" height="2541"/></clipPath><clipPath id="clip1"><rect x="6759" y="237" width="3187" height="2537"/></clipPath><clipPath id="clip2"><rect x="6759" y="237" width="3187" height="2537"/></clipPath><clipPath id="clip3"><rect x="6973" y="444" width="2880" height="2177"/></clipPath><clipPath id="clip4"><rect x="6973" y="444" width="2880" height="2177"/></clipPath><clipPath id="clip5"><rect x="6973" y="444" width="2880" height="2177"/></clipPath><clipPath id="clip6"><rect x="6973" y="444" width="2880" height="2177"/></clipPath><clipPath id="clip7"><rect x="6759" y="237" width="3187" height="2537"/></clipPath><clipPath id="clip8"><rect x="6759" y="237" width="3187" height="2537"/></clipPath><clipPath id="clip9"><rect x="6759" y="237" width="3187" height="2537"/></clipPath><clipPath id="clip10"><rect x="6759" y="237" width="3187" height="2537"/></clipPath><clipPath id="clip11"><rect x="6759" y="237" width="3187" height="2537"/></clipPath><clipPath id="clip12"><rect x="6759" y="237" width="3187" height="2537"/></clipPath><clipPath id="clip13"><rect x="6759" y="237" width="3187" height="2537"/></clipPath><clipPath id="clip14"><rect x="6759" y="237" width="3187" height="2537"/></clipPath><clipPath id="clip15"><rect x="6759" y="237" width="3187" height="2537"/></clipPath><clipPath id="clip16"><rect x="6759" y="237" width="3187" height="2537"/></clipPath><clipPath id="clip17"><rect x="6759" y="237" width="3187" height="2537"/></clipPath><clipPath id="clip18"><rect x="6759" y="237" width="3187" height="2537"/></clipPath><clipPath id="clip19"><rect x="6759" y="237" width="3187" height="2537"/></clipPath><clipPath id="clip20"><rect x="6759" y="237" width="3187" height="2537"/></clipPath><clipPath id="clip21"><rect x="6759" y="237" width="3187" height="2537"/></clipPath><clipPath id="clip22"><rect x="6759" y="237" width="3187" height="2537"/></clipPath><clipPath id="clip23"><rect x="6759" y="237" width="3187" height="2537"/></clipPath><clipPath id="clip24"><rect x="6759" y="237" width="3187" height="2537"/></clipPath><clipPath id="clip25"><rect x="6759" y="237" width="3187" height="2537"/></clipPath><clipPath id="clip26"><rect x="6759" y="237" width="3187" height="2537"/></clipPath><clipPath id="clip27"><rect x="6759" y="237" width="3187" height="2537"/></clipPath><clipPath id="clip28"><rect x="6759" y="237" width="3187" height="2537"/></clipPath><clipPath id="clip29"><rect x="6759" y="237" width="3187" height="2537"/></clipPath><clipPath id="clip30"><rect x="6759" y="237" width="3187" height="2537"/></clipPath><clipPath id="clip31"><rect x="6759" y="237" width="3187" height="2537"/></clipPath><clipPath id="clip32"><rect x="6759" y="237" width="3187" height="2537"/></clipPath><clipPath id="clip33"><rect x="6759" y="237" width="3187" height="2537"/></clipPath><clipPath id="clip34"><rect x="6759" y="237" width="3187" height="2537"/></clipPath><clipPath id="clip35"><rect x="6759" y="237" width="3187" height="2537"/></clipPath><clipPath id="clip36"><rect x="6759" y="237" width="3187" height="2537"/></clipPath><clipPath id="clip37"><rect x="6759" y="237" width="3187" height="2537"/></clipPath><clipPath id="clip38"><rect x="6759" y="237" width="3187" height="2537"/></clipPath><clipPath id="clip39"><rect x="6759" y="237" width="3187" height="2537"/></clipPath><clipPath id="clip40"><rect x="6759" y="237" width="3187" height="2537"/></clipPath><clipPath id="clip41"><rect x="6759" y="237" width="3187" height="2537"/></clipPath><clipPath id="clip42"><rect x="6759" y="237" width="3187" height="2537"/></clipPath><clipPath id="clip43"><rect x="6759" y="237" width="3187" height="2537"/></clipPath><clipPath id="clip44"><rect x="6759" y="237" width="3187" height="2537"/></clipPath><clipPath id="clip45"><rect x="6759" y="237" width="3187" height="2537"/></clipPath><clipPath id="clip46"><rect x="6759" y="237" width="3187" height="2537"/></clipPath><clipPath id="clip47"><rect x="6759" y="237" width="3187" height="2537"/></clipPath><clipPath id="clip48"><rect x="6759" y="237" width="3187" height="2537"/></clipPath><clipPath id="clip49"><rect x="6759" y="237" width="3187" height="2537"/></clipPath></defs><g clip-path="url(#clip0)" transform="translate(-6758 -236)"><rect x="6759" y="237" width="3187" height="2538" fill="#FFFFFF"/><g clip-path="url(#clip1)"><path d="M6973.5 444.5 6973.5 2618.5M7332.74 444.5 7332.74 2618.5M7692.75 444.5 7692.75 2618.5M8051.76 444.5 8051.76 2618.5M8770.79 444.5 8770.79 2618.5M9130.8 444.5 9130.8 2618.5M9489.81 444.5 9489.81 2618.5M9849.5 444.5 9849.5 2618.5" stroke="#D9D9D9" stroke-width="6.875" stroke-linejoin="round" stroke-miterlimit="10" stroke-dasharray="55 20.625" stroke-opacity="0.34902" fill="none"/></g><g clip-path="url(#clip2)"><path d="M6973.5 2618.5 9849.5 2618.5M6973.5 2497.58 9849.5 2497.58M6973.5 2376.58 9849.5 2376.58M6973.5 2255.57 9849.5 2255.57M6973.5 2135.57 9849.5 2135.57M6973.5 2014.57 9849.5 2014.57M6973.5 1893.56 9849.5 1893.56M6973.5 1772.56 9849.5 1772.56M6973.5 1652.55 9849.5 1652.55M6973.5 1531.55 9849.5 1531.55M6973.5 1410.55 9849.5 1410.55M6973.5 1290.54 9849.5 1290.54M6973.5 1169.54 9849.5 1169.54M6973.5 1048.53 9849.5 1048.53M6973.5 927.531 9849.5 927.531M6973.5 807.527 9849.5 807.527M6973.5 686.523 9849.5 686.523M6973.5 565.519 9849.5 565.519M6973.5 444.5 9849.5 444.5" stroke="#D9D9D9" stroke-width="6.875" stroke-linejoin="round" stroke-miterlimit="10" stroke-dasharray="55 20.625" stroke-opacity="0.34902" fill="none"/></g><g clip-path="url(#clip3)"><path d="M7972.76 2630.5 8411.78 2630.5 8411.78 2605.59 7972.76 2605.59ZM7926.76 2605.59 8411.78 2605.59 8411.78 2581.58 7926.76 2581.58ZM7917.76 2581.58 8411.78 2581.58 8411.78 2557.58 7917.76 2557.58ZM7897.76 2557.58 8411.78 2557.58 8411.78 2533.58 7897.76 2533.58ZM7906.76 2533.58 8411.78 2533.58 8411.78 2509.58 7906.76 2509.58ZM7939.76 2509.58 8411.78 2509.58 8411.78 2485.58 7939.76 2485.58ZM7941.76 2485.58 8411.78 2485.58 8411.78 2461.58 7941.76 2461.58ZM7932.76 2461.58 8411.78 2461.58 8411.78 2436.58 7932.76 2436.58ZM7924.76 2436.58 8411.78 2436.58 8411.78 2412.58 7924.76 2412.58ZM7908.76 2412.58 8411.78 2412.58 8411.78 2388.58 7908.76 2388.58ZM7894.76 2388.58 8411.78 2388.58 8411.78 2364.58 7894.76 2364.58ZM7882.76 2364.58 8411.78 2364.58 8411.78 2340.58 7882.76 2340.58ZM7895.76 2340.58 8411.78 2340.58 8411.78 2316.58 7895.76 2316.58ZM7942.76 2316.58 8411.78 2316.58 8411.78 2292.58 7942.76 2292.58ZM7984.76 2292.58 8411.78 2292.58 8411.78 2267.57 7984.76 2267.57ZM7978.76 2267.57 8411.78 2267.57 8411.78 2243.57 7978.76 2243.57ZM7992.76 2243.57 8411.78 2243.57 8411.78 2219.57 7992.76 2219.57ZM7994.76 2219.57 8411.78 2219.57 8411.78 2195.57 7994.76 2195.57ZM8020.76 2195.57 8411.78 2195.57 8411.78 2171.57 8020.76 2171.57ZM7963.76 2171.57 8411.78 2171.57 8411.78 2147.57 7963.76 2147.57ZM7961.76 2147.57 8411.78 2147.57 8411.78 2123.57 7961.76 2123.57ZM7938.76 2123.57 8411.78 2123.57 8411.78 2098.57 7938.76 2098.57ZM7904.76 2098.57 8411.78 2098.57 8411.78 2074.57 7904.76 2074.57ZM7837.76 2074.57 8411.78 2074.57 8411.78 2050.57 7837.76 2050.57ZM7798.76 2050.57 8411.78 2050.57 8411.78 2026.57 7798.76 2026.57ZM7764.75 2026.57 8411.78 2026.57 8411.78 2002.57 7764.75 2002.57ZM7729.75 2002.57 8411.78 2002.57 8411.78 1978.57 7729.75 1978.57ZM7673.75 1978.57 8411.78 1978.57 8411.78 1954.56 7673.75 1954.56ZM7635.75 1954.56 8411.78 1954.56 8411.78 1929.56 7635.75 1929.56ZM7609.75 1929.56 8411.78 1929.56 8411.78 1905.56 7609.75 1905.56ZM7554.75 1905.56 8411.78 1905.56 8411.78 1881.56 7554.75 1881.56ZM7591.75 1881.56 8411.78 1881.56 8411.78 1857.56 7591.75 1857.56ZM7564.75 1857.56 8411.78 1857.56 8411.78 1833.56 7564.75 1833.56ZM7535.75 1833.56 8411.78 1833.56 8411.78 1809.56 7535.75 1809.56ZM7532.75 1809.56 8411.78 1809.56 8411.78 1784.56 7532.75 1784.56ZM7458.74 1784.56 8411.78 1784.56 8411.78 1760.56 7458.74 1760.56ZM7400.74 1760.56 8411.78 1760.56 8411.78 1736.56 7400.74 1736.56ZM7370.74 1736.56 8411.78 1736.56 8411.78 1712.56 7370.74 1712.56ZM7385.74 1712.56 8411.78 1712.56 8411.78 1688.56 7385.74 1688.56ZM7454.74 1688.56 8411.78 1688.56 8411.78 1664.55 7454.74 1664.55ZM7421.74 1664.55 8411.78 1664.55 8411.78 1640.55 7421.74 1640.55ZM7421.74 1640.55 8411.78 1640.55 8411.78 1615.55 7421.74 1615.55ZM7443.74 1615.55 8411.78 1615.55 8411.78 1591.55 7443.74 1591.55ZM7462.74 1591.55 8411.78 1591.55 8411.78 1567.55 7462.74 1567.55ZM7449.74 1567.55 8411.78 1567.55 8411.78 1543.55 7449.74 1543.55ZM7492.75 1543.55 8411.78 1543.55 8411.78 1519.55 7492.75 1519.55ZM7561.75 1519.55 8411.78 1519.55 8411.78 1495.55 7561.75 1495.55ZM7593.75 1495.55 8411.78 1495.55 8411.78 1471.55 7593.75 1471.55ZM7630.75 1471.55 8411.78 1471.55 8411.78 1446.55 7630.75 1446.55ZM7658.75 1446.55 8411.78 1446.55 8411.78 1422.55 7658.75 1422.55ZM7715.75 1422.55 8411.78 1422.55 8411.78 1398.55 7715.75 1398.55ZM7756.75 1398.55 8411.78 1398.55 8411.78 1374.55 7756.75 1374.55ZM7773.75 1374.55 8411.78 1374.55 8411.78 1350.54 7773.75 1350.54ZM7820.76 1350.54 8411.78 1350.54 8411.78 1326.54 7820.76 1326.54ZM7821.76 1326.54 8411.78 1326.54 8411.78 1302.54 7821.76 1302.54ZM7813.76 1302.54 8411.78 1302.54 8411.78 1277.54 7813.76 1277.54ZM7813.76 1277.54 8411.78 1277.54 8411.78 1253.54 7813.76 1253.54ZM7807.76 1253.54 8411.78 1253.54 8411.78 1229.54 7807.76 1229.54ZM7810.76 1229.54 8411.78 1229.54 8411.78 1205.54 7810.76 1205.54ZM7781.76 1205.54 8411.78 1205.54 8411.78 1181.54 7781.76 1181.54ZM7779.76 1181.54 8411.78 1181.54 8411.78 1157.54 7779.76 1157.54ZM7683.75 1157.54 8411.78 1157.54 8411.78 1133.54 7683.75 1133.54ZM7632.75 1133.54 8411.78 1133.54 8411.78 1108.54 7632.75 1108.54ZM7587.75 1108.54 8411.78 1108.54 8411.78 1084.54 7587.75 1084.54ZM7585.75 1084.54 8411.78 1084.54 8411.78 1060.53 7585.75 1060.53ZM7564.75 1060.53 8411.78 1060.53 8411.78 1036.53 7564.75 1036.53ZM7598.75 1036.53 8411.78 1036.53 8411.78 1012.53 7598.75 1012.53ZM7634.75 1012.53 8411.78 1012.53 8411.78 988.533 7634.75 988.533ZM7640.75 988.533 8411.78 988.533 8411.78 964.532 7640.75 964.532ZM7657.75 964.532 8411.78 964.532 8411.78 939.531 7657.75 939.531ZM7715.75 939.531 8411.78 939.531 8411.78 915.53 7715.75 915.53ZM7785.76 915.53 8411.78 915.53 8411.78 891.529 7785.76 891.529ZM7790.76 891.529 8411.78 891.529 8411.78 867.529 7790.76 867.529ZM7791.76 867.529 8411.78 867.529 8411.78 843.528 7791.76 843.528ZM7829.76 843.528 8411.78 843.528 8411.78 819.527 7829.76 819.527ZM7983.76 819.527 8411.78 819.527 8411.78 795.526 7983.76 795.526ZM8127.77 795.526 8411.78 795.526 8411.78 770.525 8127.77 770.525ZM8135.77 770.525 8411.78 770.525 8411.78 746.525 8135.77 746.525ZM8148.77 746.525 8411.78 746.525 8411.78 722.524 8148.77 722.524ZM8150.77 722.524 8411.78 722.524 8411.78 698.523 8150.77 698.523ZM8187.77 698.523 8411.78 698.523 8411.78 674.522 8187.77 674.522ZM8211.77 674.522 8411.78 674.522 8411.78 650.522 8211.77 650.522ZM8218.77 650.522 8411.78 650.522 8411.78 626.521 8218.77 626.521ZM8230.77 626.521 8411.78 626.521 8411.78 601.52 8230.77 601.52ZM8240.77 601.52 8411.78 601.52 8411.78 577.519 8240.77 577.519ZM8258.77 577.519 8411.78 577.519 8411.78 553.518 8258.77 553.518ZM8287.77 553.518 8411.78 553.518 8411.78 529.518 8287.77 529.518ZM8296.77 529.518 8411.78 529.518 8411.78 505.517 8296.77 505.517ZM8310.77 505.517 8411.78 505.517 8411.78 481.516 8310.77 481.516ZM8312.77 481.516 8411.78 481.516 8411.78 457.515 8312.77 457.515ZM8148.77 457.515 8411.78 457.515 8411.78 432.5 8148.77 432.5Z" stroke="#000000" stroke-width="3.4375" stroke-linejoin="round" stroke-miterlimit="10" stroke-opacity="0.0509804" fill="#0070C0"/></g><g clip-path="url(#clip4)"><path d="M8850.79 2630.5 8411.78 2630.5 8411.78 2605.59 8850.79 2605.59ZM8896.79 2605.59 8411.78 2605.59 8411.78 2581.58 8896.79 2581.58ZM8905.79 2581.58 8411.78 2581.58 8411.78 2557.58 8905.79 2557.58ZM8925.79 2557.58 8411.78 2557.58 8411.78 2533.58 8925.79 2533.58ZM8916.79 2533.58 8411.78 2533.58 8411.78 2509.58 8916.79 2509.58ZM8883.79 2509.58 8411.78 2509.58 8411.78 2485.58 8883.79 2485.58ZM8881.79 2485.58 8411.78 2485.58 8411.78 2461.58 8881.79 2461.58ZM8890.79 2461.58 8411.78 2461.58 8411.78 2436.58 8890.79 2436.58ZM8898.79 2436.58 8411.78 2436.58 8411.78 2412.58 8898.79 2412.58ZM8914.79 2412.58 8411.78 2412.58 8411.78 2388.58 8914.79 2388.58ZM8928.79 2388.58 8411.78 2388.58 8411.78 2364.58 8928.79 2364.58ZM8940.79 2364.58 8411.78 2364.58 8411.78 2340.58 8940.79 2340.58ZM8926.79 2340.58 8411.78 2340.58 8411.78 2316.58 8926.79 2316.58ZM8880.79 2316.58 8411.78 2316.58 8411.78 2292.58 8880.79 2292.58ZM8838.79 2292.58 8411.78 2292.58 8411.78 2267.57 8838.79 2267.57ZM8844.79 2267.57 8411.78 2267.57 8411.78 2243.57 8844.79 2243.57ZM8830.79 2243.57 8411.78 2243.57 8411.78 2219.57 8830.79 2219.57ZM8828.79 2219.57 8411.78 2219.57 8411.78 2195.57 8828.79 2195.57ZM8802.79 2195.57 8411.78 2195.57 8411.78 2171.57 8802.79 2171.57ZM8859.79 2171.57 8411.78 2171.57 8411.78 2147.57 8859.79 2147.57ZM8861.79 2147.57 8411.78 2147.57 8411.78 2123.57 8861.79 2123.57ZM8884.79 2123.57 8411.78 2123.57 8411.78 2098.57 8884.79 2098.57ZM8918.79 2098.57 8411.78 2098.57 8411.78 2074.57 8918.79 2074.57ZM8985.79 2074.57 8411.78 2074.57 8411.78 2050.57 8985.79 2050.57ZM9024.8 2050.57 8411.78 2050.57 8411.78 2026.57 9024.8 2026.57ZM9058.8 2026.57 8411.78 2026.57 8411.78 2002.57 9058.8 2002.57ZM9093.8 2002.57 8411.78 2002.57 8411.78 1978.57 9093.8 1978.57ZM9149.8 1978.57 8411.78 1978.57 8411.78 1954.56 9149.8 1954.56ZM9187.8 1954.56 8411.78 1954.56 8411.78 1929.56 9187.8 1929.56ZM9213.8 1929.56 8411.78 1929.56 8411.78 1905.56 9213.8 1905.56ZM9268.8 1905.56 8411.78 1905.56 8411.78 1881.56 9268.8 1881.56ZM9231.8 1881.56 8411.78 1881.56 8411.78 1857.56 9231.8 1857.56ZM9258.8 1857.56 8411.78 1857.56 8411.78 1833.56 9258.8 1833.56ZM9287.8 1833.56 8411.78 1833.56 8411.78 1809.56 9287.8 1809.56ZM9290.8 1809.56 8411.78 1809.56 8411.78 1784.56 9290.8 1784.56ZM9364.81 1784.56 8411.78 1784.56 8411.78 1760.56 9364.81 1760.56ZM9422.81 1760.56 8411.78 1760.56 8411.78 1736.56 9422.81 1736.56ZM9452.81 1736.56 8411.78 1736.56 8411.78 1712.56 9452.81 1712.56ZM9437.81 1712.56 8411.78 1712.56 8411.78 1688.56 9437.81 1688.56ZM9368.81 1688.56 8411.78 1688.56 8411.78 1664.55 9368.81 1664.55ZM9401.81 1664.55 8411.78 1664.55 8411.78 1640.55 9401.81 1640.55ZM9400.81 1640.55 8411.78 1640.55 8411.78 1615.55 9400.81 1615.55ZM9379.81 1615.55 8411.78 1615.55 8411.78 1591.55 9379.81 1591.55ZM9360.81 1591.55 8411.78 1591.55 8411.78 1567.55 9360.81 1567.55ZM9373.81 1567.55 8411.78 1567.55 8411.78 1543.55 9373.81 1543.55ZM9329.81 1543.55 8411.78 1543.55 8411.78 1519.55 9329.81 1519.55ZM9261.8 1519.55 8411.78 1519.55 8411.78 1495.55 9261.8 1495.55ZM9228.8 1495.55 8411.78 1495.55 8411.78 1471.55 9228.8 1471.55ZM9192.8 1471.55 8411.78 1471.55 8411.78 1446.55 9192.8 1446.55ZM9164.8 1446.55 8411.78 1446.55 8411.78 1422.55 9164.8 1422.55ZM9107.8 1422.55 8411.78 1422.55 8411.78 1398.55 9107.8 1398.55ZM9066.8 1398.55 8411.78 1398.55 8411.78 1374.55 9066.8 1374.55ZM9049.8 1374.55 8411.78 1374.55 8411.78 1350.54 9049.8 1350.54ZM9002.79 1350.54 8411.78 1350.54 8411.78 1326.54 9002.79 1326.54ZM9001.79 1326.54 8411.78 1326.54 8411.78 1302.54 9001.79 1302.54ZM9009.8 1302.54 8411.78 1302.54 8411.78 1277.54 9009.8 1277.54ZM9009.8 1277.54 8411.78 1277.54 8411.78 1253.54 9009.8 1253.54ZM9015.8 1253.54 8411.78 1253.54 8411.78 1229.54 9015.8 1229.54ZM9012.8 1229.54 8411.78 1229.54 8411.78 1205.54 9012.8 1205.54ZM9041.8 1205.54 8411.78 1205.54 8411.78 1181.54 9041.8 1181.54ZM9043.8 1181.54 8411.78 1181.54 8411.78 1157.54 9043.8 1157.54ZM9139.8 1157.54 8411.78 1157.54 8411.78 1133.54 9139.8 1133.54ZM9190.8 1133.54 8411.78 1133.54 8411.78 1108.54 9190.8 1108.54ZM9235.8 1108.54 8411.78 1108.54 8411.78 1084.54 9235.8 1084.54ZM9237.8 1084.54 8411.78 1084.54 8411.78 1060.53 9237.8 1060.53ZM9258.8 1060.53 8411.78 1060.53 8411.78 1036.53 9258.8 1036.53ZM9224.8 1036.53 8411.78 1036.53 8411.78 1012.53 9224.8 1012.53ZM9188.8 1012.53 8411.78 1012.53 8411.78 988.533 9188.8 988.533ZM9182.8 988.533 8411.78 988.533 8411.78 964.532 9182.8 964.532ZM9165.8 964.532 8411.78 964.532 8411.78 939.531 9165.8 939.531ZM9107.8 939.531 8411.78 939.531 8411.78 915.53 9107.8 915.53ZM9037.8 915.53 8411.78 915.53 8411.78 891.529 9037.8 891.529ZM9032.8 891.529 8411.78 891.529 8411.78 867.529 9032.8 867.529ZM9031.8 867.529 8411.78 867.529 8411.78 843.528 9031.8 843.528ZM8993.79 843.528 8411.78 843.528 8411.78 819.527 8993.79 819.527ZM8839.79 819.527 8411.78 819.527 8411.78 795.526 8839.79 795.526ZM8695.79 795.526 8411.78 795.526 8411.78 770.525 8695.79 770.525ZM8687.79 770.525 8411.78 770.525 8411.78 746.525 8687.79 746.525ZM8674.78 746.525 8411.78 746.525 8411.78 722.524 8674.78 722.524ZM8672.78 722.524 8411.78 722.524 8411.78 698.523 8672.78 698.523ZM8635.78 698.523 8411.78 698.523 8411.78 674.522 8635.78 674.522ZM8611.78 674.522 8411.78 674.522 8411.78 650.522 8611.78 650.522ZM8604.78 650.522 8411.78 650.522 8411.78 626.521 8604.78 626.521ZM8592.78 626.521 8411.78 626.521 8411.78 601.52 8592.78 601.52ZM8582.78 601.52 8411.78 601.52 8411.78 577.519 8582.78 577.519ZM8564.78 577.519 8411.78 577.519 8411.78 553.518 8564.78 553.518ZM8535.78 553.518 8411.78 553.518 8411.78 529.518 8535.78 529.518ZM8526.78 529.518 8411.78 529.518 8411.78 505.517 8526.78 505.517ZM8512.78 505.517 8411.78 505.517 8411.78 481.516 8512.78 481.516ZM8509.78 481.516 8411.78 481.516 8411.78 457.515 8509.78 457.515ZM8674.78 457.515 8411.78 457.515 8411.78 432.5 8674.78 432.5Z" stroke="#000000" stroke-width="3.4375" stroke-linejoin="round" stroke-miterlimit="10" stroke-opacity="0.0509804" fill="#FF5050"/></g><g clip-path="url(#clip5)"><path d="M7931.76 2630.5 7972.76 2630.5 7972.76 2605.59 7931.76 2605.59ZM7925.76 2605.59 7926.76 2605.59 7926.76 2581.58 7925.76 2581.58ZM7895.76 2581.58 7917.76 2581.58 7917.76 2557.58 7895.76 2557.58ZM7876.76 2557.58 7897.76 2557.58 7897.76 2533.58 7876.76 2533.58ZM7877.76 2533.58 7906.76 2533.58 7906.76 2509.58 7877.76 2509.58ZM7897.76 2509.58 7939.76 2509.58 7939.76 2485.58 7897.76 2485.58ZM7903.76 2485.58 7941.76 2485.58 7941.76 2461.58 7903.76 2461.58ZM7911.76 2461.58 7932.76 2461.58 7932.76 2436.58 7911.76 2436.58ZM7922.76 2436.58 7924.76 2436.58 7924.76 2412.58 7922.76 2412.58ZM7886.76 2412.58 7908.76 2412.58 7908.76 2388.58 7886.76 2388.58ZM7878.76 2388.58 7894.76 2388.58 7894.76 2364.58 7878.76 2364.58ZM7849.76 2364.58 7882.76 2364.58 7882.76 2340.58 7849.76 2340.58ZM7878.76 2340.58 7895.76 2340.58 7895.76 2316.58 7878.76 2316.58ZM7904.76 2316.58 7942.76 2316.58 7942.76 2292.58 7904.76 2292.58ZM7932.76 2292.58 7984.76 2292.58 7984.76 2267.57 7932.76 2267.57ZM7957.76 2267.57 7978.76 2267.57 7978.76 2243.57 7957.76 2243.57ZM7967.76 2243.57 7992.76 2243.57 7992.76 2219.57 7967.76 2219.57ZM7982.76 2219.57 7994.76 2219.57 7994.76 2195.57 7982.76 2195.57ZM7990.76 2195.57 8020.76 2195.57 8020.76 2171.57 7990.76 2171.57ZM7957.76 2171.57 7963.76 2171.57 7963.76 2147.57 7957.76 2147.57ZM7383.74 1760.56 7400.74 1760.56 7400.74 1736.56 7383.74 1736.56ZM7331.74 1736.56 7370.74 1736.56 7370.74 1712.56 7331.74 1712.56ZM7365.74 1712.56 7385.74 1712.56 7385.74 1688.56 7365.74 1688.56Z" stroke="#000000" stroke-width="3.4375" stroke-linejoin="round" stroke-miterlimit="10" stroke-opacity="0.0509804" fill="#203864"/></g><g clip-path="url(#clip6)"><path d="M8885.79 2147.57 8861.79 2147.57 8861.79 2123.57 8885.79 2123.57ZM8914.79 2123.57 8884.79 2123.57 8884.79 2098.57 8914.79 2098.57ZM8952.79 2098.57 8918.79 2098.57 8918.79 2074.57 8952.79 2074.57ZM8988.79 2074.57 8985.79 2074.57 8985.79 2050.57 8988.79 2050.57ZM9043.8 2050.57 9024.8 2050.57 9024.8 2026.57 9043.8 2026.57ZM9104.8 2026.57 9058.8 2026.57 9058.8 2002.57 9104.8 2002.57ZM9143.8 2002.57 9093.8 2002.57 9093.8 1978.57 9143.8 1978.57ZM9192.8 1978.57 9149.8 1978.57 9149.8 1954.56 9192.8 1954.56ZM9199.8 1954.56 9187.8 1954.56 9187.8 1929.56 9199.8 1929.56ZM9226.8 1929.56 9213.8 1929.56 9213.8 1905.56 9226.8 1905.56ZM9270.8 1905.56 9268.8 1905.56 9268.8 1881.56 9270.8 1881.56ZM9272.8 1881.56 9231.8 1881.56 9231.8 1857.56 9272.8 1857.56ZM9271.8 1857.56 9258.8 1857.56 9258.8 1833.56 9271.8 1833.56ZM9298.8 1833.56 9287.8 1833.56 9287.8 1809.56 9298.8 1809.56ZM9299.8 1809.56 9290.8 1809.56 9290.8 1784.56 9299.8 1784.56ZM9383.81 1784.56 9364.81 1784.56 9364.81 1760.56 9383.81 1760.56ZM9391.81 1688.56 9368.81 1688.56 9368.81 1664.55 9391.81 1664.55ZM9418.81 1664.55 9401.81 1664.55 9401.81 1640.55 9418.81 1640.55ZM9417.81 1640.55 9400.81 1640.55 9400.81 1615.55 9417.81 1615.55ZM9408.81 1615.55 9379.81 1615.55 9379.81 1591.55 9408.81 1591.55ZM9390.81 1591.55 9360.81 1591.55 9360.81 1567.55 9390.81 1567.55ZM9392.81 1567.55 9373.81 1567.55 9373.81 1543.55 9392.81 1543.55ZM9370.81 1543.55 9329.81 1543.55 9329.81 1519.55 9370.81 1519.55ZM9312.81 1519.55 9261.8 1519.55 9261.8 1495.55 9312.81 1495.55ZM9266.8 1495.55 9228.8 1495.55 9228.8 1471.55 9266.8 1471.55ZM9239.8 1471.55 9192.8 1471.55 9192.8 1446.55 9239.8 1446.55ZM9199.8 1446.55 9164.8 1446.55 9164.8 1422.55 9199.8 1422.55ZM9157.8 1422.55 9107.8 1422.55 9107.8 1398.55 9157.8 1398.55ZM9129.8 1398.55 9066.8 1398.55 9066.8 1374.55 9129.8 1374.55ZM9109.8 1374.55 9049.8 1374.55 9049.8 1350.54 9109.8 1350.54ZM9102.8 1350.54 9002.79 1350.54 9002.79 1326.54 9102.8 1326.54ZM9106.8 1326.54 9001.79 1326.54 9001.79 1302.54 9106.8 1302.54ZM9111.8 1302.54 9009.8 1302.54 9009.8 1277.54 9111.8 1277.54ZM9127.8 1277.54 9009.8 1277.54 9009.8 1253.54 9127.8 1253.54ZM9128.8 1253.54 9015.8 1253.54 9015.8 1229.54 9128.8 1229.54ZM9141.8 1229.54 9012.8 1229.54 9012.8 1205.54 9141.8 1205.54ZM9232.8 1205.54 9041.8 1205.54 9041.8 1181.54 9232.8 1181.54ZM9285.8 1181.54 9043.8 1181.54 9043.8 1157.54 9285.8 1157.54ZM9377.81 1157.54 9139.8 1157.54 9139.8 1133.54 9377.81 1133.54ZM9463.81 1133.54 9190.8 1133.54 9190.8 1108.54 9463.81 1108.54ZM9544.81 1108.54 9235.8 1108.54 9235.8 1084.54 9544.81 1084.54ZM9557.81 1084.54 9237.8 1084.54 9237.8 1060.53 9557.81 1060.53ZM9588.81 1060.53 9258.8 1060.53 9258.8 1036.53 9588.81 1036.53ZM9594.81 1036.53 9224.8 1036.53 9224.8 1012.53 9594.81 1012.53ZM9573.81 1012.53 9188.8 1012.53 9188.8 988.533 9573.81 988.533ZM9542.81 988.533 9182.8 988.533 9182.8 964.532 9542.81 964.532ZM9578.81 964.532 9165.8 964.532 9165.8 939.531 9578.81 939.531ZM9509.81 939.531 9107.8 939.531 9107.8 915.53 9509.81 915.53ZM9448.81 915.53 9037.8 915.53 9037.8 891.529 9448.81 891.529ZM9415.81 891.529 9032.8 891.529 9032.8 867.529 9415.81 867.529ZM9384.81 867.529 9031.8 867.529 9031.8 843.528 9384.81 843.528ZM9404.81 843.528 8993.79 843.528 8993.79 819.527 9404.81 819.527ZM9093.8 819.527 8839.79 819.527 8839.79 795.526 9093.8 795.526ZM8937.79 795.526 8695.79 795.526 8695.79 770.525 8937.79 770.525ZM8932.79 770.525 8687.79 770.525 8687.79 746.525 8932.79 746.525ZM8903.79 746.525 8674.78 746.525 8674.78 722.524 8903.79 722.524ZM8917.79 722.524 8672.78 722.524 8672.78 698.523 8917.79 698.523ZM8882.79 698.523 8635.78 698.523 8635.78 674.522 8882.79 674.522ZM8870.79 674.522 8611.78 674.522 8611.78 650.522 8870.79 650.522ZM8866.79 650.522 8604.78 650.522 8604.78 626.521 8866.79 626.521ZM8846.79 626.521 8592.78 626.521 8592.78 601.52 8846.79 601.52ZM8835.79 601.52 8582.78 601.52 8582.78 577.519 8835.79 577.519ZM8819.79 577.519 8564.78 577.519 8564.78 553.518 8819.79 553.518ZM8767.79 553.518 8535.78 553.518 8535.78 529.518 8767.79 529.518ZM8751.79 529.518 8526.78 529.518 8526.78 505.517 8751.79 505.517ZM8716.79 505.517 8512.78 505.517 8512.78 481.516 8716.79 481.516ZM8694.79 481.516 8509.78 481.516 8509.78 457.515 8694.79 457.515ZM9410.81 457.515 8674.78 457.515 8674.78 432.5 9410.81 432.5Z" stroke="#000000" stroke-width="3.4375" stroke-linejoin="round" stroke-miterlimit="10" stroke-opacity="0.0509804" fill="#C00000"/></g><g clip-path="url(#clip7)"><path d="M0 0 0.000360892 2174" stroke="#000000" stroke-width="3.4375" stroke-linejoin="round" stroke-miterlimit="10" stroke-opacity="0.501961" fill="none" fill-rule="evenodd" transform="matrix(1 0 0 -1 8411.5 2618.5)"/></g><g clip-path="url(#clip8)"><text font-family="Arial,Arial_MSFontService,sans-serif" font-weight="400" font-size="55" transform="matrix(1 0 0 1 6904.88 2701)">8,000</text></g><g clip-path="url(#clip9)"><text font-family="Arial,Arial_MSFontService,sans-serif" font-weight="400" font-size="55" transform="matrix(1 0 0 1 7264.39 2701)">6,000</text></g><g clip-path="url(#clip10)"><text font-family="Arial,Arial_MSFontService,sans-serif" font-weight="400" font-size="55" transform="matrix(1 0 0 1 7623.9 2701)">4,000</text></g><g clip-path="url(#clip11)"><text font-family="Arial,Arial_MSFontService,sans-serif" font-weight="400" font-size="55" transform="matrix(1 0 0 1 7983.41 2701)">2,000</text></g><g clip-path="url(#clip12)"><text font-family="Arial,Arial_MSFontService,sans-serif" font-weight="400" font-size="55" transform="matrix(1 0 0 1 8396.46 2701)">0</text></g><g clip-path="url(#clip13)"><text font-family="Arial,Arial_MSFontService,sans-serif" font-weight="400" font-size="55" transform="matrix(1 0 0 1 8702.43 2701)">2,000</text></g><g clip-path="url(#clip14)"><text font-family="Arial,Arial_MSFontService,sans-serif" font-weight="400" font-size="55" transform="matrix(1 0 0 1 9061.94 2701)">4,000</text></g><g clip-path="url(#clip15)"><text font-family="Arial,Arial_MSFontService,sans-serif" font-weight="400" font-size="55" transform="matrix(1 0 0 1 9421.45 2701)">6,000</text></g><g clip-path="url(#clip16)"><text font-family="Arial,Arial_MSFontService,sans-serif" font-weight="400" font-size="55" transform="matrix(1 0 0 1 9780.96 2701)">8,000</text></g><g clip-path="url(#clip17)"><text font-family="Arial,Arial_MSFontService,sans-serif" font-weight="400" font-size="64" transform="matrix(1 0 0 1 6882.83 2638)">0</text></g><g clip-path="url(#clip18)"><text font-family="Arial,Arial_MSFontService,sans-serif" font-weight="400" font-size="64" transform="matrix(1 0 0 1 6882.83 2518)">5</text></g><g clip-path="url(#clip19)"><text font-family="Arial,Arial_MSFontService,sans-serif" font-weight="400" font-size="64" transform="matrix(1 0 0 1 6847.15 2397)">10</text></g><g clip-path="url(#clip20)"><text font-family="Arial,Arial_MSFontService,sans-serif" font-weight="400" font-size="64" transform="matrix(1 0 0 1 6847.15 2276)">15</text></g><g clip-path="url(#clip21)"><text font-family="Arial,Arial_MSFontService,sans-serif" font-weight="400" font-size="64" transform="matrix(1 0 0 1 6847.15 2155)">20</text></g><g clip-path="url(#clip22)"><text font-family="Arial,Arial_MSFontService,sans-serif" font-weight="400" font-size="64" transform="matrix(1 0 0 1 6847.15 2035)">25</text></g><g clip-path="url(#clip23)"><text font-family="Arial,Arial_MSFontService,sans-serif" font-weight="400" font-size="64" transform="matrix(1 0 0 1 6847.15 1914)">30</text></g><g clip-path="url(#clip24)"><text font-family="Arial,Arial_MSFontService,sans-serif" font-weight="400" font-size="64" transform="matrix(1 0 0 1 6847.15 1793)">35</text></g><g clip-path="url(#clip25)"><text font-family="Arial,Arial_MSFontService,sans-serif" font-weight="400" font-size="64" transform="matrix(1 0 0 1 6847.15 1673)">40</text></g><g clip-path="url(#clip26)"><text font-family="Arial,Arial_MSFontService,sans-serif" font-weight="400" font-size="64" transform="matrix(1 0 0 1 6847.15 1552)">45</text></g><g clip-path="url(#clip27)"><text font-family="Arial,Arial_MSFontService,sans-serif" font-weight="400" font-size="64" transform="matrix(1 0 0 1 6847.15 1431)">50</text></g><g clip-path="url(#clip28)"><text font-family="Arial,Arial_MSFontService,sans-serif" font-weight="400" font-size="64" transform="matrix(1 0 0 1 6847.15 1310)">55</text></g><g clip-path="url(#clip29)"><text font-family="Arial,Arial_MSFontService,sans-serif" font-weight="400" font-size="64" transform="matrix(1 0 0 1 6847.15 1190)">60</text></g><g clip-path="url(#clip30)"><text font-family="Arial,Arial_MSFontService,sans-serif" font-weight="400" font-size="64" transform="matrix(1 0 0 1 6847.15 1069)">65</text></g><g clip-path="url(#clip31)"><text font-family="Arial,Arial_MSFontService,sans-serif" font-weight="400" font-size="64" transform="matrix(1 0 0 1 6847.15 948)">70</text></g><g clip-path="url(#clip32)"><text font-family="Arial,Arial_MSFontService,sans-serif" font-weight="400" font-size="64" transform="matrix(1 0 0 1 6847.15 827)">75</text></g><g clip-path="url(#clip33)"><text font-family="Arial,Arial_MSFontService,sans-serif" font-weight="400" font-size="64" transform="matrix(1 0 0 1 6847.15 707)">80</text></g><g clip-path="url(#clip34)"><text font-family="Arial,Arial_MSFontService,sans-serif" font-weight="400" font-size="64" transform="matrix(1 0 0 1 6847.15 586)">85</text></g><g clip-path="url(#clip35)"><text font-family="Arial,Arial_MSFontService,sans-serif" font-weight="400" font-size="64" transform="matrix(1 0 0 1 6809.68 465)">90+</text></g><g clip-path="url(#clip36)"><text font-family="Arial,Arial_MSFontService,sans-serif" font-weight="400" font-size="50" transform="matrix(1 0 0 1 8301.34 2757)">Population</text></g><g clip-path="url(#clip37)"><text font-family="Arial,Arial_MSFontService,sans-serif" font-weight="400" font-size="50" transform="matrix(6.12323e-17 -1 1 6.12323e-17 6813.05 1544)">Age</text></g><g clip-path="url(#clip38)"><text font-family="Arial,Arial_MSFontService,sans-serif" font-weight="700" font-size="101" transform="matrix(1 0 0 1 8092.25 371)">Łódź </text></g><g clip-path="url(#clip39)"><text font-family="Arial,Arial_MSFontService,sans-serif" font-weight="700" font-size="101" transform="matrix(1 0 0 1 8355.47 371)">–</text></g><g clip-path="url(#clip40)"><text font-family="Arial,Arial_MSFontService,sans-serif" font-weight="700" font-size="101" transform="matrix(1 0 0 1 8439.55 371)">2021</text></g><g clip-path="url(#clip41)"><rect x="6995" y="468" width="548" height="349" fill="#FFFFFF"/></g><g clip-path="url(#clip42)"><rect x="7036.5" y="495.5" width="33" height="32.0003" stroke="#000000" stroke-width="3.4375" stroke-linejoin="round" stroke-miterlimit="10" stroke-opacity="0.0509804" fill="#0070C0"/></g><g clip-path="url(#clip43)"><text font-family="Arial,Arial_MSFontService,sans-serif" font-weight="400" font-size="64" transform="matrix(1 0 0 1 7083.44 532)">Male</text></g><g clip-path="url(#clip44)"><rect x="7036.5" y="582.5" width="33" height="33" stroke="#000000" stroke-width="3.4375" stroke-linejoin="round" stroke-miterlimit="10" stroke-opacity="0.0509804" fill="#FF5050"/></g><g clip-path="url(#clip45)"><text font-family="Arial,Arial_MSFontService,sans-serif" font-weight="400" font-size="64" transform="matrix(1 0 0 1 7083.44 619)">Female</text></g><g clip-path="url(#clip46)"><rect x="7036.5" y="670.5" width="33" height="31.9999" stroke="#000000" stroke-width="3.4375" stroke-linejoin="round" stroke-miterlimit="10" stroke-opacity="0.0509804" fill="#203864"/></g><g clip-path="url(#clip47)"><text font-family="Arial,Arial_MSFontService,sans-serif" font-weight="400" font-size="64" transform="matrix(1 0 0 1 7083.44 706)">Male surplus</text></g><g clip-path="url(#clip48)"><rect x="7036.5" y="757.5" width="33" height="31.9999" stroke="#000000" stroke-width="3.4375" stroke-linejoin="round" stroke-miterlimit="10" stroke-opacity="0.0509804" fill="#C00000"/></g><g clip-path="url(#clip49)"><text font-family="Arial,Arial_MSFontService,sans-serif" font-weight="400" font-size="64" transform="matrix(1 0 0 1 7083.44 794)">Female surplus</text></g><rect x="6759.5" y="237.5" width="3187" height="2538" stroke="#D9D9D9" stroke-width="3.4375" stroke-linejoin="round" stroke-miterlimit="10" fill="none"/></g></svg>