<svg width="553" height="195" viewBox="0 0 553 195" fill="none" xmlns="http://www.w3.org/2000/svg">
<g filter="url(#filter0_dd)">
<rect x="4" y="3" width="545" height="187" fill="#FAFBFF"/>
</g>
<path d="M122.104 49.562H118.296V54H117.12V44.228H118.296V48.54H122.104V44.228H123.28V54H122.104V49.562ZM128.595 54.168C128.091 54.168 127.633 54.0793 127.223 53.902C126.821 53.7247 126.476 53.4727 126.187 53.146C125.907 52.81 125.692 52.4133 125.543 51.956C125.393 51.4893 125.319 50.9667 125.319 50.388C125.319 49.8187 125.393 49.3007 125.543 48.834C125.692 48.3673 125.907 47.9707 126.187 47.644C126.476 47.308 126.821 47.0513 127.223 46.874C127.633 46.6967 128.091 46.608 128.595 46.608C129.099 46.608 129.551 46.6967 129.953 46.874C130.363 47.0513 130.709 47.308 130.989 47.644C131.278 47.9707 131.497 48.3673 131.647 48.834C131.796 49.3007 131.871 49.8187 131.871 50.388C131.871 50.9667 131.796 51.4893 131.647 51.956C131.497 52.4133 131.278 52.81 130.989 53.146C130.709 53.4727 130.363 53.7247 129.953 53.902C129.551 54.0793 129.099 54.168 128.595 54.168ZM128.595 53.202C129.22 53.202 129.724 53.0153 130.107 52.642C130.489 52.2687 130.681 51.69 130.681 50.906V49.87C130.681 49.086 130.489 48.5073 130.107 48.134C129.724 47.7607 129.22 47.574 128.595 47.574C127.969 47.574 127.465 47.7607 127.083 48.134C126.7 48.5073 126.509 49.086 126.509 49.87V50.906C126.509 51.69 126.7 52.2687 127.083 52.642C127.465 53.0153 127.969 53.202 128.595 53.202ZM133.209 46.776H134.203L135.029 53.02H135.155L136.387 46.776H137.619L138.851 53.02H138.977L139.803 46.776H140.769L139.663 54H138.207L137.059 47.952H136.947L135.771 54H134.315L133.209 46.776ZM150.698 53.048H153.218V44.592H150.698V43.64H154.338V53.048H156.858V54H150.698V53.048ZM162.621 45.18C162.294 45.18 162.065 45.1147 161.935 44.984C161.804 44.844 161.739 44.6713 161.739 44.466V44.242C161.739 44.0367 161.804 43.8687 161.935 43.738C162.065 43.598 162.294 43.528 162.621 43.528C162.947 43.528 163.176 43.598 163.307 43.738C163.437 43.8687 163.503 44.0367 163.503 44.242V44.466C163.503 44.6713 163.437 44.844 163.307 44.984C163.176 45.1147 162.947 45.18 162.621 45.18ZM159.457 53.048H162.061V47.728H159.457V46.776H163.181V53.048H165.617V54H159.457V53.048ZM167.837 43.64H168.957V50.178H169.013L170.273 48.988L172.681 46.776H174.053L171.057 49.604L174.403 54H173.017L170.203 50.248L168.957 51.382V54H167.837V43.64ZM179.088 54.168C178.565 54.168 178.094 54.0793 177.674 53.902C177.263 53.7247 176.908 53.4727 176.61 53.146C176.32 52.81 176.096 52.4133 175.938 51.956C175.779 51.4893 175.7 50.9713 175.7 50.402C175.7 49.8233 175.779 49.3007 175.938 48.834C176.106 48.3673 176.334 47.9707 176.624 47.644C176.913 47.308 177.258 47.0513 177.66 46.874C178.07 46.6967 178.523 46.608 179.018 46.608C179.503 46.608 179.942 46.6967 180.334 46.874C180.735 47.0513 181.076 47.2987 181.356 47.616C181.636 47.924 181.85 48.2927 182 48.722C182.149 49.1513 182.224 49.6227 182.224 50.136V50.668H176.876V51.004C176.876 51.3213 176.927 51.6153 177.03 51.886C177.132 52.1567 177.277 52.39 177.464 52.586C177.66 52.782 177.893 52.936 178.164 53.048C178.444 53.1507 178.752 53.202 179.088 53.202C179.573 53.202 179.993 53.09 180.348 52.866C180.702 52.642 180.973 52.334 181.16 51.942L181.986 52.502C181.771 52.9873 181.412 53.3887 180.908 53.706C180.413 54.014 179.806 54.168 179.088 54.168ZM179.018 47.532C178.71 47.532 178.425 47.588 178.164 47.7C177.902 47.812 177.674 47.966 177.478 48.162C177.291 48.358 177.142 48.5913 177.03 48.862C176.927 49.1233 176.876 49.4127 176.876 49.73V49.828H181.02V49.674C181.02 49.3567 180.968 49.0673 180.866 48.806C180.772 48.5447 180.637 48.3207 180.46 48.134C180.292 47.938 180.082 47.7887 179.83 47.686C179.587 47.5833 179.316 47.532 179.018 47.532ZM184.276 53.048H186.796V44.592H184.276V43.64H187.916V53.048H190.436V54H184.276V53.048ZM198.089 46.776H199.209L195.625 55.582C195.541 55.7873 195.447 55.9647 195.345 56.114C195.242 56.2727 195.121 56.3987 194.981 56.492C194.841 56.5947 194.673 56.6693 194.477 56.716C194.281 56.772 194.047 56.8 193.777 56.8H192.713V55.848H194.393L195.205 53.86L192.293 46.776H193.441L194.659 49.8L195.737 52.544H195.793L196.871 49.8L198.089 46.776ZM212.988 45.18C212.661 45.18 212.433 45.1147 212.302 44.984C212.171 44.844 212.106 44.6713 212.106 44.466V44.242C212.106 44.0367 212.171 43.8687 212.302 43.738C212.433 43.598 212.661 43.528 212.988 43.528C213.315 43.528 213.543 43.598 213.674 43.738C213.805 43.8687 213.87 44.0367 213.87 44.242V44.466C213.87 44.6713 213.805 44.844 213.674 44.984C213.543 45.1147 213.315 45.18 212.988 45.18ZM209.824 53.048H212.428V47.728H209.824V46.776H213.548V53.048H215.984V54H209.824V53.048ZM221.018 54.168C220.262 54.168 219.609 54.042 219.058 53.79C218.517 53.5287 218.055 53.1833 217.672 52.754L218.428 52.096C218.774 52.46 219.152 52.74 219.562 52.936C219.973 53.132 220.468 53.23 221.046 53.23C221.606 53.23 222.064 53.132 222.418 52.936C222.782 52.7307 222.964 52.4133 222.964 51.984C222.964 51.7973 222.927 51.6433 222.852 51.522C222.787 51.3913 222.694 51.2887 222.572 51.214C222.451 51.1393 222.316 51.0833 222.166 51.046C222.017 50.9993 221.858 50.962 221.69 50.934L220.556 50.766C220.304 50.7287 220.029 50.6773 219.73 50.612C219.441 50.5467 219.175 50.444 218.932 50.304C218.69 50.1547 218.484 49.9587 218.316 49.716C218.158 49.4733 218.078 49.156 218.078 48.764C218.078 48.4 218.148 48.0873 218.288 47.826C218.438 47.5553 218.643 47.3313 218.904 47.154C219.166 46.9673 219.474 46.832 219.828 46.748C220.183 46.6547 220.57 46.608 220.99 46.608C221.644 46.608 222.208 46.7107 222.684 46.916C223.17 47.1213 223.585 47.406 223.93 47.77L223.202 48.456C223.118 48.3533 223.011 48.2507 222.88 48.148C222.759 48.036 222.605 47.938 222.418 47.854C222.241 47.7607 222.031 47.686 221.788 47.63C221.546 47.574 221.266 47.546 220.948 47.546C220.379 47.546 219.94 47.644 219.632 47.84C219.334 48.036 219.184 48.3207 219.184 48.694C219.184 48.8807 219.217 49.0393 219.282 49.17C219.357 49.2913 219.455 49.3893 219.576 49.464C219.698 49.5387 219.833 49.5993 219.982 49.646C220.141 49.6833 220.3 49.716 220.458 49.744L221.592 49.912C221.854 49.9493 222.129 50.0007 222.418 50.066C222.708 50.1313 222.974 50.2387 223.216 50.388C223.459 50.528 223.66 50.7193 223.818 50.962C223.986 51.2047 224.07 51.522 224.07 51.914C224.07 52.6327 223.79 53.188 223.23 53.58C222.68 53.972 221.942 54.168 221.018 54.168ZM238.171 45.18C237.845 45.18 237.616 45.1147 237.485 44.984C237.355 44.844 237.289 44.6713 237.289 44.466V44.242C237.289 44.0367 237.355 43.8687 237.485 43.738C237.616 43.598 237.845 43.528 238.171 43.528C238.498 43.528 238.727 43.598 238.857 43.738C238.988 43.8687 239.053 44.0367 239.053 44.242V44.466C239.053 44.6713 238.988 44.844 238.857 44.984C238.727 45.1147 238.498 45.18 238.171 45.18ZM235.007 53.048H237.611V47.728H235.007V46.776H238.731V53.048H241.167V54H235.007V53.048ZM246.468 54C245.917 54 245.511 53.846 245.25 53.538C244.998 53.23 244.872 52.8333 244.872 52.348V47.728H242.464V46.776H244.256C244.499 46.776 244.667 46.7293 244.76 46.636C244.863 46.5333 244.914 46.3607 244.914 46.118V44.228H245.992V46.776H249.282V47.728H245.992V53.048H249.282V54H246.468ZM263.257 54C262.706 54 262.3 53.846 262.039 53.538C261.787 53.23 261.661 52.8333 261.661 52.348V47.728H259.253V46.776H261.045C261.288 46.776 261.456 46.7293 261.549 46.636C261.652 46.5333 261.703 46.3607 261.703 46.118V44.228H262.781V46.776H266.071V47.728H262.781V53.048H266.071V54H263.257ZM268.474 43.64H269.594V47.952H269.65C269.724 47.7747 269.818 47.6067 269.93 47.448C270.042 47.28 270.177 47.1353 270.336 47.014C270.504 46.8927 270.7 46.7947 270.924 46.72C271.148 46.6453 271.409 46.608 271.708 46.608C272.464 46.608 273.07 46.8507 273.528 47.336C273.985 47.812 274.214 48.4887 274.214 49.366V54H273.094V49.562C273.094 48.8993 272.949 48.4093 272.66 48.092C272.37 47.7653 271.946 47.602 271.386 47.602C271.162 47.602 270.942 47.63 270.728 47.686C270.513 47.742 270.322 47.826 270.154 47.938C269.986 48.05 269.85 48.1947 269.748 48.372C269.645 48.5493 269.594 48.7547 269.594 48.988V54H268.474V43.64ZM282.426 54C281.987 54 281.675 53.888 281.488 53.664C281.301 53.44 281.185 53.16 281.138 52.824H281.068C280.909 53.244 280.653 53.5753 280.298 53.818C279.953 54.0513 279.486 54.168 278.898 54.168C278.142 54.168 277.54 53.972 277.092 53.58C276.644 53.188 276.42 52.6513 276.42 51.97C276.42 51.298 276.663 50.78 277.148 50.416C277.643 50.052 278.436 49.87 279.528 49.87H281.068V49.156C281.068 48.624 280.919 48.2273 280.62 47.966C280.321 47.6953 279.897 47.56 279.346 47.56C278.861 47.56 278.464 47.658 278.156 47.854C277.848 48.0407 277.601 48.2973 277.414 48.624L276.658 48.064C276.751 47.8773 276.877 47.6953 277.036 47.518C277.195 47.3407 277.391 47.1867 277.624 47.056C277.857 46.916 278.123 46.8087 278.422 46.734C278.721 46.65 279.052 46.608 279.416 46.608C280.265 46.608 280.937 46.8227 281.432 47.252C281.936 47.6813 282.188 48.2787 282.188 49.044V53.02H283.196V54H282.426ZM279.094 53.23C279.383 53.23 279.645 53.1973 279.878 53.132C280.121 53.0573 280.331 52.964 280.508 52.852C280.685 52.7307 280.821 52.5907 280.914 52.432C281.017 52.264 281.068 52.0867 281.068 51.9V50.71H279.528C278.856 50.71 278.366 50.8033 278.058 50.99C277.75 51.1767 277.596 51.4473 277.596 51.802V52.096C277.596 52.4693 277.727 52.754 277.988 52.95C278.259 53.1367 278.627 53.23 279.094 53.23ZM288.441 54C287.89 54 287.484 53.846 287.223 53.538C286.971 53.23 286.845 52.8333 286.845 52.348V47.728H284.437V46.776H286.229C286.471 46.776 286.639 46.7293 286.733 46.636C286.835 46.5333 286.887 46.3607 286.887 46.118V44.228H287.965V46.776H291.255V47.728H287.965V53.048H291.255V54H288.441ZM307.218 46.776H308.338L304.754 55.582C304.67 55.7873 304.576 55.9647 304.474 56.114C304.371 56.2727 304.25 56.3987 304.11 56.492C303.97 56.5947 303.802 56.6693 303.606 56.716C303.41 56.772 303.176 56.8 302.906 56.8H301.842V55.848H303.522L304.334 53.86L301.422 46.776H302.57L303.788 49.8L304.866 52.544H304.922L306 49.8L307.218 46.776ZM313.274 54.168C312.77 54.168 312.313 54.0793 311.902 53.902C311.501 53.7247 311.156 53.4727 310.866 53.146C310.586 52.81 310.372 52.4133 310.222 51.956C310.073 51.4893 309.998 50.9667 309.998 50.388C309.998 49.8187 310.073 49.3007 310.222 48.834C310.372 48.3673 310.586 47.9707 310.866 47.644C311.156 47.308 311.501 47.0513 311.902 46.874C312.313 46.6967 312.77 46.608 313.274 46.608C313.778 46.608 314.231 46.6967 314.632 46.874C315.043 47.0513 315.388 47.308 315.668 47.644C315.958 47.9707 316.177 48.3673 316.326 48.834C316.476 49.3007 316.55 49.8187 316.55 50.388C316.55 50.9667 316.476 51.4893 316.326 51.956C316.177 52.4133 315.958 52.81 315.668 53.146C315.388 53.4727 315.043 53.7247 314.632 53.902C314.231 54.0793 313.778 54.168 313.274 54.168ZM313.274 53.202C313.9 53.202 314.404 53.0153 314.786 52.642C315.169 52.2687 315.36 51.69 315.36 50.906V49.87C315.36 49.086 315.169 48.5073 314.786 48.134C314.404 47.7607 313.9 47.574 313.274 47.574C312.649 47.574 312.145 47.7607 311.762 48.134C311.38 48.5073 311.188 49.086 311.188 49.87V50.906C311.188 51.69 311.38 52.2687 311.762 52.642C312.145 53.0153 312.649 53.202 313.274 53.202ZM323.377 52.824H323.321C323.246 53.0013 323.153 53.174 323.041 53.342C322.929 53.5007 322.789 53.6407 322.621 53.762C322.462 53.8833 322.271 53.9813 322.047 54.056C321.823 54.1307 321.561 54.168 321.263 54.168C320.507 54.168 319.9 53.93 319.443 53.454C318.985 52.9687 318.757 52.2873 318.757 51.41V46.776H319.877V51.214C319.877 51.8767 320.021 52.3713 320.311 52.698C320.6 53.0153 321.025 53.174 321.585 53.174C321.809 53.174 322.028 53.146 322.243 53.09C322.457 53.034 322.649 52.95 322.817 52.838C322.985 52.726 323.12 52.586 323.223 52.418C323.325 52.2407 323.377 52.0307 323.377 51.788V46.776H324.497V54H323.377V52.824ZM334.678 46.776H335.672L336.498 53.02H336.624L337.856 46.776H339.088L340.32 53.02H340.446L341.272 46.776H342.238L341.132 54H339.676L338.528 47.952H338.416L337.24 54H335.784L334.678 46.776ZM346.852 54.168C346.348 54.168 345.891 54.0793 345.48 53.902C345.079 53.7247 344.734 53.4727 344.444 53.146C344.164 52.81 343.95 52.4133 343.8 51.956C343.651 51.4893 343.576 50.9667 343.576 50.388C343.576 49.8187 343.651 49.3007 343.8 48.834C343.95 48.3673 344.164 47.9707 344.444 47.644C344.734 47.308 345.079 47.0513 345.48 46.874C345.891 46.6967 346.348 46.608 346.852 46.608C347.356 46.608 347.809 46.6967 348.21 46.874C348.621 47.0513 348.966 47.308 349.246 47.644C349.536 47.9707 349.755 48.3673 349.904 48.834C350.054 49.3007 350.128 49.8187 350.128 50.388C350.128 50.9667 350.054 51.4893 349.904 51.956C349.755 52.4133 349.536 52.81 349.246 53.146C348.966 53.4727 348.621 53.7247 348.21 53.902C347.809 54.0793 347.356 54.168 346.852 54.168ZM346.852 53.202C347.478 53.202 347.982 53.0153 348.364 52.642C348.747 52.2687 348.938 51.69 348.938 50.906V49.87C348.938 49.086 348.747 48.5073 348.364 48.134C347.982 47.7607 347.478 47.574 346.852 47.574C346.227 47.574 345.723 47.7607 345.34 48.134C344.958 48.5073 344.766 49.086 344.766 49.87V50.906C344.766 51.69 344.958 52.2687 345.34 52.642C345.723 53.0153 346.227 53.202 346.852 53.202ZM356.955 52.824H356.899C356.824 53.0013 356.731 53.174 356.619 53.342C356.507 53.5007 356.367 53.6407 356.199 53.762C356.04 53.8833 355.849 53.9813 355.625 54.056C355.401 54.1307 355.14 54.168 354.841 54.168C354.085 54.168 353.478 53.93 353.021 53.454C352.564 52.9687 352.335 52.2873 352.335 51.41V46.776H353.455V51.214C353.455 51.8767 353.6 52.3713 353.889 52.698C354.178 53.0153 354.603 53.174 355.163 53.174C355.387 53.174 355.606 53.146 355.821 53.09C356.036 53.034 356.227 52.95 356.395 52.838C356.563 52.726 356.698 52.586 356.801 52.418C356.904 52.2407 356.955 52.0307 356.955 51.788V46.776H358.075V54H356.955V52.824ZM360.561 53.048H363.081V44.592H360.561V43.64H364.201V53.048H366.721V54H360.561V53.048ZM373.786 52.824H373.73C373.263 53.72 372.521 54.168 371.504 54.168C370.617 54.168 369.922 53.8367 369.418 53.174C368.923 52.5113 368.676 51.5827 368.676 50.388C368.676 49.1933 368.923 48.2647 369.418 47.602C369.922 46.9393 370.617 46.608 371.504 46.608C372.521 46.608 373.263 47.056 373.73 47.952H373.786V43.64H374.906V54H373.786V52.824ZM371.938 53.174C372.19 53.174 372.428 53.1413 372.652 53.076C372.876 53.0107 373.072 52.9173 373.24 52.796C373.408 52.6653 373.539 52.5113 373.632 52.334C373.735 52.1473 373.786 51.9327 373.786 51.69V49.086C373.786 48.8433 373.735 48.6333 373.632 48.456C373.539 48.2693 373.408 48.1153 373.24 47.994C373.072 47.8633 372.876 47.7653 372.652 47.7C372.428 47.6347 372.19 47.602 371.938 47.602C371.285 47.602 370.776 47.8027 370.412 48.204C370.057 48.596 369.88 49.1187 369.88 49.772V51.004C369.88 51.6573 370.057 52.1847 370.412 52.586C370.776 52.978 371.285 53.174 371.938 53.174ZM385.703 53.048H387.817V47.728H385.703V46.776H388.937V48.596H389.007C389.156 48.0267 389.436 47.5833 389.847 47.266C390.267 46.9393 390.799 46.776 391.443 46.776H392.451V47.896H391.093C390.449 47.896 389.926 48.0827 389.525 48.456C389.133 48.8293 388.937 49.3193 388.937 49.926V53.048H391.737V54H385.703V53.048ZM397.346 54.168C396.823 54.168 396.352 54.0793 395.932 53.902C395.521 53.7247 395.166 53.4727 394.868 53.146C394.578 52.81 394.354 52.4133 394.196 51.956C394.037 51.4893 393.958 50.9713 393.958 50.402C393.958 49.8233 394.037 49.3007 394.196 48.834C394.364 48.3673 394.592 47.9707 394.882 47.644C395.171 47.308 395.516 47.0513 395.918 46.874C396.328 46.6967 396.781 46.608 397.276 46.608C397.761 46.608 398.2 46.6967 398.592 46.874C398.993 47.0513 399.334 47.2987 399.614 47.616C399.894 47.924 400.108 48.2927 400.258 48.722C400.407 49.1513 400.482 49.6227 400.482 50.136V50.668H395.134V51.004C395.134 51.3213 395.185 51.6153 395.288 51.886C395.39 52.1567 395.535 52.39 395.722 52.586C395.918 52.782 396.151 52.936 396.422 53.048C396.702 53.1507 397.01 53.202 397.346 53.202C397.831 53.202 398.251 53.09 398.606 52.866C398.96 52.642 399.231 52.334 399.418 51.942L400.244 52.502C400.029 52.9873 399.67 53.3887 399.166 53.706C398.671 54.014 398.064 54.168 397.346 54.168ZM397.276 47.532C396.968 47.532 396.683 47.588 396.422 47.7C396.16 47.812 395.932 47.966 395.736 48.162C395.549 48.358 395.4 48.5913 395.288 48.862C395.185 49.1233 395.134 49.4127 395.134 49.73V49.828H399.278V49.674C399.278 49.3567 399.226 49.0673 399.124 48.806C399.03 48.5447 398.895 48.3207 398.718 48.134C398.55 47.938 398.34 47.7887 398.088 47.686C397.845 47.5833 397.574 47.532 397.276 47.532ZM405.866 54.168C405.343 54.168 404.877 54.0793 404.466 53.902C404.065 53.7153 403.724 53.4587 403.444 53.132C403.164 52.8053 402.949 52.4087 402.8 51.942C402.66 51.4753 402.59 50.9573 402.59 50.388C402.59 49.8187 402.665 49.3007 402.814 48.834C402.963 48.3673 403.178 47.9707 403.458 47.644C403.738 47.308 404.079 47.0513 404.48 46.874C404.881 46.6967 405.339 46.608 405.852 46.608C406.552 46.608 407.121 46.762 407.56 47.07C407.999 47.378 408.321 47.7793 408.526 48.274L407.63 48.75C407.499 48.3767 407.28 48.0873 406.972 47.882C406.673 47.6767 406.3 47.574 405.852 47.574C405.525 47.574 405.231 47.63 404.97 47.742C404.718 47.8447 404.503 47.994 404.326 48.19C404.149 48.386 404.013 48.6193 403.92 48.89C403.836 49.1607 403.794 49.4547 403.794 49.772V51.004C403.794 51.3213 403.836 51.6153 403.92 51.886C404.013 52.1567 404.149 52.39 404.326 52.586C404.503 52.782 404.723 52.936 404.984 53.048C405.245 53.1507 405.544 53.202 405.88 53.202C406.365 53.202 406.767 53.09 407.084 52.866C407.401 52.642 407.653 52.334 407.84 51.942L408.638 52.488C408.423 52.9733 408.087 53.3747 407.63 53.692C407.182 54.0093 406.594 54.168 405.866 54.168ZM414.009 54.168C413.505 54.168 413.047 54.0793 412.637 53.902C412.235 53.7247 411.89 53.4727 411.601 53.146C411.321 52.81 411.106 52.4133 410.957 51.956C410.807 51.4893 410.733 50.9667 410.733 50.388C410.733 49.8187 410.807 49.3007 410.957 48.834C411.106 48.3673 411.321 47.9707 411.601 47.644C411.89 47.308 412.235 47.0513 412.637 46.874C413.047 46.6967 413.505 46.608 414.009 46.608C414.513 46.608 414.965 46.6967 415.367 46.874C415.777 47.0513 416.123 47.308 416.403 47.644C416.692 47.9707 416.911 48.3673 417.061 48.834C417.21 49.3007 417.285 49.8187 417.285 50.388C417.285 50.9667 417.21 51.4893 417.061 51.956C416.911 52.4133 416.692 52.81 416.403 53.146C416.123 53.4727 415.777 53.7247 415.367 53.902C414.965 54.0793 414.513 54.168 414.009 54.168ZM414.009 53.202C414.634 53.202 415.138 53.0153 415.521 52.642C415.903 52.2687 416.095 51.69 416.095 50.906V49.87C416.095 49.086 415.903 48.5073 415.521 48.134C415.138 47.7607 414.634 47.574 414.009 47.574C413.383 47.574 412.879 47.7607 412.497 48.134C412.114 48.5073 411.923 49.086 411.923 49.87V50.906C411.923 51.69 412.114 52.2687 412.497 52.642C412.879 53.0153 413.383 53.202 414.009 53.202ZM418.959 54V46.776H419.995V47.616H420.051C420.163 47.336 420.322 47.098 420.527 46.902C420.732 46.706 421.036 46.608 421.437 46.608C421.857 46.608 422.17 46.7153 422.375 46.93C422.58 47.1353 422.706 47.406 422.753 47.742H422.795C422.926 47.4153 423.112 47.1447 423.355 46.93C423.598 46.7153 423.934 46.608 424.363 46.608C424.951 46.608 425.343 46.8133 425.539 47.224C425.744 47.6347 425.847 48.2227 425.847 48.988V54H424.811V49.17C424.811 48.554 424.746 48.1293 424.615 47.896C424.494 47.6533 424.265 47.532 423.929 47.532C423.63 47.532 423.388 47.63 423.201 47.826C423.014 48.0127 422.921 48.302 422.921 48.694V54H421.885V49.17C421.885 48.554 421.82 48.1293 421.689 47.896C421.568 47.6533 421.344 47.532 421.017 47.532C420.718 47.532 420.471 47.63 420.275 47.826C420.088 48.0127 419.995 48.302 419.995 48.694V54H418.959ZM427.354 54V46.776H428.39V47.616H428.446C428.558 47.336 428.716 47.098 428.922 46.902C429.127 46.706 429.43 46.608 429.832 46.608C430.252 46.608 430.564 46.7153 430.77 46.93C430.975 47.1353 431.101 47.406 431.148 47.742H431.19C431.32 47.4153 431.507 47.1447 431.75 46.93C431.992 46.7153 432.328 46.608 432.758 46.608C433.346 46.608 433.738 46.8133 433.934 47.224C434.139 47.6347 434.242 48.2227 434.242 48.988V54H433.206V49.17C433.206 48.554 433.14 48.1293 433.01 47.896C432.888 47.6533 432.66 47.532 432.324 47.532C432.025 47.532 431.782 47.63 431.596 47.826C431.409 48.0127 431.316 48.302 431.316 48.694V54H430.28V49.17C430.28 48.554 430.214 48.1293 430.084 47.896C429.962 47.6533 429.738 47.532 429.412 47.532C429.113 47.532 428.866 47.63 428.67 47.826C428.483 48.0127 428.39 48.302 428.39 48.694V54H427.354ZM439.318 54.168C438.796 54.168 438.324 54.0793 437.904 53.902C437.494 53.7247 437.139 53.4727 436.84 53.146C436.551 52.81 436.327 52.4133 436.168 51.956C436.01 51.4893 435.93 50.9713 435.93 50.402C435.93 49.8233 436.01 49.3007 436.168 48.834C436.336 48.3673 436.565 47.9707 436.854 47.644C437.144 47.308 437.489 47.0513 437.89 46.874C438.301 46.6967 438.754 46.608 439.248 46.608C439.734 46.608 440.172 46.6967 440.564 46.874C440.966 47.0513 441.306 47.2987 441.586 47.616C441.866 47.924 442.081 48.2927 442.23 48.722C442.38 49.1513 442.454 49.6227 442.454 50.136V50.668H437.106V51.004C437.106 51.3213 437.158 51.6153 437.26 51.886C437.363 52.1567 437.508 52.39 437.694 52.586C437.89 52.782 438.124 52.936 438.394 53.048C438.674 53.1507 438.982 53.202 439.318 53.202C439.804 53.202 440.224 53.09 440.578 52.866C440.933 52.642 441.204 52.334 441.39 51.942L442.216 52.502C442.002 52.9873 441.642 53.3887 441.138 53.706C440.644 54.014 440.037 54.168 439.318 54.168ZM439.248 47.532C438.94 47.532 438.656 47.588 438.394 47.7C438.133 47.812 437.904 47.966 437.708 48.162C437.522 48.358 437.372 48.5913 437.26 48.862C437.158 49.1233 437.106 49.4127 437.106 49.73V49.828H441.25V49.674C441.25 49.3567 441.199 49.0673 441.096 48.806C441.003 48.5447 440.868 48.3207 440.69 48.134C440.522 47.938 440.312 47.7887 440.06 47.686C439.818 47.5833 439.547 47.532 439.248 47.532ZM444.759 54V46.776H445.879V47.952H445.935C446.009 47.7747 446.103 47.6067 446.215 47.448C446.327 47.28 446.462 47.1353 446.621 47.014C446.789 46.8927 446.985 46.7947 447.209 46.72C447.433 46.6453 447.694 46.608 447.993 46.608C448.749 46.608 449.355 46.8507 449.813 47.336C450.27 47.812 450.499 48.4887 450.499 49.366V54H449.379V49.562C449.379 48.8993 449.234 48.4093 448.945 48.092C448.655 47.7653 448.231 47.602 447.671 47.602C447.447 47.602 447.227 47.63 447.013 47.686C446.798 47.742 446.607 47.826 446.439 47.938C446.271 48.05 446.135 48.1947 446.033 48.372C445.93 48.5493 445.879 48.7547 445.879 48.988V54H444.759ZM457.731 52.824H457.675C457.209 53.72 456.467 54.168 455.449 54.168C454.563 54.168 453.867 53.8367 453.363 53.174C452.869 52.5113 452.621 51.5827 452.621 50.388C452.621 49.1933 452.869 48.2647 453.363 47.602C453.867 46.9393 454.563 46.608 455.449 46.608C456.467 46.608 457.209 47.056 457.675 47.952H457.731V43.64H458.851V54H457.731V52.824ZM455.883 53.174C456.135 53.174 456.373 53.1413 456.597 53.076C456.821 53.0107 457.017 52.9173 457.185 52.796C457.353 52.6653 457.484 52.5113 457.577 52.334C457.68 52.1473 457.731 51.9327 457.731 51.69V49.086C457.731 48.8433 457.68 48.6333 457.577 48.456C457.484 48.2693 457.353 48.1153 457.185 47.994C457.017 47.8633 456.821 47.7653 456.597 47.7C456.373 47.6347 456.135 47.602 455.883 47.602C455.23 47.602 454.721 47.8027 454.357 48.204C454.003 48.596 453.825 49.1187 453.825 49.772V51.004C453.825 51.6573 454.003 52.1847 454.357 52.586C454.721 52.978 455.23 53.174 455.883 53.174ZM120.55 72C119.999 72 119.593 71.846 119.332 71.538C119.08 71.23 118.954 70.8333 118.954 70.348V65.728H116.546V64.776H118.338C118.581 64.776 118.749 64.7293 118.842 64.636C118.945 64.5333 118.996 64.3607 118.996 64.118V62.228H120.074V64.776H123.364V65.728H120.074V71.048H123.364V72H120.55ZM125.767 61.64H126.887V65.952H126.943C127.017 65.7747 127.111 65.6067 127.223 65.448C127.335 65.28 127.47 65.1353 127.629 65.014C127.797 64.8927 127.993 64.7947 128.217 64.72C128.441 64.6453 128.702 64.608 129.001 64.608C129.757 64.608 130.363 64.8507 130.821 65.336C131.278 65.812 131.507 66.4887 131.507 67.366V72H130.387V67.562C130.387 66.8993 130.242 66.4093 129.953 66.092C129.663 65.7653 129.239 65.602 128.679 65.602C128.455 65.602 128.235 65.63 128.021 65.686C127.806 65.742 127.615 65.826 127.447 65.938C127.279 66.05 127.143 66.1947 127.041 66.372C126.938 66.5493 126.887 66.7547 126.887 66.988V72H125.767V61.64ZM137.437 63.18C137.11 63.18 136.882 63.1147 136.751 62.984C136.62 62.844 136.555 62.6713 136.555 62.466V62.242C136.555 62.0367 136.62 61.8687 136.751 61.738C136.882 61.598 137.11 61.528 137.437 61.528C137.764 61.528 137.992 61.598 138.123 61.738C138.254 61.8687 138.319 62.0367 138.319 62.242V62.466C138.319 62.6713 138.254 62.844 138.123 62.984C137.992 63.1147 137.764 63.18 137.437 63.18ZM134.273 71.048H136.877V65.728H134.273V64.776H137.997V71.048H140.433V72H134.273V71.048ZM145.468 72.168C144.712 72.168 144.058 72.042 143.508 71.79C142.966 71.5287 142.504 71.1833 142.122 70.754L142.878 70.096C143.223 70.46 143.601 70.74 144.012 70.936C144.422 71.132 144.917 71.23 145.496 71.23C146.056 71.23 146.513 71.132 146.868 70.936C147.232 70.7307 147.414 70.4133 147.414 69.984C147.414 69.7973 147.376 69.6433 147.302 69.522C147.236 69.3913 147.143 69.2887 147.022 69.214C146.9 69.1393 146.765 69.0833 146.616 69.046C146.466 68.9993 146.308 68.962 146.14 68.934L145.006 68.766C144.754 68.7287 144.478 68.6773 144.18 68.612C143.89 68.5467 143.624 68.444 143.382 68.304C143.139 68.1547 142.934 67.9587 142.766 67.716C142.607 67.4733 142.528 67.156 142.528 66.764C142.528 66.4 142.598 66.0873 142.738 65.826C142.887 65.5553 143.092 65.3313 143.354 65.154C143.615 64.9673 143.923 64.832 144.278 64.748C144.632 64.6547 145.02 64.608 145.44 64.608C146.093 64.608 146.658 64.7107 147.134 64.916C147.619 65.1213 148.034 65.406 148.38 65.77L147.652 66.456C147.568 66.3533 147.46 66.2507 147.33 66.148C147.208 66.036 147.054 65.938 146.868 65.854C146.69 65.7607 146.48 65.686 146.238 65.63C145.995 65.574 145.715 65.546 145.398 65.546C144.828 65.546 144.39 65.644 144.082 65.84C143.783 66.036 143.634 66.3207 143.634 66.694C143.634 66.8807 143.666 67.0393 143.732 67.17C143.806 67.2913 143.904 67.3893 144.026 67.464C144.147 67.5387 144.282 67.5993 144.432 67.646C144.59 67.6833 144.749 67.716 144.908 67.744L146.042 67.912C146.303 67.9493 146.578 68.0007 146.868 68.066C147.157 68.1313 147.423 68.2387 147.666 68.388C147.908 68.528 148.109 68.7193 148.268 68.962C148.436 69.2047 148.52 69.522 148.52 69.914C148.52 70.6327 148.24 71.188 147.68 71.58C147.129 71.972 146.392 72.168 145.468 72.168ZM162.425 72.168C161.902 72.168 161.435 72.0793 161.025 71.902C160.623 71.7153 160.283 71.4587 160.003 71.132C159.723 70.8053 159.508 70.4087 159.359 69.942C159.219 69.4753 159.149 68.9573 159.149 68.388C159.149 67.8187 159.223 67.3007 159.373 66.834C159.522 66.3673 159.737 65.9707 160.017 65.644C160.297 65.308 160.637 65.0513 161.039 64.874C161.44 64.6967 161.897 64.608 162.411 64.608C163.111 64.608 163.68 64.762 164.119 65.07C164.557 65.378 164.879 65.7793 165.085 66.274L164.189 66.75C164.058 66.3767 163.839 66.0873 163.531 65.882C163.232 65.6767 162.859 65.574 162.411 65.574C162.084 65.574 161.79 65.63 161.529 65.742C161.277 65.8447 161.062 65.994 160.885 66.19C160.707 66.386 160.572 66.6193 160.479 66.89C160.395 67.1607 160.353 67.4547 160.353 67.772V69.004C160.353 69.3213 160.395 69.6153 160.479 69.886C160.572 70.1567 160.707 70.39 160.885 70.586C161.062 70.782 161.281 70.936 161.543 71.048C161.804 71.1507 162.103 71.202 162.439 71.202C162.924 71.202 163.325 71.09 163.643 70.866C163.96 70.642 164.212 70.334 164.399 69.942L165.197 70.488C164.982 70.9733 164.646 71.3747 164.189 71.692C163.741 72.0093 163.153 72.168 162.425 72.168ZM170.567 72.168C170.063 72.168 169.606 72.0793 169.195 71.902C168.794 71.7247 168.449 71.4727 168.159 71.146C167.879 70.81 167.665 70.4133 167.515 69.956C167.366 69.4893 167.291 68.9667 167.291 68.388C167.291 67.8187 167.366 67.3007 167.515 66.834C167.665 66.3673 167.879 65.9707 168.159 65.644C168.449 65.308 168.794 65.0513 169.195 64.874C169.606 64.6967 170.063 64.608 170.567 64.608C171.071 64.608 171.524 64.6967 171.925 64.874C172.336 65.0513 172.681 65.308 172.961 65.644C173.251 65.9707 173.47 66.3673 173.619 66.834C173.769 67.3007 173.843 67.8187 173.843 68.388C173.843 68.9667 173.769 69.4893 173.619 69.956C173.47 70.4133 173.251 70.81 172.961 71.146C172.681 71.4727 172.336 71.7247 171.925 71.902C171.524 72.0793 171.071 72.168 170.567 72.168ZM170.567 71.202C171.193 71.202 171.697 71.0153 172.079 70.642C172.462 70.2687 172.653 69.69 172.653 68.906V67.87C172.653 67.086 172.462 66.5073 172.079 66.134C171.697 65.7607 171.193 65.574 170.567 65.574C169.942 65.574 169.438 65.7607 169.055 66.134C168.673 66.5073 168.481 67.086 168.481 67.87V68.906C168.481 69.69 168.673 70.2687 169.055 70.642C169.438 71.0153 169.942 71.202 170.567 71.202ZM175.518 72V64.776H176.554V65.616H176.61C176.722 65.336 176.88 65.098 177.086 64.902C177.291 64.706 177.594 64.608 177.996 64.608C178.416 64.608 178.728 64.7153 178.934 64.93C179.139 65.1353 179.265 65.406 179.312 65.742H179.354C179.484 65.4153 179.671 65.1447 179.914 64.93C180.156 64.7153 180.492 64.608 180.922 64.608C181.51 64.608 181.902 64.8133 182.098 65.224C182.303 65.6347 182.406 66.2227 182.406 66.988V72H181.37V67.17C181.37 66.554 181.304 66.1293 181.174 65.896C181.052 65.6533 180.824 65.532 180.488 65.532C180.189 65.532 179.946 65.63 179.76 65.826C179.573 66.0127 179.48 66.302 179.48 66.694V72H178.444V67.17C178.444 66.554 178.378 66.1293 178.248 65.896C178.126 65.6533 177.902 65.532 177.576 65.532C177.277 65.532 177.03 65.63 176.834 65.826C176.647 66.0127 176.554 66.302 176.554 66.694V72H175.518ZM184.486 64.776H185.606V65.952H185.662C186.129 65.056 186.871 64.608 187.888 64.608C188.775 64.608 189.466 64.9393 189.96 65.602C190.464 66.2647 190.716 67.1933 190.716 68.388C190.716 69.5827 190.464 70.5113 189.96 71.174C189.466 71.8367 188.775 72.168 187.888 72.168C186.871 72.168 186.129 71.72 185.662 70.824H185.606V74.8H184.486V64.776ZM187.454 71.174C188.108 71.174 188.612 70.978 188.966 70.586C189.33 70.1847 189.512 69.6573 189.512 69.004V67.772C189.512 67.1187 189.33 66.596 188.966 66.204C188.612 65.8027 188.108 65.602 187.454 65.602C187.202 65.602 186.964 65.6347 186.74 65.7C186.516 65.7653 186.32 65.8633 186.152 65.994C185.984 66.1153 185.849 66.2693 185.746 66.456C185.653 66.6333 185.606 66.8433 185.606 67.086V69.69C185.606 69.9327 185.653 70.1473 185.746 70.334C185.849 70.5113 185.984 70.6653 186.152 70.796C186.32 70.9173 186.516 71.0107 186.74 71.076C186.964 71.1413 187.202 71.174 187.454 71.174ZM198.481 72C198.042 72 197.729 71.888 197.543 71.664C197.356 71.44 197.239 71.16 197.193 70.824H197.123C196.964 71.244 196.707 71.5753 196.353 71.818C196.007 72.0513 195.541 72.168 194.953 72.168C194.197 72.168 193.595 71.972 193.147 71.58C192.699 71.188 192.475 70.6513 192.475 69.97C192.475 69.298 192.717 68.78 193.203 68.416C193.697 68.052 194.491 67.87 195.583 67.87H197.123V67.156C197.123 66.624 196.973 66.2273 196.675 65.966C196.376 65.6953 195.951 65.56 195.401 65.56C194.915 65.56 194.519 65.658 194.211 65.854C193.903 66.0407 193.655 66.2973 193.469 66.624L192.713 66.064C192.806 65.8773 192.932 65.6953 193.091 65.518C193.249 65.3407 193.445 65.1867 193.679 65.056C193.912 64.916 194.178 64.8087 194.477 64.734C194.775 64.65 195.107 64.608 195.471 64.608C196.32 64.608 196.992 64.8227 197.487 65.252C197.991 65.6813 198.243 66.2787 198.243 67.044V71.02H199.251V72H198.481ZM195.149 71.23C195.438 71.23 195.699 71.1973 195.933 71.132C196.175 71.0573 196.385 70.964 196.563 70.852C196.74 70.7307 196.875 70.5907 196.969 70.432C197.071 70.264 197.123 70.0867 197.123 69.9V68.71H195.583C194.911 68.71 194.421 68.8033 194.113 68.99C193.805 69.1767 193.651 69.4473 193.651 69.802V70.096C193.651 70.4693 193.781 70.754 194.043 70.95C194.313 71.1367 194.682 71.23 195.149 71.23ZM201.317 72V64.776H202.437V65.952H202.493C202.568 65.7747 202.661 65.6067 202.773 65.448C202.885 65.28 203.021 65.1353 203.179 65.014C203.347 64.8927 203.543 64.7947 203.767 64.72C203.991 64.6453 204.253 64.608 204.551 64.608C205.307 64.608 205.914 64.8507 206.371 65.336C206.829 65.812 207.057 66.4887 207.057 67.366V72H205.937V67.562C205.937 66.8993 205.793 66.4093 205.503 66.092C205.214 65.7653 204.789 65.602 204.229 65.602C204.005 65.602 203.786 65.63 203.571 65.686C203.357 65.742 203.165 65.826 202.997 65.938C202.829 66.05 202.694 66.1947 202.591 66.372C202.489 66.5493 202.437 66.7547 202.437 66.988V72H201.317ZM214.878 64.776H215.998L212.414 73.582C212.33 73.7873 212.237 73.9647 212.134 74.114C212.031 74.2727 211.91 74.3987 211.77 74.492C211.63 74.5947 211.462 74.6693 211.266 74.716C211.07 74.772 210.837 74.8 210.566 74.8H209.502V73.848H211.182L211.994 71.86L209.082 64.776H210.23L211.448 67.8L212.526 70.544H212.582L213.66 67.8L214.878 64.776ZM229.679 72C229.128 72 228.722 71.846 228.461 71.538C228.209 71.23 228.083 70.8333 228.083 70.348V65.728H225.675V64.776H227.467C227.71 64.776 227.878 64.7293 227.971 64.636C228.074 64.5333 228.125 64.3607 228.125 64.118V62.228H229.203V64.776H232.493V65.728H229.203V71.048H232.493V72H229.679ZM237.723 72.168C237.219 72.168 236.762 72.0793 236.351 71.902C235.95 71.7247 235.605 71.4727 235.315 71.146C235.035 70.81 234.821 70.4133 234.671 69.956C234.522 69.4893 234.447 68.9667 234.447 68.388C234.447 67.8187 234.522 67.3007 234.671 66.834C234.821 66.3673 235.035 65.9707 235.315 65.644C235.605 65.308 235.95 65.0513 236.351 64.874C236.762 64.6967 237.219 64.608 237.723 64.608C238.227 64.608 238.68 64.6967 239.081 64.874C239.492 65.0513 239.837 65.308 240.117 65.644C240.407 65.9707 240.626 66.3673 240.775 66.834C240.925 67.3007 240.999 67.8187 240.999 68.388C240.999 68.9667 240.925 69.4893 240.775 69.956C240.626 70.4133 240.407 70.81 240.117 71.146C239.837 71.4727 239.492 71.7247 239.081 71.902C238.68 72.0793 238.227 72.168 237.723 72.168ZM237.723 71.202C238.349 71.202 238.853 71.0153 239.235 70.642C239.618 70.2687 239.809 69.69 239.809 68.906V67.87C239.809 67.086 239.618 66.5073 239.235 66.134C238.853 65.7607 238.349 65.574 237.723 65.574C237.098 65.574 236.594 65.7607 236.211 66.134C235.829 66.5073 235.637 67.086 235.637 67.87V68.906C235.637 69.69 235.829 70.2687 236.211 70.642C236.594 71.0153 237.098 71.202 237.723 71.202ZM257.243 72C256.804 72 256.491 71.888 256.305 71.664C256.118 71.44 256.001 71.16 255.955 70.824H255.885C255.726 71.244 255.469 71.5753 255.115 71.818C254.769 72.0513 254.303 72.168 253.715 72.168C252.959 72.168 252.357 71.972 251.909 71.58C251.461 71.188 251.236 70.6513 251.236 69.97C251.236 69.298 251.479 68.78 251.965 68.416C252.459 68.052 253.253 67.87 254.345 67.87H255.885V67.156C255.885 66.624 255.735 66.2273 255.437 65.966C255.138 65.6953 254.713 65.56 254.163 65.56C253.677 65.56 253.281 65.658 252.973 65.854C252.665 66.0407 252.417 66.2973 252.231 66.624L251.475 66.064C251.568 65.8773 251.694 65.6953 251.853 65.518C252.011 65.3407 252.207 65.1867 252.441 65.056C252.674 64.916 252.94 64.8087 253.239 64.734C253.537 64.65 253.869 64.608 254.233 64.608C255.082 64.608 255.754 64.8227 256.249 65.252C256.753 65.6813 257.005 66.2787 257.005 67.044V71.02H258.013V72H257.243ZM253.91 71.23C254.2 71.23 254.461 71.1973 254.695 71.132C254.937 71.0573 255.147 70.964 255.325 70.852C255.502 70.7307 255.637 70.5907 255.731 70.432C255.833 70.264 255.885 70.0867 255.885 69.9V68.71H254.345C253.673 68.71 253.183 68.8033 252.875 68.99C252.567 69.1767 252.413 69.4473 252.413 69.802V70.096C252.413 70.4693 252.543 70.754 252.805 70.95C253.075 71.1367 253.444 71.23 253.91 71.23ZM268.264 71.048H270.7V65.728H268.124V64.776H270.7V63.292C270.7 62.8067 270.826 62.41 271.078 62.102C271.339 61.794 271.745 61.64 272.296 61.64H274.718V62.592H271.82V64.776H274.718V65.728H271.82V71.048H274.396V72H268.264V71.048ZM276.574 71.048H278.688V65.728H276.574V64.776H279.808V66.596H279.878C280.027 66.0267 280.307 65.5833 280.718 65.266C281.138 64.9393 281.67 64.776 282.314 64.776H283.322V65.896H281.964C281.32 65.896 280.797 66.0827 280.396 66.456C280.004 66.8293 279.808 67.3193 279.808 67.926V71.048H282.608V72H276.574V71.048ZM288.539 63.18C288.212 63.18 287.983 63.1147 287.853 62.984C287.722 62.844 287.657 62.6713 287.657 62.466V62.242C287.657 62.0367 287.722 61.8687 287.853 61.738C287.983 61.598 288.212 61.528 288.539 61.528C288.865 61.528 289.094 61.598 289.225 61.738C289.355 61.8687 289.421 62.0367 289.421 62.242V62.466C289.421 62.6713 289.355 62.844 289.225 62.984C289.094 63.1147 288.865 63.18 288.539 63.18ZM285.375 71.048H287.979V65.728H285.375V64.776H289.099V71.048H291.535V72H285.375V71.048ZM296.611 72.168C296.088 72.168 295.617 72.0793 295.197 71.902C294.786 71.7247 294.432 71.4727 294.133 71.146C293.844 70.81 293.62 70.4133 293.461 69.956C293.302 69.4893 293.223 68.9713 293.223 68.402C293.223 67.8233 293.302 67.3007 293.461 66.834C293.629 66.3673 293.858 65.9707 294.147 65.644C294.436 65.308 294.782 65.0513 295.183 64.874C295.594 64.6967 296.046 64.608 296.541 64.608C297.026 64.608 297.465 64.6967 297.857 64.874C298.258 65.0513 298.599 65.2987 298.879 65.616C299.159 65.924 299.374 66.2927 299.523 66.722C299.672 67.1513 299.747 67.6227 299.747 68.136V68.668H294.399V69.004C294.399 69.3213 294.45 69.6153 294.553 69.886C294.656 70.1567 294.8 70.39 294.987 70.586C295.183 70.782 295.416 70.936 295.687 71.048C295.967 71.1507 296.275 71.202 296.611 71.202C297.096 71.202 297.516 71.09 297.871 70.866C298.226 70.642 298.496 70.334 298.683 69.942L299.509 70.502C299.294 70.9873 298.935 71.3887 298.431 71.706C297.936 72.014 297.33 72.168 296.611 72.168ZM296.541 65.532C296.233 65.532 295.948 65.588 295.687 65.7C295.426 65.812 295.197 65.966 295.001 66.162C294.814 66.358 294.665 66.5913 294.553 66.862C294.45 67.1233 294.399 67.4127 294.399 67.73V67.828H298.543V67.674C298.543 67.3567 298.492 67.0673 298.389 66.806C298.296 66.5447 298.16 66.3207 297.983 66.134C297.815 65.938 297.605 65.7887 297.353 65.686C297.11 65.5833 296.84 65.532 296.541 65.532ZM302.052 72V64.776H303.172V65.952H303.228C303.302 65.7747 303.396 65.6067 303.508 65.448C303.62 65.28 303.755 65.1353 303.914 65.014C304.082 64.8927 304.278 64.7947 304.502 64.72C304.726 64.6453 304.987 64.608 305.286 64.608C306.042 64.608 306.648 64.8507 307.106 65.336C307.563 65.812 307.792 66.4887 307.792 67.366V72H306.672V67.562C306.672 66.8993 306.527 66.4093 306.238 66.092C305.948 65.7653 305.524 65.602 304.964 65.602C304.74 65.602 304.52 65.63 304.306 65.686C304.091 65.742 303.9 65.826 303.732 65.938C303.564 66.05 303.428 66.1947 303.326 66.372C303.223 66.5493 303.172 66.7547 303.172 66.988V72H302.052ZM315.024 70.824H314.968C314.502 71.72 313.76 72.168 312.742 72.168C311.856 72.168 311.16 71.8367 310.656 71.174C310.162 70.5113 309.914 69.5827 309.914 68.388C309.914 67.1933 310.162 66.2647 310.656 65.602C311.16 64.9393 311.856 64.608 312.742 64.608C313.76 64.608 314.502 65.056 314.968 65.952H315.024V61.64H316.144V72H315.024V70.824ZM313.176 71.174C313.428 71.174 313.666 71.1413 313.89 71.076C314.114 71.0107 314.31 70.9173 314.478 70.796C314.646 70.6653 314.777 70.5113 314.87 70.334C314.973 70.1473 315.024 69.9327 315.024 69.69V67.086C315.024 66.8433 314.973 66.6333 314.87 66.456C314.777 66.2693 314.646 66.1153 314.478 65.994C314.31 65.8633 314.114 65.7653 313.89 65.7C313.666 65.6347 313.428 65.602 313.176 65.602C312.523 65.602 312.014 65.8027 311.65 66.204C311.296 66.596 311.118 67.1187 311.118 67.772V69.004C311.118 69.6573 311.296 70.1847 311.65 70.586C312.014 70.978 312.523 71.174 313.176 71.174ZM330.063 72.168C329.559 72.168 329.102 72.0793 328.691 71.902C328.29 71.7247 327.945 71.4727 327.655 71.146C327.375 70.81 327.161 70.4133 327.011 69.956C326.862 69.4893 326.787 68.9667 326.787 68.388C326.787 67.8187 326.862 67.3007 327.011 66.834C327.161 66.3673 327.375 65.9707 327.655 65.644C327.945 65.308 328.29 65.0513 328.691 64.874C329.102 64.6967 329.559 64.608 330.063 64.608C330.567 64.608 331.02 64.6967 331.421 64.874C331.832 65.0513 332.177 65.308 332.457 65.644C332.747 65.9707 332.966 66.3673 333.115 66.834C333.265 67.3007 333.339 67.8187 333.339 68.388C333.339 68.9667 333.265 69.4893 333.115 69.956C332.966 70.4133 332.747 70.81 332.457 71.146C332.177 71.4727 331.832 71.7247 331.421 71.902C331.02 72.0793 330.567 72.168 330.063 72.168ZM330.063 71.202C330.689 71.202 331.193 71.0153 331.575 70.642C331.958 70.2687 332.149 69.69 332.149 68.906V67.87C332.149 67.086 331.958 66.5073 331.575 66.134C331.193 65.7607 330.689 65.574 330.063 65.574C329.438 65.574 328.934 65.7607 328.551 66.134C328.169 66.5073 327.977 67.086 327.977 67.87V68.906C327.977 69.69 328.169 70.2687 328.551 70.642C328.934 71.0153 329.438 71.202 330.063 71.202ZM335.336 71.048H337.45V65.728H335.336V64.776H338.57V66.596H338.64C338.789 66.0267 339.069 65.5833 339.48 65.266C339.9 64.9393 340.432 64.776 341.076 64.776H342.084V65.896H340.726C340.082 65.896 339.559 66.0827 339.158 66.456C338.766 66.8293 338.57 67.3193 338.57 67.926V71.048H341.37V72H335.336V71.048ZM355.499 72.168C354.976 72.168 354.51 72.0793 354.099 71.902C353.698 71.7153 353.357 71.4587 353.077 71.132C352.797 70.8053 352.582 70.4087 352.433 69.942C352.293 69.4753 352.223 68.9573 352.223 68.388C352.223 67.8187 352.298 67.3007 352.447 66.834C352.596 66.3673 352.811 65.9707 353.091 65.644C353.371 65.308 353.712 65.0513 354.113 64.874C354.514 64.6967 354.972 64.608 355.485 64.608C356.185 64.608 356.754 64.762 357.193 65.07C357.632 65.378 357.954 65.7793 358.159 66.274L357.263 66.75C357.132 66.3767 356.913 66.0873 356.605 65.882C356.306 65.6767 355.933 65.574 355.485 65.574C355.158 65.574 354.864 65.63 354.603 65.742C354.351 65.8447 354.136 65.994 353.959 66.19C353.782 66.386 353.646 66.6193 353.553 66.89C353.469 67.1607 353.427 67.4547 353.427 67.772V69.004C353.427 69.3213 353.469 69.6153 353.553 69.886C353.646 70.1567 353.782 70.39 353.959 70.586C354.136 70.782 354.356 70.936 354.617 71.048C354.878 71.1507 355.177 71.202 355.513 71.202C355.998 71.202 356.4 71.09 356.717 70.866C357.034 70.642 357.286 70.334 357.473 69.942L358.271 70.488C358.056 70.9733 357.72 71.3747 357.263 71.692C356.815 72.0093 356.227 72.168 355.499 72.168ZM363.641 72.168C363.137 72.168 362.68 72.0793 362.269 71.902C361.868 71.7247 361.523 71.4727 361.233 71.146C360.953 70.81 360.739 70.4133 360.589 69.956C360.44 69.4893 360.365 68.9667 360.365 68.388C360.365 67.8187 360.44 67.3007 360.589 66.834C360.739 66.3673 360.953 65.9707 361.233 65.644C361.523 65.308 361.868 65.0513 362.269 64.874C362.68 64.6967 363.137 64.608 363.641 64.608C364.145 64.608 364.598 64.6967 364.999 64.874C365.41 65.0513 365.755 65.308 366.035 65.644C366.325 65.9707 366.544 66.3673 366.693 66.834C366.843 67.3007 366.917 67.8187 366.917 68.388C366.917 68.9667 366.843 69.4893 366.693 69.956C366.544 70.4133 366.325 70.81 366.035 71.146C365.755 71.4727 365.41 71.7247 364.999 71.902C364.598 72.0793 364.145 72.168 363.641 72.168ZM363.641 71.202C364.267 71.202 364.771 71.0153 365.153 70.642C365.536 70.2687 365.727 69.69 365.727 68.906V67.87C365.727 67.086 365.536 66.5073 365.153 66.134C364.771 65.7607 364.267 65.574 363.641 65.574C363.016 65.574 362.512 65.7607 362.129 66.134C361.747 66.5073 361.555 67.086 361.555 67.87V68.906C361.555 69.69 361.747 70.2687 362.129 70.642C362.512 71.0153 363.016 71.202 363.641 71.202ZM368.956 71.048H371.476V62.592H368.956V61.64H372.596V71.048H375.116V72H368.956V71.048ZM377.35 71.048H379.87V62.592H377.35V61.64H380.99V71.048H383.51V72H377.35V71.048ZM388.951 72.168C388.428 72.168 387.957 72.0793 387.537 71.902C387.126 71.7247 386.772 71.4727 386.473 71.146C386.184 70.81 385.96 70.4133 385.801 69.956C385.642 69.4893 385.563 68.9713 385.563 68.402C385.563 67.8233 385.642 67.3007 385.801 66.834C385.969 66.3673 386.198 65.9707 386.487 65.644C386.776 65.308 387.122 65.0513 387.523 64.874C387.934 64.6967 388.386 64.608 388.881 64.608C389.366 64.608 389.805 64.6967 390.197 64.874C390.598 65.0513 390.939 65.2987 391.219 65.616C391.499 65.924 391.714 66.2927 391.863 66.722C392.012 67.1513 392.087 67.6227 392.087 68.136V68.668H386.739V69.004C386.739 69.3213 386.79 69.6153 386.893 69.886C386.996 70.1567 387.14 70.39 387.327 70.586C387.523 70.782 387.756 70.936 388.027 71.048C388.307 71.1507 388.615 71.202 388.951 71.202C389.436 71.202 389.856 71.09 390.211 70.866C390.566 70.642 390.836 70.334 391.023 69.942L391.849 70.502C391.634 70.9873 391.275 71.3887 390.771 71.706C390.276 72.014 389.67 72.168 388.951 72.168ZM388.881 65.532C388.573 65.532 388.288 65.588 388.027 65.7C387.766 65.812 387.537 65.966 387.341 66.162C387.154 66.358 387.005 66.5913 386.893 66.862C386.79 67.1233 386.739 67.4127 386.739 67.73V67.828H390.883V67.674C390.883 67.3567 390.832 67.0673 390.729 66.806C390.636 66.5447 390.5 66.3207 390.323 66.134C390.155 65.938 389.945 65.7887 389.693 65.686C389.45 65.5833 389.18 65.532 388.881 65.532ZM400.874 72.826C400.874 73.554 400.57 74.0907 399.964 74.436C399.357 74.7907 398.447 74.968 397.234 74.968C396.067 74.968 395.227 74.814 394.714 74.506C394.21 74.198 393.958 73.7547 393.958 73.176C393.958 72.784 394.06 72.4807 394.266 72.266C394.471 72.0513 394.76 71.8927 395.134 71.79V71.622C394.928 71.5193 394.77 71.3887 394.658 71.23C394.546 71.0713 394.49 70.8707 394.49 70.628C394.49 70.2547 394.611 69.9747 394.854 69.788C395.106 69.6013 395.418 69.4613 395.792 69.368V69.312C395.344 69.116 394.994 68.8267 394.742 68.444C394.499 68.0613 394.378 67.6133 394.378 67.1C394.378 66.736 394.443 66.4 394.574 66.092C394.704 65.784 394.891 65.5227 395.134 65.308C395.386 65.084 395.684 64.9113 396.03 64.79C396.375 64.6687 396.758 64.608 397.178 64.608C397.719 64.608 398.195 64.706 398.606 64.902V64.776C398.606 64.496 398.671 64.2627 398.802 64.076C398.932 63.8893 399.156 63.796 399.474 63.796H400.804V64.776H399.18V65.266C399.441 65.49 399.642 65.756 399.782 66.064C399.922 66.372 399.992 66.7173 399.992 67.1C399.992 67.464 399.922 67.8 399.782 68.108C399.651 68.416 399.464 68.682 399.222 68.906C398.979 69.1207 398.68 69.2887 398.326 69.41C397.98 69.5313 397.598 69.592 397.178 69.592C397.056 69.592 396.94 69.5873 396.828 69.578C396.716 69.5687 396.604 69.5547 396.492 69.536C396.38 69.5547 396.263 69.5873 396.142 69.634C396.02 69.6713 395.908 69.7273 395.806 69.802C395.703 69.8673 395.619 69.9467 395.554 70.04C395.488 70.1333 395.456 70.2407 395.456 70.362C395.456 70.5767 395.563 70.7213 395.778 70.796C395.992 70.8613 396.272 70.894 396.618 70.894H398.214C399.147 70.894 399.824 71.0713 400.244 71.426C400.664 71.7713 400.874 72.238 400.874 72.826ZM399.824 72.882C399.824 72.5927 399.707 72.3593 399.474 72.182C399.24 72.014 398.834 71.93 398.256 71.93H395.75C395.264 72.126 395.022 72.4527 395.022 72.91C395.022 73.2273 395.148 73.498 395.4 73.722C395.652 73.9553 396.072 74.072 396.66 74.072H397.752C398.405 74.072 398.914 73.9693 399.278 73.764C399.642 73.568 399.824 73.274 399.824 72.882ZM397.178 68.724C397.738 68.724 398.148 68.5933 398.41 68.332C398.68 68.0707 398.816 67.7253 398.816 67.296V66.89C398.816 66.4607 398.68 66.12 398.41 65.868C398.148 65.6067 397.738 65.476 397.178 65.476C396.618 65.476 396.207 65.6067 395.946 65.868C395.684 66.12 395.554 66.4607 395.554 66.89V67.296C395.554 67.7253 395.684 68.0707 395.946 68.332C396.207 68.5933 396.618 68.724 397.178 68.724ZM407.322 70.824H407.266C407.191 71.0013 407.098 71.174 406.986 71.342C406.874 71.5007 406.734 71.6407 406.566 71.762C406.407 71.8833 406.216 71.9813 405.992 72.056C405.768 72.1307 405.507 72.168 405.208 72.168C404.452 72.168 403.845 71.93 403.388 71.454C402.931 70.9687 402.702 70.2873 402.702 69.41V64.776H403.822V69.214C403.822 69.8767 403.967 70.3713 404.256 70.698C404.545 71.0153 404.97 71.174 405.53 71.174C405.754 71.174 405.973 71.146 406.188 71.09C406.403 71.034 406.594 70.95 406.762 70.838C406.93 70.726 407.065 70.586 407.168 70.418C407.271 70.2407 407.322 70.0307 407.322 69.788V64.776H408.442V72H407.322V70.824ZM414.135 72.168C413.612 72.168 413.141 72.0793 412.721 71.902C412.31 71.7247 411.955 71.4727 411.657 71.146C411.367 70.81 411.143 70.4133 410.985 69.956C410.826 69.4893 410.747 68.9713 410.747 68.402C410.747 67.8233 410.826 67.3007 410.985 66.834C411.153 66.3673 411.381 65.9707 411.671 65.644C411.96 65.308 412.305 65.0513 412.707 64.874C413.117 64.6967 413.57 64.608 414.065 64.608C414.55 64.608 414.989 64.6967 415.381 64.874C415.782 65.0513 416.123 65.2987 416.403 65.616C416.683 65.924 416.897 66.2927 417.047 66.722C417.196 67.1513 417.271 67.6227 417.271 68.136V68.668H411.923V69.004C411.923 69.3213 411.974 69.6153 412.077 69.886C412.179 70.1567 412.324 70.39 412.511 70.586C412.707 70.782 412.94 70.936 413.211 71.048C413.491 71.1507 413.799 71.202 414.135 71.202C414.62 71.202 415.04 71.09 415.395 70.866C415.749 70.642 416.02 70.334 416.207 69.942L417.033 70.502C416.818 70.9873 416.459 71.3887 415.955 71.706C415.46 72.014 414.853 72.168 414.135 72.168ZM414.065 65.532C413.757 65.532 413.472 65.588 413.211 65.7C412.949 65.812 412.721 65.966 412.525 66.162C412.338 66.358 412.189 66.5913 412.077 66.862C411.974 67.1233 411.923 67.4127 411.923 67.73V67.828H416.067V67.674C416.067 67.3567 416.015 67.0673 415.913 66.806C415.819 66.5447 415.684 66.3207 415.507 66.134C415.339 65.938 415.129 65.7887 414.877 65.686C414.634 65.5833 414.363 65.532 414.065 65.532ZM421.549 68.99V66.792C422.352 66.7547 422.982 66.582 423.439 66.274C423.896 65.9567 424.125 65.4807 424.125 64.846V64.65C424.125 64.1273 423.966 63.7353 423.649 63.474C423.341 63.2127 422.916 63.082 422.375 63.082C421.815 63.082 421.367 63.236 421.031 63.544C420.695 63.852 420.462 64.244 420.331 64.72L419.281 64.328C419.374 64.02 419.505 63.7307 419.673 63.46C419.841 63.18 420.051 62.9373 420.303 62.732C420.564 62.5267 420.868 62.3633 421.213 62.242C421.568 62.1207 421.969 62.06 422.417 62.06C422.865 62.06 423.266 62.1253 423.621 62.256C423.985 62.3773 424.293 62.5547 424.545 62.788C424.797 63.012 424.993 63.2873 425.133 63.614C425.273 63.9407 425.343 64.3047 425.343 64.706C425.343 65.1447 425.264 65.532 425.105 65.868C424.946 66.1947 424.741 66.4747 424.489 66.708C424.237 66.9413 423.948 67.1327 423.621 67.282C423.304 67.422 422.982 67.52 422.655 67.576V68.99H421.549ZM422.151 72.126C421.768 72.126 421.498 72.0467 421.339 71.888C421.19 71.7293 421.115 71.5287 421.115 71.286V71.034C421.115 70.7913 421.19 70.5907 421.339 70.432C421.498 70.2733 421.768 70.194 422.151 70.194C422.534 70.194 422.8 70.2733 422.949 70.432C423.108 70.5907 423.187 70.7913 423.187 71.034V71.286C423.187 71.5287 423.108 71.7293 422.949 71.888C422.8 72.0467 422.534 72.126 422.151 72.126Z" fill="black"/>
<rect x="64" y="44" width="22" height="22" rx="6" fill="#08B24C"/>
<path d="M73.401 60.804H72.114C71.6813 60.804 71.3623 60.683 71.157 60.441C70.959 60.199 70.86 59.8873 70.86 59.506V59.099C70.4713 59.0477 70.134 58.923 69.848 58.725C69.5693 58.5197 69.3383 58.252 69.155 57.922C68.9717 57.5847 68.836 57.185 68.748 56.723C68.66 56.2537 68.616 55.733 68.616 55.161C68.616 54.5377 68.6673 53.9803 68.77 53.489C68.8727 52.9903 69.034 52.5723 69.254 52.235C69.474 51.8977 69.7527 51.641 70.09 51.465C70.4273 51.2817 70.8307 51.19 71.3 51.19C71.7693 51.19 72.1727 51.2817 72.51 51.465C72.8473 51.641 73.126 51.8977 73.346 52.235C73.566 52.5723 73.7273 52.9903 73.83 53.489C73.9327 53.9803 73.984 54.5377 73.984 55.161C73.984 56.3123 73.8043 57.2327 73.445 57.922C73.0857 58.604 72.5173 58.9963 71.74 59.099V60.056H73.401V60.804ZM71.3 58.329C71.608 58.329 71.8683 58.2703 72.081 58.153C72.2937 58.0283 72.4697 57.856 72.609 57.636C72.7483 57.416 72.8473 57.152 72.906 56.844C72.972 56.5287 73.005 56.1767 73.005 55.788V54.534C73.005 54.1527 72.972 53.8043 72.906 53.489C72.8473 53.1737 72.7483 52.906 72.609 52.686C72.4697 52.466 72.2937 52.2973 72.081 52.18C71.8683 52.0553 71.608 51.993 71.3 51.993C70.992 51.993 70.7317 52.0553 70.519 52.18C70.3063 52.2973 70.1303 52.466 69.991 52.686C69.8517 52.906 69.749 53.1737 69.683 53.489C69.6243 53.8043 69.595 54.1527 69.595 54.534V55.788C69.595 56.1767 69.6243 56.5287 69.683 56.844C69.749 57.152 69.8517 57.416 69.991 57.636C70.1303 57.856 70.3063 58.0283 70.519 58.153C70.7317 58.2703 70.992 58.329 71.3 58.329ZM75.5307 59V58.197H77.7307V52.004H77.6537L75.7177 53.808L75.1787 53.225L77.2137 51.322H78.6547V58.197H80.6787V59H75.5307Z" fill="white"/>
<g filter="url(#filter1_d)">
<rect x="116" y="92" width="407" height="36" rx="3" fill="white"/>
</g>
<line x1="157.5" y1="92" x2="157.5" y2="128" stroke="black" stroke-opacity="0.3"/>
<line x1="197.5" y1="92" x2="197.5" y2="128" stroke="black" stroke-opacity="0.3"/>
<line x1="238.5" y1="92" x2="238.5" y2="128" stroke="black" stroke-opacity="0.3"/>
<line x1="279.5" y1="92" x2="279.5" y2="128" stroke="black" stroke-opacity="0.3"/>
<line x1="320.5" y1="92" x2="320.5" y2="128" stroke="black" stroke-opacity="0.3"/>
<line x1="360.5" y1="92" x2="360.5" y2="128" stroke="black" stroke-opacity="0.3"/>
<line x1="401.5" y1="92" x2="401.5" y2="128" stroke="black" stroke-opacity="0.3"/>
<line x1="442.5" y1="92" x2="442.5" y2="128" stroke="black" stroke-opacity="0.3"/>
<line x1="482.5" y1="92" x2="482.5" y2="128" stroke="black" stroke-opacity="0.3"/>
<path d="M135.19 115V113.978H137.99V106.096H137.892L135.428 108.392L134.742 107.65L137.332 105.228H139.166V113.978H141.742V115H135.19Z" fill="#414248"/>
<path d="M179.518 115H172.994V113.796L176.256 110.856C176.732 110.427 177.124 109.988 177.432 109.54C177.74 109.083 177.894 108.602 177.894 108.098V107.93C177.894 107.342 177.74 106.889 177.432 106.572C177.124 106.245 176.667 106.082 176.06 106.082C175.463 106.082 175.001 106.236 174.674 106.544C174.357 106.843 174.119 107.244 173.96 107.748L172.91 107.356C173.003 107.067 173.129 106.787 173.288 106.516C173.456 106.236 173.666 105.989 173.918 105.774C174.17 105.559 174.473 105.387 174.828 105.256C175.192 105.125 175.612 105.06 176.088 105.06C176.573 105.06 177.003 105.13 177.376 105.27C177.759 105.41 178.076 105.606 178.328 105.858C178.589 106.11 178.785 106.409 178.916 106.754C179.056 107.099 179.126 107.477 179.126 107.888C179.126 108.261 179.07 108.611 178.958 108.938C178.855 109.265 178.706 109.577 178.51 109.876C178.323 110.175 178.095 110.469 177.824 110.758C177.563 111.038 177.269 111.318 176.942 111.598L174.212 113.978H179.518V115Z" fill="#414248"/>
<path d="M216.78 109.372C217.461 109.372 217.97 109.223 218.306 108.924C218.651 108.616 218.824 108.224 218.824 107.748V107.65C218.824 107.127 218.656 106.735 218.32 106.474C217.993 106.213 217.564 106.082 217.032 106.082C216.509 106.082 216.085 106.199 215.758 106.432C215.441 106.656 215.179 106.955 214.974 107.328L214.092 106.656C214.213 106.46 214.363 106.269 214.54 106.082C214.717 105.886 214.923 105.713 215.156 105.564C215.399 105.415 215.674 105.293 215.982 105.2C216.299 105.107 216.659 105.06 217.06 105.06C217.48 105.06 217.872 105.116 218.236 105.228C218.6 105.331 218.917 105.489 219.188 105.704C219.459 105.909 219.669 106.166 219.818 106.474C219.977 106.782 220.056 107.132 220.056 107.524C220.056 107.841 220.005 108.126 219.902 108.378C219.809 108.63 219.673 108.849 219.496 109.036C219.328 109.223 219.127 109.381 218.894 109.512C218.661 109.643 218.413 109.741 218.152 109.806V109.862C218.423 109.918 218.684 110.011 218.936 110.142C219.188 110.263 219.412 110.427 219.608 110.632C219.804 110.828 219.958 111.071 220.07 111.36C220.191 111.64 220.252 111.962 220.252 112.326C220.252 112.746 220.168 113.133 220 113.488C219.841 113.833 219.613 114.132 219.314 114.384C219.025 114.627 218.67 114.818 218.25 114.958C217.839 115.098 217.382 115.168 216.878 115.168C216.449 115.168 216.066 115.121 215.73 115.028C215.403 114.935 215.109 114.809 214.848 114.65C214.596 114.491 214.372 114.314 214.176 114.118C213.989 113.922 213.821 113.717 213.672 113.502L214.554 112.83C214.685 113.026 214.82 113.203 214.96 113.362C215.1 113.521 215.259 113.661 215.436 113.782C215.623 113.894 215.833 113.983 216.066 114.048C216.299 114.113 216.57 114.146 216.878 114.146C217.569 114.146 218.096 113.987 218.46 113.67C218.833 113.353 219.02 112.9 219.02 112.312V112.2C219.02 111.621 218.838 111.173 218.474 110.856C218.119 110.539 217.583 110.38 216.864 110.38H215.702V109.372H216.78Z" fill="#414248"/>
<path d="M259.292 115V113.082H254.476V112.046L258.704 105.228H260.412V112.116H261.868V113.082H260.412V115H259.292ZM255.526 112.116H259.292V106.138H259.236L255.526 112.116Z" fill="#414248"/>
<path d="M302.014 106.25H297.646L297.366 109.988H297.464C297.707 109.661 297.977 109.405 298.276 109.218C298.575 109.022 298.985 108.924 299.508 108.924C299.937 108.924 300.329 108.994 300.684 109.134C301.048 109.265 301.361 109.461 301.622 109.722C301.883 109.983 302.089 110.301 302.238 110.674C302.387 111.038 302.462 111.458 302.462 111.934C302.462 112.41 302.387 112.849 302.238 113.25C302.089 113.642 301.869 113.983 301.58 114.272C301.291 114.552 300.941 114.771 300.53 114.93C300.119 115.089 299.653 115.168 299.13 115.168C298.719 115.168 298.351 115.121 298.024 115.028C297.707 114.935 297.422 114.809 297.17 114.65C296.927 114.491 296.713 114.314 296.526 114.118C296.339 113.922 296.171 113.717 296.022 113.502L296.904 112.83C297.035 113.026 297.165 113.203 297.296 113.362C297.436 113.521 297.595 113.661 297.772 113.782C297.949 113.894 298.15 113.983 298.374 114.048C298.598 114.113 298.859 114.146 299.158 114.146C299.83 114.146 300.343 113.964 300.698 113.6C301.062 113.236 301.244 112.732 301.244 112.088V111.976C301.244 111.332 301.062 110.828 300.698 110.464C300.334 110.1 299.811 109.918 299.13 109.918C298.663 109.918 298.299 109.997 298.038 110.156C297.786 110.315 297.553 110.511 297.338 110.744L296.344 110.604L296.694 105.228H302.014V106.25Z" fill="#414248"/>
<path d="M340.214 115.168C339.701 115.168 339.239 115.084 338.828 114.916C338.417 114.739 338.067 114.491 337.778 114.174C337.498 113.847 337.279 113.451 337.12 112.984C336.971 112.517 336.896 111.995 336.896 111.416C336.896 110.688 337.003 110.007 337.218 109.372C337.442 108.728 337.722 108.145 338.058 107.622C338.403 107.09 338.786 106.623 339.206 106.222C339.626 105.811 340.037 105.48 340.438 105.228H341.95C341.418 105.611 340.942 105.984 340.522 106.348C340.111 106.712 339.747 107.095 339.43 107.496C339.113 107.888 338.847 108.313 338.632 108.77C338.417 109.218 338.24 109.727 338.1 110.296L338.17 110.324C338.403 109.923 338.711 109.591 339.094 109.33C339.477 109.059 339.971 108.924 340.578 108.924C341.007 108.924 341.399 108.994 341.754 109.134C342.109 109.274 342.417 109.475 342.678 109.736C342.939 109.997 343.14 110.315 343.28 110.688C343.429 111.061 343.504 111.477 343.504 111.934C343.504 112.41 343.425 112.849 343.266 113.25C343.107 113.642 342.883 113.983 342.594 114.272C342.314 114.552 341.969 114.771 341.558 114.93C341.157 115.089 340.709 115.168 340.214 115.168ZM340.2 114.174C340.872 114.174 341.39 113.992 341.754 113.628C342.127 113.264 342.314 112.751 342.314 112.088V111.976C342.314 111.313 342.127 110.8 341.754 110.436C341.39 110.072 340.872 109.89 340.2 109.89C339.528 109.89 339.005 110.072 338.632 110.436C338.268 110.8 338.086 111.313 338.086 111.976V112.088C338.086 112.751 338.268 113.264 338.632 113.628C339.005 113.992 339.528 114.174 340.2 114.174Z" fill="#414248"/>
<path d="M379.422 115L383.244 106.236H378.96V108.056H377.91V105.228H384.434V106.264L380.682 115H379.422Z" fill="#414248"/>
<path d="M422.2 115.168C421.631 115.168 421.131 115.098 420.702 114.958C420.273 114.809 419.913 114.608 419.624 114.356C419.344 114.104 419.129 113.805 418.98 113.46C418.84 113.115 418.77 112.741 418.77 112.34C418.77 111.668 418.952 111.136 419.316 110.744C419.68 110.352 420.161 110.077 420.758 109.918V109.806C420.235 109.629 419.82 109.344 419.512 108.952C419.213 108.551 419.064 108.07 419.064 107.51C419.064 106.763 419.339 106.171 419.89 105.732C420.441 105.284 421.211 105.06 422.2 105.06C423.189 105.06 423.959 105.284 424.51 105.732C425.061 106.171 425.336 106.763 425.336 107.51C425.336 108.07 425.182 108.551 424.874 108.952C424.575 109.344 424.165 109.629 423.642 109.806V109.918C424.239 110.077 424.72 110.352 425.084 110.744C425.448 111.136 425.63 111.668 425.63 112.34C425.63 112.741 425.555 113.115 425.406 113.46C425.266 113.805 425.051 114.104 424.762 114.356C424.473 114.608 424.113 114.809 423.684 114.958C423.264 115.098 422.769 115.168 422.2 115.168ZM422.2 114.174C422.891 114.174 423.432 114.02 423.824 113.712C424.216 113.404 424.412 112.97 424.412 112.41V112.102C424.412 111.542 424.216 111.108 423.824 110.8C423.441 110.492 422.9 110.338 422.2 110.338C421.5 110.338 420.954 110.492 420.562 110.8C420.179 111.108 419.988 111.542 419.988 112.102V112.41C419.988 112.97 420.184 113.404 420.576 113.712C420.968 114.02 421.509 114.174 422.2 114.174ZM422.2 109.386C422.835 109.386 423.315 109.251 423.642 108.98C423.978 108.709 424.146 108.322 424.146 107.818V107.622C424.146 107.118 423.973 106.731 423.628 106.46C423.292 106.189 422.816 106.054 422.2 106.054C421.584 106.054 421.103 106.189 420.758 106.46C420.422 106.731 420.254 107.118 420.254 107.622V107.818C420.254 108.322 420.417 108.709 420.744 108.98C421.08 109.251 421.565 109.386 422.2 109.386Z" fill="#414248"/>
<path d="M466.504 108.812C466.504 109.54 466.392 110.226 466.168 110.87C465.953 111.505 465.673 112.088 465.328 112.62C464.983 113.143 464.6 113.609 464.18 114.02C463.769 114.421 463.363 114.748 462.962 115H461.45C461.982 114.617 462.453 114.244 462.864 113.88C463.284 113.516 463.653 113.138 463.97 112.746C464.287 112.345 464.553 111.92 464.768 111.472C464.983 111.015 465.16 110.501 465.3 109.932L465.23 109.904C464.987 110.305 464.675 110.641 464.292 110.912C463.919 111.173 463.429 111.304 462.822 111.304C462.393 111.304 461.996 111.234 461.632 111.094C461.277 110.954 460.969 110.753 460.708 110.492C460.456 110.231 460.255 109.918 460.106 109.554C459.966 109.181 459.896 108.761 459.896 108.294C459.896 107.818 459.971 107.384 460.12 106.992C460.279 106.591 460.503 106.25 460.792 105.97C461.081 105.681 461.427 105.457 461.828 105.298C462.239 105.139 462.691 105.06 463.186 105.06C463.699 105.06 464.161 105.149 464.572 105.326C464.983 105.494 465.328 105.741 465.608 106.068C465.897 106.385 466.117 106.777 466.266 107.244C466.425 107.711 466.504 108.233 466.504 108.812ZM463.2 110.338C463.872 110.338 464.39 110.156 464.754 109.792C465.127 109.428 465.314 108.915 465.314 108.252V108.14C465.314 107.477 465.127 106.964 464.754 106.6C464.39 106.236 463.872 106.054 463.2 106.054C462.528 106.054 462.005 106.236 461.632 106.6C461.268 106.964 461.086 107.477 461.086 108.14V108.252C461.086 108.915 461.268 109.428 461.632 109.792C462.005 110.156 462.528 110.338 463.2 110.338Z" fill="#414248"/>
<path d="M495.19 115V113.978H497.99V106.096H497.892L495.428 108.392L494.742 107.65L497.332 105.228H499.166V113.978H501.742V115H495.19ZM506.595 115.168C505.997 115.168 505.484 115.056 505.055 114.832C504.625 114.599 504.271 114.267 503.991 113.838C503.711 113.409 503.505 112.881 503.375 112.256C503.244 111.631 503.179 110.917 503.179 110.114C503.179 109.321 503.244 108.611 503.375 107.986C503.505 107.351 503.711 106.819 503.991 106.39C504.271 105.961 504.625 105.634 505.055 105.41C505.484 105.177 505.997 105.06 506.595 105.06C507.192 105.06 507.705 105.177 508.135 105.41C508.564 105.634 508.919 105.961 509.199 106.39C509.479 106.819 509.684 107.351 509.815 107.986C509.945 108.611 510.011 109.321 510.011 110.114C510.011 110.917 509.945 111.631 509.815 112.256C509.684 112.881 509.479 113.409 509.199 113.838C508.919 114.267 508.564 114.599 508.135 114.832C507.705 115.056 507.192 115.168 506.595 115.168ZM506.595 114.146C506.987 114.146 507.323 114.071 507.603 113.922C507.883 113.763 508.107 113.544 508.275 113.264C508.452 112.984 508.583 112.648 508.667 112.256C508.751 111.855 508.793 111.407 508.793 110.912V109.316C508.793 108.831 508.751 108.387 508.667 107.986C508.583 107.585 508.452 107.244 508.275 106.964C508.107 106.684 507.883 106.469 507.603 106.32C507.323 106.161 506.987 106.082 506.595 106.082C506.203 106.082 505.867 106.161 505.587 106.32C505.307 106.469 505.078 106.684 504.901 106.964C504.733 107.244 504.607 107.585 504.523 107.986C504.439 108.387 504.397 108.831 504.397 109.316V110.912C504.397 111.407 504.439 111.855 504.523 112.256C504.607 112.648 504.733 112.984 504.901 113.264C505.078 113.544 505.307 113.763 505.587 113.922C505.867 114.071 506.203 114.146 506.595 114.146ZM506.595 110.94C506.268 110.94 506.039 110.875 505.909 110.744C505.787 110.613 505.727 110.455 505.727 110.268V109.96C505.727 109.773 505.787 109.615 505.909 109.484C506.039 109.353 506.268 109.288 506.595 109.288C506.921 109.288 507.145 109.353 507.267 109.484C507.397 109.615 507.463 109.773 507.463 109.96V110.268C507.463 110.455 507.397 110.613 507.267 110.744C507.145 110.875 506.921 110.94 506.595 110.94Z" fill="#414248"/>
<path d="M117.956 147.908H117.872V155H116.96V146.624H118.388L121.244 153.644H121.328V146.624H122.24V155H120.812L117.956 147.908ZM126.795 155.144C126.363 155.144 125.971 155.068 125.619 154.916C125.275 154.764 124.979 154.548 124.731 154.268C124.491 153.98 124.307 153.64 124.179 153.248C124.051 152.848 123.987 152.4 123.987 151.904C123.987 151.416 124.051 150.972 124.179 150.572C124.307 150.172 124.491 149.832 124.731 149.552C124.979 149.264 125.275 149.044 125.619 148.892C125.971 148.74 126.363 148.664 126.795 148.664C127.227 148.664 127.615 148.74 127.959 148.892C128.311 149.044 128.607 149.264 128.847 149.552C129.095 149.832 129.283 150.172 129.411 150.572C129.539 150.972 129.603 151.416 129.603 151.904C129.603 152.4 129.539 152.848 129.411 153.248C129.283 153.64 129.095 153.98 128.847 154.268C128.607 154.548 128.311 154.764 127.959 154.916C127.615 155.068 127.227 155.144 126.795 155.144ZM126.795 154.316C127.331 154.316 127.763 154.156 128.091 153.836C128.419 153.516 128.583 153.02 128.583 152.348V151.46C128.583 150.788 128.419 150.292 128.091 149.972C127.763 149.652 127.331 149.492 126.795 149.492C126.259 149.492 125.827 149.652 125.499 149.972C125.171 150.292 125.007 150.788 125.007 151.46V152.348C125.007 153.02 125.171 153.516 125.499 153.836C125.827 154.156 126.259 154.316 126.795 154.316ZM134.291 155C133.819 155 133.471 154.868 133.247 154.604C133.031 154.34 132.923 154 132.923 153.584V149.624H130.859V148.808H132.395C132.603 148.808 132.747 148.768 132.827 148.688C132.915 148.6 132.959 148.452 132.959 148.244V146.624H133.883V148.808H136.703V149.624H133.883V154.184H136.703V155H134.291ZM150.721 155C150.345 155 150.077 154.904 149.917 154.712C149.757 154.52 149.657 154.28 149.617 153.992H149.557C149.421 154.352 149.201 154.636 148.897 154.844C148.601 155.044 148.201 155.144 147.697 155.144C147.049 155.144 146.533 154.976 146.149 154.64C145.765 154.304 145.573 153.844 145.573 153.26C145.573 152.684 145.781 152.24 146.197 151.928C146.621 151.616 147.301 151.46 148.237 151.46H149.557V150.848C149.557 150.392 149.429 150.052 149.173 149.828C148.917 149.596 148.553 149.48 148.081 149.48C147.665 149.48 147.325 149.564 147.061 149.732C146.797 149.892 146.585 150.112 146.425 150.392L145.777 149.912C145.857 149.752 145.965 149.596 146.101 149.444C146.237 149.292 146.405 149.16 146.605 149.048C146.805 148.928 147.033 148.836 147.289 148.772C147.545 148.7 147.829 148.664 148.141 148.664C148.869 148.664 149.445 148.848 149.869 149.216C150.301 149.584 150.517 150.096 150.517 150.752V154.16H151.381V155H150.721ZM147.865 154.34C148.113 154.34 148.337 154.312 148.537 154.256C148.745 154.192 148.925 154.112 149.077 154.016C149.229 153.912 149.345 153.792 149.425 153.656C149.513 153.512 149.557 153.36 149.557 153.2V152.18H148.237C147.661 152.18 147.241 152.26 146.977 152.42C146.713 152.58 146.581 152.812 146.581 153.116V153.368C146.581 153.688 146.693 153.932 146.917 154.1C147.149 154.26 147.465 154.34 147.865 154.34ZM155.877 155C155.405 155 155.057 154.868 154.833 154.604C154.617 154.34 154.509 154 154.509 153.584V149.624H152.445V148.808H153.981C154.189 148.808 154.333 148.768 154.413 148.688C154.501 148.6 154.545 148.452 154.545 148.244V146.624H155.469V148.808H158.289V149.624H155.469V154.184H158.289V155H155.877ZM172.307 155C171.931 155 171.663 154.904 171.503 154.712C171.343 154.52 171.243 154.28 171.203 153.992H171.143C171.007 154.352 170.787 154.636 170.483 154.844C170.187 155.044 169.787 155.144 169.283 155.144C168.635 155.144 168.119 154.976 167.735 154.64C167.351 154.304 167.159 153.844 167.159 153.26C167.159 152.684 167.367 152.24 167.783 151.928C168.207 151.616 168.887 151.46 169.823 151.46H171.143V150.848C171.143 150.392 171.015 150.052 170.759 149.828C170.503 149.596 170.139 149.48 169.667 149.48C169.251 149.48 168.911 149.564 168.647 149.732C168.383 149.892 168.171 150.112 168.011 150.392L167.363 149.912C167.443 149.752 167.551 149.596 167.687 149.444C167.823 149.292 167.991 149.16 168.191 149.048C168.391 148.928 168.619 148.836 168.875 148.772C169.131 148.7 169.415 148.664 169.727 148.664C170.455 148.664 171.031 148.848 171.455 149.216C171.887 149.584 172.103 150.096 172.103 150.752V154.16H172.967V155H172.307ZM169.451 154.34C169.699 154.34 169.923 154.312 170.123 154.256C170.331 154.192 170.511 154.112 170.663 154.016C170.815 153.912 170.931 153.792 171.011 153.656C171.099 153.512 171.143 153.36 171.143 153.2V152.18H169.823C169.247 152.18 168.827 152.26 168.563 152.42C168.299 152.58 168.167 152.812 168.167 153.116V153.368C168.167 153.688 168.279 153.932 168.503 154.1C168.735 154.26 169.051 154.34 169.451 154.34ZM174.523 154.184H176.683V146.936H174.523V146.12H177.643V154.184H179.803V155H174.523V154.184ZM181.718 154.184H183.878V146.936H181.718V146.12H184.838V154.184H186.998V155H181.718V154.184ZM196.588 155V146.624H197.596V154.124H201.568V155H196.588ZM206.328 147.44C206.048 147.44 205.852 147.384 205.74 147.272C205.628 147.152 205.572 147.004 205.572 146.828V146.636C205.572 146.46 205.628 146.316 205.74 146.204C205.852 146.084 206.048 146.024 206.328 146.024C206.608 146.024 206.804 146.084 206.916 146.204C207.028 146.316 207.084 146.46 207.084 146.636V146.828C207.084 147.004 207.028 147.152 206.916 147.272C206.804 147.384 206.608 147.44 206.328 147.44ZM203.616 154.184H205.848V149.624H203.616V148.808H206.808V154.184H208.896V155H203.616V154.184ZM210.799 146.12H211.759V151.724H211.807L212.887 150.704L214.951 148.808H216.127L213.559 151.232L216.427 155H215.239L212.827 151.784L211.759 152.756V155H210.799V146.12ZM220.442 155.144C219.994 155.144 219.59 155.068 219.23 154.916C218.878 154.764 218.574 154.548 218.318 154.268C218.07 153.98 217.878 153.64 217.742 153.248C217.606 152.848 217.538 152.404 217.538 151.916C217.538 151.42 217.606 150.972 217.742 150.572C217.886 150.172 218.082 149.832 218.33 149.552C218.578 149.264 218.874 149.044 219.218 148.892C219.57 148.74 219.958 148.664 220.382 148.664C220.798 148.664 221.174 148.74 221.51 148.892C221.854 149.044 222.146 149.256 222.386 149.528C222.626 149.792 222.81 150.108 222.938 150.476C223.066 150.844 223.13 151.248 223.13 151.688V152.144H218.546V152.432C218.546 152.704 218.59 152.956 218.678 153.188C218.766 153.42 218.89 153.62 219.05 153.788C219.218 153.956 219.418 154.088 219.65 154.184C219.89 154.272 220.154 154.316 220.442 154.316C220.858 154.316 221.218 154.22 221.522 154.028C221.826 153.836 222.058 153.572 222.218 153.236L222.926 153.716C222.742 154.132 222.434 154.476 222.002 154.748C221.578 155.012 221.058 155.144 220.442 155.144ZM220.382 149.456C220.118 149.456 219.874 149.504 219.65 149.6C219.426 149.696 219.23 149.828 219.062 149.996C218.902 150.164 218.774 150.364 218.678 150.596C218.59 150.82 218.546 151.068 218.546 151.34V151.424H222.098V151.292C222.098 151.02 222.054 150.772 221.966 150.548C221.886 150.324 221.77 150.132 221.618 149.972C221.474 149.804 221.294 149.676 221.078 149.588C220.87 149.5 220.638 149.456 220.382 149.456ZM224.89 154.184H227.05V146.936H224.89V146.12H228.01V154.184H230.17V155H224.89V154.184ZM236.729 148.808H237.689L234.617 156.356C234.545 156.532 234.465 156.684 234.377 156.812C234.289 156.948 234.185 157.056 234.065 157.136C233.945 157.224 233.801 157.288 233.633 157.328C233.465 157.376 233.265 157.4 233.033 157.4H232.121V156.584H233.561L234.257 154.88L231.761 148.808H232.745L233.789 151.4L234.713 153.752H234.761L235.685 151.4L236.729 148.808Z" fill="black"/>
<path d="M408.08 155V146.624H413.24V147.5H409.088V150.32H413.096V151.196H409.088V154.124H413.24V155H408.08ZM414.927 155L417.231 151.856L414.987 148.808H416.139L417.075 150.116L417.819 151.148H417.867L418.587 150.116L419.511 148.808H420.615L418.347 151.844L420.675 155H419.523L418.479 153.548L417.771 152.564H417.723L417.039 153.548L416.031 155H414.927ZM425.291 155C424.819 155 424.471 154.868 424.247 154.604C424.031 154.34 423.923 154 423.923 153.584V149.624H421.859V148.808H423.395C423.603 148.808 423.747 148.768 423.827 148.688C423.915 148.6 423.959 148.452 423.959 148.244V146.624H424.883V148.808H427.703V149.624H424.883V154.184H427.703V155H425.291ZM429.51 154.184H431.322V149.624H429.51V148.808H432.282V150.368H432.342C432.47 149.88 432.71 149.5 433.062 149.228C433.422 148.948 433.878 148.808 434.43 148.808H435.294V149.768H434.13C433.578 149.768 433.13 149.928 432.786 150.248C432.45 150.568 432.282 150.988 432.282 151.508V154.184H434.682V155H429.51V154.184ZM439.489 155.144C439.041 155.144 438.637 155.068 438.277 154.916C437.925 154.764 437.621 154.548 437.365 154.268C437.117 153.98 436.925 153.64 436.789 153.248C436.653 152.848 436.585 152.404 436.585 151.916C436.585 151.42 436.653 150.972 436.789 150.572C436.933 150.172 437.129 149.832 437.377 149.552C437.625 149.264 437.921 149.044 438.265 148.892C438.617 148.74 439.005 148.664 439.429 148.664C439.845 148.664 440.221 148.74 440.557 148.892C440.901 149.044 441.193 149.256 441.433 149.528C441.673 149.792 441.857 150.108 441.985 150.476C442.113 150.844 442.177 151.248 442.177 151.688V152.144H437.593V152.432C437.593 152.704 437.637 152.956 437.725 153.188C437.813 153.42 437.937 153.62 438.097 153.788C438.265 153.956 438.465 154.088 438.697 154.184C438.937 154.272 439.201 154.316 439.489 154.316C439.905 154.316 440.265 154.22 440.569 154.028C440.873 153.836 441.105 153.572 441.265 153.236L441.973 153.716C441.789 154.132 441.481 154.476 441.049 154.748C440.625 155.012 440.105 155.144 439.489 155.144ZM439.429 149.456C439.165 149.456 438.921 149.504 438.697 149.6C438.473 149.696 438.277 149.828 438.109 149.996C437.949 150.164 437.821 150.364 437.725 150.596C437.637 150.82 437.593 151.068 437.593 151.34V151.424H441.145V151.292C441.145 151.02 441.101 150.772 441.013 150.548C440.933 150.324 440.817 150.132 440.665 149.972C440.521 149.804 440.341 149.676 440.125 149.588C439.917 149.5 439.685 149.456 439.429 149.456ZM443.625 155V148.808H444.513V149.528H444.561C444.657 149.288 444.793 149.084 444.969 148.916C445.145 148.748 445.405 148.664 445.749 148.664C446.109 148.664 446.377 148.756 446.553 148.94C446.729 149.116 446.837 149.348 446.877 149.636H446.913C447.025 149.356 447.185 149.124 447.393 148.94C447.601 148.756 447.889 148.664 448.257 148.664C448.761 148.664 449.097 148.84 449.265 149.192C449.441 149.544 449.529 150.048 449.529 150.704V155H448.641V150.86C448.641 150.332 448.585 149.968 448.473 149.768C448.369 149.56 448.173 149.456 447.885 149.456C447.629 149.456 447.421 149.54 447.261 149.708C447.101 149.868 447.021 150.116 447.021 150.452V155H446.133V150.86C446.133 150.332 446.077 149.968 445.965 149.768C445.861 149.56 445.669 149.456 445.389 149.456C445.133 149.456 444.921 149.54 444.753 149.708C444.593 149.868 444.513 150.116 444.513 150.452V155H443.625ZM453.88 155.144C453.432 155.144 453.028 155.068 452.668 154.916C452.316 154.764 452.012 154.548 451.756 154.268C451.508 153.98 451.316 153.64 451.18 153.248C451.044 152.848 450.976 152.404 450.976 151.916C450.976 151.42 451.044 150.972 451.18 150.572C451.324 150.172 451.52 149.832 451.768 149.552C452.016 149.264 452.312 149.044 452.656 148.892C453.008 148.74 453.396 148.664 453.82 148.664C454.236 148.664 454.612 148.74 454.948 148.892C455.292 149.044 455.584 149.256 455.824 149.528C456.064 149.792 456.248 150.108 456.376 150.476C456.504 150.844 456.568 151.248 456.568 151.688V152.144H451.984V152.432C451.984 152.704 452.028 152.956 452.116 153.188C452.204 153.42 452.328 153.62 452.488 153.788C452.656 153.956 452.856 154.088 453.088 154.184C453.328 154.272 453.592 154.316 453.88 154.316C454.296 154.316 454.656 154.22 454.96 154.028C455.264 153.836 455.496 153.572 455.656 153.236L456.364 153.716C456.18 154.132 455.872 154.476 455.44 154.748C455.016 155.012 454.496 155.144 453.88 155.144ZM453.82 149.456C453.556 149.456 453.312 149.504 453.088 149.6C452.864 149.696 452.668 149.828 452.5 149.996C452.34 150.164 452.212 150.364 452.116 150.596C452.028 150.82 451.984 151.068 451.984 151.34V151.424H455.536V151.292C455.536 151.02 455.492 150.772 455.404 150.548C455.324 150.324 455.208 150.132 455.056 149.972C454.912 149.804 454.732 149.676 454.516 149.588C454.308 149.5 454.076 149.456 453.82 149.456ZM458.327 154.184H460.487V146.936H458.327V146.12H461.447V154.184H463.607V155H458.327V154.184ZM470.167 148.808H471.127L468.055 156.356C467.983 156.532 467.903 156.684 467.815 156.812C467.727 156.948 467.623 157.056 467.503 157.136C467.383 157.224 467.239 157.288 467.071 157.328C466.903 157.376 466.703 157.4 466.471 157.4H465.559V156.584H466.999L467.695 154.88L465.199 148.808H466.183L467.227 151.4L468.151 153.752H468.199L469.123 151.4L470.167 148.808ZM480.393 155V146.624H481.401V154.124H485.373V155H480.393ZM490.132 147.44C489.852 147.44 489.656 147.384 489.544 147.272C489.432 147.152 489.376 147.004 489.376 146.828V146.636C489.376 146.46 489.432 146.316 489.544 146.204C489.656 146.084 489.852 146.024 490.132 146.024C490.412 146.024 490.608 146.084 490.72 146.204C490.832 146.316 490.888 146.46 490.888 146.636V146.828C490.888 147.004 490.832 147.152 490.72 147.272C490.608 147.384 490.412 147.44 490.132 147.44ZM487.42 154.184H489.652V149.624H487.42V148.808H490.612V154.184H492.7V155H487.42V154.184ZM494.604 146.12H495.564V151.724H495.612L496.692 150.704L498.756 148.808H499.932L497.364 151.232L500.232 155H499.044L496.632 151.784L495.564 152.756V155H494.604V146.12ZM504.247 155.144C503.799 155.144 503.395 155.068 503.035 154.916C502.683 154.764 502.379 154.548 502.123 154.268C501.875 153.98 501.683 153.64 501.547 153.248C501.411 152.848 501.343 152.404 501.343 151.916C501.343 151.42 501.411 150.972 501.547 150.572C501.691 150.172 501.887 149.832 502.135 149.552C502.383 149.264 502.679 149.044 503.023 148.892C503.375 148.74 503.763 148.664 504.187 148.664C504.603 148.664 504.979 148.74 505.315 148.892C505.659 149.044 505.951 149.256 506.191 149.528C506.431 149.792 506.615 150.108 506.743 150.476C506.871 150.844 506.935 151.248 506.935 151.688V152.144H502.351V152.432C502.351 152.704 502.395 152.956 502.483 153.188C502.571 153.42 502.695 153.62 502.855 153.788C503.023 153.956 503.223 154.088 503.455 154.184C503.695 154.272 503.959 154.316 504.247 154.316C504.663 154.316 505.023 154.22 505.327 154.028C505.631 153.836 505.863 153.572 506.023 153.236L506.731 153.716C506.547 154.132 506.239 154.476 505.807 154.748C505.383 155.012 504.863 155.144 504.247 155.144ZM504.187 149.456C503.923 149.456 503.679 149.504 503.455 149.6C503.231 149.696 503.035 149.828 502.867 149.996C502.707 150.164 502.579 150.364 502.483 150.596C502.395 150.82 502.351 151.068 502.351 151.34V151.424H505.903V151.292C505.903 151.02 505.859 150.772 505.771 150.548C505.691 150.324 505.575 150.132 505.423 149.972C505.279 149.804 505.099 149.676 504.883 149.588C504.675 149.5 504.443 149.456 504.187 149.456ZM508.694 154.184H510.854V146.936H508.694V146.12H511.814V154.184H513.974V155H508.694V154.184ZM520.534 148.808H521.494L518.422 156.356C518.35 156.532 518.27 156.684 518.182 156.812C518.094 156.948 517.99 157.056 517.87 157.136C517.75 157.224 517.606 157.288 517.438 157.328C517.27 157.376 517.07 157.4 516.838 157.4H515.926V156.584H517.366L518.062 154.88L515.566 148.808H516.55L517.594 151.4L518.518 153.752H518.566L519.49 151.4L520.534 148.808Z" fill="black"/>
<defs>
<filter id="filter0_dd" x="0" y="0" width="553" height="195" filterUnits="userSpaceOnUse" color-interpolation-filters="sRGB">
<feFlood flood-opacity="0" result="BackgroundImageFix"/>
<feColorMatrix in="SourceAlpha" type="matrix" values="0 0 0 0 0 0 0 0 0 0 0 0 0 0 0 0 0 0 127 0" result="hardAlpha"/>
<feMorphology radius="1" operator="dilate" in="SourceAlpha" result="effect1_dropShadow"/>
<feOffset dy="1"/>
<feGaussianBlur stdDeviation="1.5"/>
<feComposite in2="hardAlpha" operator="out"/>
<feColorMatrix type="matrix" values="0 0 0 0 0.235294 0 0 0 0 0.25098 0 0 0 0 0.262745 0 0 0 0.15 0"/>
<feBlend mode="normal" in2="BackgroundImageFix" result="effect1_dropShadow"/>
<feColorMatrix in="SourceAlpha" type="matrix" values="0 0 0 0 0 0 0 0 0 0 0 0 0 0 0 0 0 0 127 0" result="hardAlpha"/>
<feOffset dy="1"/>
<feGaussianBlur stdDeviation="1"/>
<feComposite in2="hardAlpha" operator="out"/>
<feColorMatrix type="matrix" values="0 0 0 0 0 0 0 0 0 0 0 0 0 0 0 0 0 0 0.25 0"/>
<feBlend mode="normal" in2="effect1_dropShadow" result="effect2_dropShadow"/>
<feBlend mode="normal" in="SourceGraphic" in2="effect2_dropShadow" result="shape"/>
</filter>
<filter id="filter1_d" x="114" y="91" width="411" height="40" filterUnits="userSpaceOnUse" color-interpolation-filters="sRGB">
<feFlood flood-opacity="0" result="BackgroundImageFix"/>
<feColorMatrix in="SourceAlpha" type="matrix" values="0 0 0 0 0 0 0 0 0 0 0 0 0 0 0 0 0 0 127 0" result="hardAlpha"/>
<feOffset dy="1"/>
<feGaussianBlur stdDeviation="1"/>
<feComposite in2="hardAlpha" operator="out"/>
<feColorMatrix type="matrix" values="0 0 0 0 0 0 0 0 0 0 0 0 0 0 0 0 0 0 0.25 0"/>
<feBlend mode="normal" in2="BackgroundImageFix" result="effect1_dropShadow"/>
<feBlend mode="normal" in="SourceGraphic" in2="effect1_dropShadow" result="shape"/>
</filter>
</defs>
</svg>
