<svg width="596" height="260" viewBox="0 0 596 260" fill="none" xmlns="http://www.w3.org/2000/svg">
<g clip-path="url(#clip0_4895_182)">
<path d="M459.211 204.258L459.211 86.7513" stroke="#21374D" stroke-width="2" stroke-linecap="round" stroke-linejoin="round" stroke-dasharray="3 6"/>
<path d="M477.827 204.258L477.827 97.7019" stroke="#21374D" stroke-width="2" stroke-linecap="round" stroke-linejoin="round" stroke-dasharray="3 6"/>
<path d="M509.834 204.258L509.834 153.161" stroke="#21374D" stroke-width="2" stroke-linecap="round" stroke-linejoin="round" stroke-dasharray="3 6"/>
<path d="M412.366 86.5609V204.258H596" stroke="#21374D" stroke-width="2" stroke-linecap="round" stroke-linejoin="round"/>
<path d="M414.343 204.005C423.432 204.005 424.297 86.5609 460.222 86.5609C496.146 86.5609 500.738 204.258 591.424 204.005" stroke="#1ABC9C" stroke-width="2" stroke-linecap="round" stroke-linejoin="round"/>
<path d="M525.156 153.78H523.828V144.996L520.196 153.78H519.652L516.036 144.996V153.78H514.708V143.108H516.612L519.924 151.14L523.252 143.108H525.156V153.78ZM531.085 153.972C528.797 153.972 527.149 152.324 527.149 149.908C527.149 147.668 528.749 145.86 530.957 145.86C533.293 145.86 534.669 147.684 534.669 150.004V150.308H528.413C528.509 151.764 529.533 152.98 531.197 152.98C532.077 152.98 532.973 152.628 533.581 152.004L534.157 152.788C533.389 153.556 532.349 153.972 531.085 153.972ZM533.485 149.428C533.469 148.276 532.701 146.852 530.941 146.852C529.293 146.852 528.477 148.244 528.413 149.428H533.485ZM542.645 153.78H541.445V152.9C540.805 153.604 539.925 153.972 538.885 153.972C537.573 153.972 536.181 153.092 536.181 151.412C536.181 149.684 537.573 148.868 538.885 148.868C539.941 148.868 540.821 149.204 541.445 149.924V148.532C541.445 147.492 540.613 146.9 539.493 146.9C538.565 146.9 537.813 147.236 537.125 147.972L536.565 147.14C537.397 146.276 538.389 145.86 539.653 145.86C541.285 145.86 542.645 146.596 542.645 148.468V153.78ZM539.317 153.108C540.165 153.108 540.981 152.788 541.445 152.148V150.692C540.981 150.052 540.165 149.732 539.317 149.732C538.197 149.732 537.413 150.436 537.413 151.428C537.413 152.404 538.197 153.108 539.317 153.108ZM551.467 153.78H550.267V148.724C550.267 147.364 549.579 146.932 548.539 146.932C547.595 146.932 546.699 147.508 546.251 148.132V153.78H545.051V146.052H546.251V147.172C546.795 146.532 547.851 145.86 549.003 145.86C550.619 145.86 551.467 146.676 551.467 148.356V153.78Z" fill="#21374D"/>
<path d="M449.567 81.4894H448.239V72.7054L444.607 81.4894H444.063L440.447 72.7054V81.4894H439.119V70.8174H441.023L444.335 78.8494L447.663 70.8174H449.567V81.4894ZM455.385 81.6814C453.033 81.6814 451.561 79.8574 451.561 77.6174C451.561 75.3774 453.033 73.5694 455.385 73.5694C457.737 73.5694 459.209 75.3774 459.209 77.6174C459.209 79.8574 457.737 81.6814 455.385 81.6814ZM455.385 80.6094C457.033 80.6094 457.945 79.2014 457.945 77.6174C457.945 76.0494 457.033 74.6414 455.385 74.6414C453.737 74.6414 452.809 76.0494 452.809 77.6174C452.809 79.2014 453.737 80.6094 455.385 80.6094ZM467.965 81.4894H466.765V80.3374C466.189 81.1214 465.245 81.6814 464.157 81.6814C462.141 81.6814 460.717 80.1454 460.717 77.6334C460.717 75.1694 462.125 73.5694 464.157 73.5694C465.197 73.5694 466.141 74.0814 466.765 74.9294V70.8174H467.965V81.4894ZM464.445 80.6094C465.405 80.6094 466.333 80.0654 466.765 79.3934V75.8894C466.333 75.2174 465.405 74.6414 464.445 74.6414C462.893 74.6414 461.965 75.9214 461.965 77.6334C461.965 79.3454 462.893 80.6094 464.445 80.6094ZM473.856 81.6814C471.568 81.6814 469.92 80.0334 469.92 77.6174C469.92 75.3774 471.52 73.5694 473.728 73.5694C476.064 73.5694 477.44 75.3934 477.44 77.7134V78.0174H471.184C471.28 79.4734 472.304 80.6894 473.968 80.6894C474.848 80.6894 475.744 80.3374 476.352 79.7134L476.928 80.4974C476.16 81.2654 475.12 81.6814 473.856 81.6814ZM476.256 77.1374C476.24 75.9854 475.472 74.5614 473.712 74.5614C472.064 74.5614 471.248 75.9534 471.184 77.1374H476.256Z" fill="#21374D"/>
<path d="M444.415 28.8804H443.087V18.2084H447.375C449.519 18.2084 450.719 19.6804 450.719 21.4244C450.719 23.1684 449.487 24.6404 447.375 24.6404H444.415V28.8804ZM447.215 23.4564C448.479 23.4564 449.343 22.6244 449.343 21.4244C449.343 20.2244 448.479 19.3924 447.215 19.3924H444.415V23.4564H447.215ZM455.603 29.0724C453.251 29.0724 451.779 27.2484 451.779 25.0084C451.779 22.7684 453.251 20.9604 455.603 20.9604C457.955 20.9604 459.427 22.7684 459.427 25.0084C459.427 27.2484 457.955 29.0724 455.603 29.0724ZM455.603 28.0004C457.251 28.0004 458.163 26.5924 458.163 25.0084C458.163 23.4404 457.251 22.0324 455.603 22.0324C453.955 22.0324 453.027 23.4404 453.027 25.0084C453.027 26.5924 453.955 28.0004 455.603 28.0004ZM463.831 29.0724C462.567 29.0724 461.495 28.6884 460.711 27.8564L461.335 26.9924C461.847 27.5844 462.823 28.0964 463.879 28.0964C465.063 28.0964 465.703 27.5364 465.703 26.7684C465.703 24.8964 460.919 26.0484 460.919 23.1844C460.919 21.9844 461.959 20.9604 463.799 20.9604C465.111 20.9604 466.039 21.4564 466.663 22.0804L466.103 22.9124C465.639 22.3524 464.791 21.9364 463.799 21.9364C462.743 21.9364 462.087 22.4644 462.087 23.1524C462.087 24.8484 466.871 23.7284 466.871 26.7364C466.871 28.0324 465.831 29.0724 463.831 29.0724ZM469.412 20.0484C468.98 20.0484 468.612 19.6964 468.612 19.2484C468.612 18.8004 468.98 18.4324 469.412 18.4324C469.86 18.4324 470.228 18.8004 470.228 19.2484C470.228 19.6964 469.86 20.0484 469.412 20.0484ZM470.02 28.8804H468.82V21.1524H470.02V28.8804ZM474.366 29.0724C473.23 29.0724 472.654 28.4164 472.654 27.2644V22.2084H471.374V21.1524H472.654V19.0404H473.854V21.1524H475.422V22.2084H473.854V27.0084C473.854 27.5844 474.11 28.0004 474.638 28.0004C474.974 28.0004 475.294 27.8564 475.454 27.6804L475.806 28.5764C475.502 28.8644 475.07 29.0724 474.366 29.0724ZM477.709 20.0484C477.277 20.0484 476.909 19.6964 476.909 19.2484C476.909 18.8004 477.277 18.4324 477.709 18.4324C478.157 18.4324 478.525 18.8004 478.525 19.2484C478.525 19.6964 478.157 20.0484 477.709 20.0484ZM478.317 28.8804H477.117V21.1524H478.317V28.8804ZM484.087 28.8804H482.775L479.559 21.1524H480.855L483.431 27.4884L485.991 21.1524H487.303L484.087 28.8804ZM492.043 29.0724C489.755 29.0724 488.107 27.4244 488.107 25.0084C488.107 22.7684 489.707 20.9604 491.915 20.9604C494.251 20.9604 495.627 22.7844 495.627 25.1044V25.4084H489.371C489.467 26.8644 490.491 28.0804 492.155 28.0804C493.035 28.0804 493.931 27.7284 494.539 27.1044L495.115 27.8884C494.347 28.6564 493.307 29.0724 492.043 29.0724ZM494.443 24.5284C494.427 23.3764 493.659 21.9524 491.899 21.9524C490.251 21.9524 489.435 23.3444 489.371 24.5284H494.443ZM498.77 28.8804H497.57V18.2084H498.77V28.8804ZM500.732 31.9044L500.924 30.8164C501.1 30.8964 501.388 30.9444 501.58 30.9444C502.108 30.9444 502.46 30.7684 502.732 30.1284L503.244 28.9604L500.012 21.1524H501.308L503.884 27.4884L506.444 21.1524H507.756L503.884 30.4484C503.42 31.5684 502.636 32.0004 501.612 32.0164C501.356 32.0164 500.956 31.9684 500.732 31.9044ZM515.581 29.0724C514.317 29.0724 513.245 28.6884 512.461 27.8564L513.085 26.9924C513.597 27.5844 514.573 28.0964 515.629 28.0964C516.813 28.0964 517.453 27.5364 517.453 26.7684C517.453 24.8964 512.669 26.0484 512.669 23.1844C512.669 21.9844 513.709 20.9604 515.549 20.9604C516.861 20.9604 517.789 21.4564 518.413 22.0804L517.853 22.9124C517.389 22.3524 516.541 21.9364 515.549 21.9364C514.493 21.9364 513.837 22.4644 513.837 23.1524C513.837 24.8484 518.621 23.7284 518.621 26.7364C518.621 28.0324 517.581 29.0724 515.581 29.0724ZM527.37 28.8804H525.834L523.05 25.4084L521.77 26.6724V28.8804H520.57V18.2084H521.77V25.2644L525.834 21.1524H527.354L523.93 24.6564L527.37 28.8804ZM532.23 29.0724C529.942 29.0724 528.294 27.4244 528.294 25.0084C528.294 22.7684 529.894 20.9604 532.102 20.9604C534.438 20.9604 535.814 22.7844 535.814 25.1044V25.4084H529.558C529.654 26.8644 530.678 28.0804 532.342 28.0804C533.222 28.0804 534.118 27.7284 534.726 27.1044L535.302 27.8884C534.534 28.6564 533.494 29.0724 532.23 29.0724ZM534.63 24.5284C534.614 23.3764 533.846 21.9524 532.086 21.9524C530.438 21.9524 529.622 23.3444 529.558 24.5284H534.63ZM545.646 28.8804H544.446L542.43 22.6724L540.414 28.8804H539.214L536.75 21.1524H537.998L539.886 27.3124L541.918 21.1524H542.942L544.974 27.3124L546.862 21.1524H548.11L545.646 28.8804ZM552.996 29.0724C550.708 29.0724 549.06 27.4244 549.06 25.0084C549.06 22.7684 550.66 20.9604 552.868 20.9604C555.204 20.9604 556.58 22.7844 556.58 25.1044V25.4084H550.324C550.42 26.8644 551.444 28.0804 553.108 28.0804C553.988 28.0804 554.884 27.7284 555.492 27.1044L556.068 27.8884C555.3 28.6564 554.26 29.0724 552.996 29.0724ZM555.396 24.5284C555.38 23.3764 554.612 21.9524 552.852 21.9524C551.204 21.9524 550.388 23.3444 550.324 24.5284H555.396ZM565.323 28.8804H564.123V27.7284C563.547 28.5124 562.603 29.0724 561.515 29.0724C559.499 29.0724 558.075 27.5364 558.075 25.0244C558.075 22.5604 559.483 20.9604 561.515 20.9604C562.555 20.9604 563.499 21.4724 564.123 22.3204V18.2084H565.323V28.8804ZM561.803 28.0004C562.763 28.0004 563.691 27.4564 564.123 26.7844V23.2804C563.691 22.6084 562.763 22.0324 561.803 22.0324C560.251 22.0324 559.323 23.3124 559.323 25.0244C559.323 26.7364 560.251 28.0004 561.803 28.0004ZM456.511 47.5044L455.791 48.0644C454.351 46.0964 453.535 43.5684 453.535 40.9924C453.535 38.4164 454.351 35.9044 455.791 33.9204L456.511 34.4644C455.487 36.4964 454.847 38.3204 454.847 40.9924C454.847 43.6484 455.487 45.4884 456.511 47.5044ZM465.792 44.8804H464.224L461.504 40.6404H459.376V44.8804H458.048V34.2084H462.336C464.288 34.2084 465.68 35.4564 465.68 37.4244C465.68 39.3444 464.368 40.4004 462.912 40.5284L465.792 44.8804ZM462.176 39.4724C463.44 39.4724 464.304 38.6244 464.304 37.4244C464.304 36.2244 463.44 35.3924 462.176 35.3924H459.376V39.4724H462.176ZM468.326 36.0484C467.894 36.0484 467.526 35.6964 467.526 35.2484C467.526 34.8004 467.894 34.4324 468.326 34.4324C468.774 34.4324 469.142 34.8004 469.142 35.2484C469.142 35.6964 468.774 36.0484 468.326 36.0484ZM468.934 44.8804H467.734V37.1524H468.934V44.8804ZM474.432 48.0164C473.12 48.0164 472.224 47.7604 471.312 46.8644L471.92 45.9684C472.56 46.7364 473.328 47.0244 474.432 47.0244C475.712 47.0244 476.912 46.4004 476.912 44.7044V43.6004C476.352 44.3844 475.408 44.9764 474.32 44.9764C472.304 44.9764 470.88 43.4724 470.88 40.9764C470.88 38.4964 472.288 36.9604 474.32 36.9604C475.36 36.9604 476.288 37.4724 476.912 38.3204V37.1524H478.112V44.6564C478.112 47.2164 476.32 48.0164 474.432 48.0164ZM474.608 43.9204C475.568 43.9204 476.496 43.3284 476.912 42.6564V39.2804C476.496 38.6084 475.568 38.0324 474.608 38.0324C473.056 38.0324 472.128 39.2644 472.128 40.9764C472.128 42.6724 473.056 43.9204 474.608 43.9204ZM486.948 44.8804H485.748V39.7924C485.748 38.4324 485.044 38.0324 484.004 38.0324C483.076 38.0324 482.18 38.6084 481.716 39.2324V44.8804H480.516V34.2084H481.716V38.2724C482.26 37.6324 483.316 36.9604 484.484 36.9604C486.1 36.9604 486.948 37.7444 486.948 39.4244V44.8804ZM491.296 45.0724C490.16 45.0724 489.584 44.4164 489.584 43.2644V38.2084H488.304V37.1524H489.584V35.0404H490.784V37.1524H492.352V38.2084H490.784V43.0084C490.784 43.5844 491.04 44.0004 491.568 44.0004C491.904 44.0004 492.224 43.8564 492.384 43.6804L492.736 44.5764C492.432 44.8644 492 45.0724 491.296 45.0724ZM500.62 45.0724C499.356 45.0724 498.284 44.6884 497.5 43.8564L498.124 42.9924C498.636 43.5844 499.612 44.0964 500.668 44.0964C501.852 44.0964 502.492 43.5364 502.492 42.7684C502.492 40.8964 497.708 42.0484 497.708 39.1844C497.708 37.9844 498.748 36.9604 500.588 36.9604C501.9 36.9604 502.828 37.4564 503.452 38.0804L502.892 38.9124C502.428 38.3524 501.58 37.9364 500.588 37.9364C499.532 37.9364 498.876 38.4644 498.876 39.1524C498.876 40.8484 503.66 39.7284 503.66 42.7364C503.66 44.0324 502.62 45.0724 500.62 45.0724ZM512.409 44.8804H510.873L508.089 41.4084L506.809 42.6724V44.8804H505.609V34.2084H506.809V41.2644L510.873 37.1524H512.393L508.969 40.6564L512.409 44.8804ZM517.269 45.0724C514.981 45.0724 513.333 43.4244 513.333 41.0084C513.333 38.7684 514.933 36.9604 517.141 36.9604C519.477 36.9604 520.853 38.7844 520.853 41.1044V41.4084H514.597C514.693 42.8644 515.717 44.0804 517.381 44.0804C518.261 44.0804 519.157 43.7284 519.765 43.1044L520.341 43.8884C519.573 44.6564 518.533 45.0724 517.269 45.0724ZM519.669 40.5284C519.653 39.3764 518.885 37.9524 517.125 37.9524C515.477 37.9524 514.661 39.3444 514.597 40.5284H519.669ZM530.685 44.8804H529.485L527.469 38.6724L525.453 44.8804H524.253L521.789 37.1524H523.037L524.925 43.3124L526.957 37.1524H527.981L530.013 43.3124L531.901 37.1524H533.149L530.685 44.8804ZM538.035 45.0724C535.747 45.0724 534.099 43.4244 534.099 41.0084C534.099 38.7684 535.699 36.9604 537.907 36.9604C540.243 36.9604 541.619 38.7844 541.619 41.1044V41.4084H535.363C535.459 42.8644 536.483 44.0804 538.147 44.0804C539.027 44.0804 539.923 43.7284 540.531 43.1044L541.107 43.8884C540.339 44.6564 539.299 45.0724 538.035 45.0724ZM540.435 40.5284C540.419 39.3764 539.651 37.9524 537.891 37.9524C536.243 37.9524 535.427 39.3444 535.363 40.5284H540.435ZM550.363 44.8804H549.163V43.7284C548.587 44.5124 547.643 45.0724 546.555 45.0724C544.539 45.0724 543.115 43.5364 543.115 41.0244C543.115 38.5604 544.523 36.9604 546.555 36.9604C547.595 36.9604 548.539 37.4724 549.163 38.3204V34.2084H550.363V44.8804ZM546.843 44.0004C547.803 44.0004 548.731 43.4564 549.163 42.7844V39.2804C548.731 38.6084 547.803 38.0324 546.843 38.0324C545.291 38.0324 544.363 39.3124 544.363 41.0244C544.363 42.7364 545.291 44.0004 546.843 44.0004ZM552.558 48.0644L551.838 47.5044C552.878 45.4884 553.518 43.6484 553.518 40.9924C553.518 38.3204 552.878 36.4964 551.838 34.4644L552.558 33.9204C554.014 35.9044 554.83 38.4164 554.83 40.9924C554.83 43.5684 554.014 46.0964 552.558 48.0644Z" fill="#21374D"/>
<path d="M433.942 241.12H432.742V235.872C432.742 234.896 432.31 234.272 431.318 234.272C430.518 234.272 429.67 234.848 429.27 235.456V241.12H428.07V235.872C428.07 234.896 427.654 234.272 426.646 234.272C425.862 234.272 425.03 234.848 424.614 235.472V241.12H423.414V233.392H424.614V234.512C424.934 234.016 425.974 233.2 427.11 233.2C428.294 233.2 428.966 233.84 429.19 234.64C429.622 233.936 430.662 233.2 431.782 233.2C433.19 233.2 433.942 233.984 433.942 235.536V241.12ZM439.824 241.312C437.536 241.312 435.888 239.664 435.888 237.248C435.888 235.008 437.488 233.2 439.696 233.2C442.032 233.2 443.408 235.024 443.408 237.344V237.648H437.152C437.248 239.104 438.272 240.32 439.936 240.32C440.816 240.32 441.712 239.968 442.32 239.344L442.896 240.128C442.128 240.896 441.088 241.312 439.824 241.312ZM442.224 236.768C442.208 235.616 441.44 234.192 439.68 234.192C438.032 234.192 437.216 235.584 437.152 236.768H442.224ZM451.384 241.12H450.184V240.24C449.544 240.944 448.664 241.312 447.624 241.312C446.312 241.312 444.92 240.432 444.92 238.752C444.92 237.024 446.312 236.208 447.624 236.208C448.68 236.208 449.56 236.544 450.184 237.264V235.872C450.184 234.832 449.352 234.24 448.232 234.24C447.304 234.24 446.552 234.576 445.864 235.312L445.304 234.48C446.136 233.616 447.128 233.2 448.392 233.2C450.024 233.2 451.384 233.936 451.384 235.808V241.12ZM448.056 240.448C448.904 240.448 449.72 240.128 450.184 239.488V238.032C449.72 237.392 448.904 237.072 448.056 237.072C446.936 237.072 446.152 237.776 446.152 238.768C446.152 239.744 446.936 240.448 448.056 240.448ZM460.205 241.12H459.005V236.064C459.005 234.704 458.317 234.272 457.277 234.272C456.333 234.272 455.437 234.848 454.989 235.472V241.12H453.789V233.392H454.989V234.512C455.533 233.872 456.589 233.2 457.741 233.2C459.357 233.2 460.205 234.016 460.205 235.696V241.12ZM473.047 236.192L465.991 239.68V238.688L472.007 235.776L465.991 232.848V231.84L473.047 235.344V236.192ZM489.364 241.12H488.164V235.872C488.164 234.896 487.732 234.272 486.74 234.272C485.94 234.272 485.092 234.848 484.692 235.456V241.12H483.492V235.872C483.492 234.896 483.076 234.272 482.068 234.272C481.284 234.272 480.452 234.848 480.036 235.472V241.12H478.836V233.392H480.036V234.512C480.356 234.016 481.396 233.2 482.532 233.2C483.716 233.2 484.388 233.84 484.612 234.64C485.044 233.936 486.084 233.2 487.204 233.2C488.612 233.2 489.364 233.984 489.364 235.536V241.12ZM495.246 241.312C492.958 241.312 491.31 239.664 491.31 237.248C491.31 235.008 492.91 233.2 495.118 233.2C497.454 233.2 498.83 235.024 498.83 237.344V237.648H492.574C492.67 239.104 493.694 240.32 495.358 240.32C496.238 240.32 497.134 239.968 497.742 239.344L498.318 240.128C497.55 240.896 496.51 241.312 495.246 241.312ZM497.646 236.768C497.63 235.616 496.862 234.192 495.102 234.192C493.454 234.192 492.638 235.584 492.574 236.768H497.646ZM507.573 241.12H506.373V239.968C505.797 240.752 504.853 241.312 503.765 241.312C501.749 241.312 500.325 239.776 500.325 237.264C500.325 234.8 501.733 233.2 503.765 233.2C504.805 233.2 505.749 233.712 506.373 234.56V230.448H507.573V241.12ZM504.053 240.24C505.013 240.24 505.941 239.696 506.373 239.024V235.52C505.941 234.848 505.013 234.272 504.053 234.272C502.501 234.272 501.573 235.552 501.573 237.264C501.573 238.976 502.501 240.24 504.053 240.24ZM510.569 232.288C510.137 232.288 509.769 231.936 509.769 231.488C509.769 231.04 510.137 230.672 510.569 230.672C511.017 230.672 511.385 231.04 511.385 231.488C511.385 231.936 511.017 232.288 510.569 232.288ZM511.177 241.12H509.977V233.392H511.177V241.12ZM519.602 241.12H518.402V240.24C517.762 240.944 516.882 241.312 515.842 241.312C514.53 241.312 513.138 240.432 513.138 238.752C513.138 237.024 514.53 236.208 515.842 236.208C516.898 236.208 517.778 236.544 518.402 237.264V235.872C518.402 234.832 517.57 234.24 516.45 234.24C515.522 234.24 514.77 234.576 514.082 235.312L513.522 234.48C514.354 233.616 515.346 233.2 516.61 233.2C518.242 233.2 519.602 233.936 519.602 235.808V241.12ZM516.274 240.448C517.122 240.448 517.938 240.128 518.402 239.488V238.032C517.938 237.392 517.122 237.072 516.274 237.072C515.154 237.072 514.37 237.776 514.37 238.768C514.37 239.744 515.154 240.448 516.274 240.448ZM528.424 241.12H527.224V236.064C527.224 234.704 526.536 234.272 525.496 234.272C524.552 234.272 523.656 234.848 523.208 235.472V241.12H522.008V233.392H523.208V234.512C523.752 233.872 524.808 233.2 525.96 233.2C527.576 233.2 528.424 234.016 528.424 235.696V241.12ZM541.265 236.192L534.209 239.68V238.688L540.225 235.776L534.209 232.848V231.84L541.265 235.344V236.192ZM557.583 241.12H556.383V235.872C556.383 234.896 555.951 234.272 554.959 234.272C554.159 234.272 553.311 234.848 552.911 235.456V241.12H551.711V235.872C551.711 234.896 551.295 234.272 550.287 234.272C549.503 234.272 548.671 234.848 548.255 235.472V241.12H547.055V233.392H548.255V234.512C548.575 234.016 549.615 233.2 550.751 233.2C551.935 233.2 552.607 233.84 552.831 234.64C553.263 233.936 554.303 233.2 555.423 233.2C556.831 233.2 557.583 233.984 557.583 235.536V241.12ZM563.353 241.312C561.001 241.312 559.529 239.488 559.529 237.248C559.529 235.008 561.001 233.2 563.353 233.2C565.705 233.2 567.177 235.008 567.177 237.248C567.177 239.488 565.705 241.312 563.353 241.312ZM563.353 240.24C565.001 240.24 565.913 238.832 565.913 237.248C565.913 235.68 565.001 234.272 563.353 234.272C561.705 234.272 560.777 235.68 560.777 237.248C560.777 238.832 561.705 240.24 563.353 240.24ZM575.933 241.12H574.733V239.968C574.157 240.752 573.213 241.312 572.125 241.312C570.109 241.312 568.685 239.776 568.685 237.264C568.685 234.8 570.093 233.2 572.125 233.2C573.165 233.2 574.109 233.712 574.733 234.56V230.448H575.933V241.12ZM572.413 240.24C573.373 240.24 574.301 239.696 574.733 239.024V235.52C574.301 234.848 573.373 234.272 572.413 234.272C570.861 234.272 569.933 235.552 569.933 237.264C569.933 238.976 570.861 240.24 572.413 240.24ZM581.824 241.312C579.536 241.312 577.888 239.664 577.888 237.248C577.888 235.008 579.488 233.2 581.696 233.2C584.032 233.2 585.408 235.024 585.408 237.344V237.648H579.152C579.248 239.104 580.272 240.32 581.936 240.32C582.816 240.32 583.712 239.968 584.32 239.344L584.896 240.128C584.128 240.896 583.088 241.312 581.824 241.312ZM584.224 236.768C584.208 235.616 583.44 234.192 581.68 234.192C580.032 234.192 579.216 235.584 579.152 236.768H584.224Z" fill="#21374D"/>
<path d="M493.156 97.2967H491.828V88.5127L488.196 97.2967H487.652L484.036 88.5127V97.2967H482.708V86.6247H484.612L487.924 94.6567L491.252 86.6247H493.156V97.2967ZM499.085 97.4887C496.797 97.4887 495.149 95.8407 495.149 93.4247C495.149 91.1847 496.749 89.3767 498.957 89.3767C501.293 89.3767 502.669 91.2007 502.669 93.5207V93.8247H496.413C496.509 95.2807 497.533 96.4967 499.197 96.4967C500.077 96.4967 500.973 96.1447 501.581 95.5207L502.157 96.3047C501.389 97.0727 500.349 97.4887 499.085 97.4887ZM501.485 92.9447C501.469 91.7927 500.701 90.3687 498.941 90.3687C497.293 90.3687 496.477 91.7607 496.413 92.9447H501.485ZM511.413 97.2967H510.213V96.1447C509.637 96.9287 508.693 97.4887 507.605 97.4887C505.589 97.4887 504.165 95.9527 504.165 93.4407C504.165 90.9767 505.573 89.3767 507.605 89.3767C508.645 89.3767 509.589 89.8887 510.213 90.7367V86.6247H511.413V97.2967ZM507.893 96.4167C508.853 96.4167 509.781 95.8727 510.213 95.2007V91.6967C509.781 91.0247 508.853 90.4487 507.893 90.4487C506.341 90.4487 505.413 91.7287 505.413 93.4407C505.413 95.1527 506.341 96.4167 507.893 96.4167ZM514.408 88.4647C513.976 88.4647 513.608 88.1127 513.608 87.6647C513.608 87.2167 513.976 86.8487 514.408 86.8487C514.856 86.8487 515.224 87.2167 515.224 87.6647C515.224 88.1127 514.856 88.4647 514.408 88.4647ZM515.016 97.2967H513.816V89.5687H515.016V97.2967ZM523.442 97.2967H522.242V96.4167C521.602 97.1207 520.722 97.4887 519.682 97.4887C518.37 97.4887 516.978 96.6087 516.978 94.9287C516.978 93.2007 518.37 92.3847 519.682 92.3847C520.738 92.3847 521.618 92.7207 522.242 93.4407V92.0487C522.242 91.0087 521.41 90.4167 520.29 90.4167C519.362 90.4167 518.61 90.7527 517.922 91.4887L517.362 90.6567C518.194 89.7927 519.186 89.3767 520.45 89.3767C522.082 89.3767 523.442 90.1127 523.442 91.9847V97.2967ZM520.114 96.6247C520.962 96.6247 521.778 96.3047 522.242 95.6647V94.2087C521.778 93.5687 520.962 93.2487 520.114 93.2487C518.994 93.2487 518.21 93.9527 518.21 94.9447C518.21 95.9207 518.994 96.6247 520.114 96.6247ZM532.263 97.2967H531.063V92.2407C531.063 90.8807 530.375 90.4487 529.335 90.4487C528.391 90.4487 527.495 91.0247 527.047 91.6487V97.2967H525.847V89.5687H527.047V90.6887C527.591 90.0487 528.647 89.3767 529.799 89.3767C531.415 89.3767 532.263 90.1927 532.263 91.8727V97.2967Z" fill="#21374D"/>
<path d="M162.594 204.005L162.594 86.4983" stroke="#21374D" stroke-width="2" stroke-linecap="round" stroke-linejoin="round" stroke-dasharray="3 6"/>
<path d="M143.978 204.005L143.978 97.4488" stroke="#21374D" stroke-width="2" stroke-linecap="round" stroke-linejoin="round" stroke-dasharray="3 6"/>
<path d="M111.971 204.005L111.971 152.908" stroke="#21374D" stroke-width="2" stroke-linecap="round" stroke-linejoin="round" stroke-dasharray="3 6"/>
<path d="M25.8052 86.3079V204.005H209.439" stroke="#21374D" stroke-width="2" stroke-linecap="round" stroke-linejoin="round"/>
<path d="M207.463 203.752C198.373 203.752 197.508 86.3079 161.583 86.3079C125.659 86.3079 121.068 204.005 30.3815 203.752" stroke="#1ABC9C" stroke-width="2" stroke-linecap="round" stroke-linejoin="round"/>
<path d="M81.1796 153.527H79.8516V144.743L76.2196 153.527H75.6756L72.0596 144.743V153.527H70.7316V142.855H72.6356L75.9476 150.887L79.2756 142.855H81.1796V153.527ZM87.1091 153.719C84.8211 153.719 83.1731 152.071 83.1731 149.655C83.1731 147.415 84.7731 145.607 86.9811 145.607C89.3171 145.607 90.6931 147.431 90.6931 149.751V150.055H84.4371C84.5331 151.511 85.5571 152.727 87.2211 152.727C88.1011 152.727 88.9971 152.375 89.6051 151.751L90.1811 152.535C89.4131 153.303 88.3731 153.719 87.1091 153.719ZM89.5091 149.175C89.4931 148.023 88.7251 146.599 86.9651 146.599C85.3171 146.599 84.5011 147.991 84.4371 149.175H89.5091ZM98.6688 153.527H97.4688V152.647C96.8288 153.351 95.9488 153.719 94.9088 153.719C93.5968 153.719 92.2048 152.839 92.2048 151.159C92.2048 149.431 93.5968 148.615 94.9088 148.615C95.9648 148.615 96.8448 148.951 97.4688 149.671V148.279C97.4688 147.239 96.6368 146.647 95.5168 146.647C94.5888 146.647 93.8368 146.983 93.1488 147.719L92.5888 146.887C93.4208 146.023 94.4128 145.607 95.6768 145.607C97.3088 145.607 98.6688 146.343 98.6688 148.215V153.527ZM95.3408 152.855C96.1888 152.855 97.0048 152.535 97.4688 151.895V150.439C97.0048 149.799 96.1888 149.479 95.3408 149.479C94.2208 149.479 93.4368 150.183 93.4368 151.175C93.4368 152.151 94.2208 152.855 95.3408 152.855ZM107.49 153.527H106.29V148.471C106.29 147.111 105.602 146.679 104.562 146.679C103.618 146.679 102.722 147.255 102.274 147.879V153.527H101.074V145.799H102.274V146.919C102.818 146.279 103.874 145.607 105.026 145.607C106.642 145.607 107.49 146.423 107.49 148.103V153.527Z" fill="#21374D"/>
<path d="M154.43 81.2967H153.102V72.5127L149.47 81.2967H148.926L145.31 72.5127V81.2967H143.982V70.6247H145.886L149.198 78.6567L152.526 70.6247H154.43V81.2967ZM160.248 81.4887C157.896 81.4887 156.424 79.6647 156.424 77.4247C156.424 75.1847 157.896 73.3767 160.248 73.3767C162.6 73.3767 164.072 75.1847 164.072 77.4247C164.072 79.6647 162.6 81.4887 160.248 81.4887ZM160.248 80.4167C161.896 80.4167 162.808 79.0087 162.808 77.4247C162.808 75.8567 161.896 74.4487 160.248 74.4487C158.6 74.4487 157.672 75.8567 157.672 77.4247C157.672 79.0087 158.6 80.4167 160.248 80.4167ZM172.828 81.2967H171.628V80.1447C171.052 80.9287 170.108 81.4887 169.02 81.4887C167.004 81.4887 165.58 79.9527 165.58 77.4407C165.58 74.9767 166.988 73.3767 169.02 73.3767C170.06 73.3767 171.004 73.8887 171.628 74.7367V70.6247H172.828V81.2967ZM169.308 80.4167C170.268 80.4167 171.196 79.8727 171.628 79.2007V75.6967C171.196 75.0247 170.268 74.4487 169.308 74.4487C167.756 74.4487 166.828 75.7287 166.828 77.4407C166.828 79.1527 167.756 80.4167 169.308 80.4167ZM178.719 81.4887C176.431 81.4887 174.783 79.8407 174.783 77.4247C174.783 75.1847 176.383 73.3767 178.591 73.3767C180.927 73.3767 182.303 75.2007 182.303 77.5207V77.8247H176.047C176.143 79.2807 177.167 80.4967 178.831 80.4967C179.711 80.4967 180.607 80.1447 181.215 79.5207L181.791 80.3047C181.023 81.0727 179.983 81.4887 178.719 81.4887ZM181.119 76.9447C181.103 75.7927 180.335 74.3687 178.575 74.3687C176.927 74.3687 176.111 75.7607 176.047 76.9447H181.119Z" fill="#21374D"/>
<path d="M47.3816 241.12H46.1816V235.872C46.1816 234.896 45.7496 234.272 44.7576 234.272C43.9576 234.272 43.1096 234.848 42.7096 235.456V241.12H41.5096V235.872C41.5096 234.896 41.0936 234.272 40.0856 234.272C39.3016 234.272 38.4696 234.848 38.0536 235.472V241.12H36.8536V233.392H38.0536V234.512C38.3736 234.016 39.4136 233.2 40.5496 233.2C41.7336 233.2 42.4056 233.84 42.6296 234.64C43.0616 233.936 44.1016 233.2 45.2216 233.2C46.6296 233.2 47.3816 233.984 47.3816 235.536V241.12ZM53.2634 241.312C50.9754 241.312 49.3274 239.664 49.3274 237.248C49.3274 235.008 50.9274 233.2 53.1354 233.2C55.4714 233.2 56.8474 235.024 56.8474 237.344V237.648H50.5914C50.6874 239.104 51.7114 240.32 53.3754 240.32C54.2554 240.32 55.1514 239.968 55.7594 239.344L56.3354 240.128C55.5674 240.896 54.5274 241.312 53.2634 241.312ZM55.6634 236.768C55.6474 235.616 54.8794 234.192 53.1194 234.192C51.4714 234.192 50.6554 235.584 50.5914 236.768H55.6634ZM64.8231 241.12H63.6231V240.24C62.9831 240.944 62.1031 241.312 61.0631 241.312C59.7511 241.312 58.3591 240.432 58.3591 238.752C58.3591 237.024 59.7511 236.208 61.0631 236.208C62.1191 236.208 62.9991 236.544 63.6231 237.264V235.872C63.6231 234.832 62.7911 234.24 61.6711 234.24C60.7431 234.24 59.9911 234.576 59.3031 235.312L58.7431 234.48C59.5751 233.616 60.5671 233.2 61.8311 233.2C63.4631 233.2 64.8231 233.936 64.8231 235.808V241.12ZM61.4951 240.448C62.3431 240.448 63.1591 240.128 63.6231 239.488V238.032C63.1591 237.392 62.3431 237.072 61.4951 237.072C60.3751 237.072 59.5911 237.776 59.5911 238.768C59.5911 239.744 60.3751 240.448 61.4951 240.448ZM73.6446 241.12H72.4446V236.064C72.4446 234.704 71.7566 234.272 70.7166 234.272C69.7726 234.272 68.8766 234.848 68.4286 235.472V241.12H67.2286V233.392H68.4286V234.512C68.9726 233.872 70.0286 233.2 71.1806 233.2C72.7966 233.2 73.6446 234.016 73.6446 235.696V241.12ZM86.4861 239.68L79.4301 236.192V235.344L86.4861 231.84V232.848L80.4541 235.776L86.4861 238.688V239.68ZM102.803 241.12H101.603V235.872C101.603 234.896 101.171 234.272 100.179 234.272C99.3794 234.272 98.5314 234.848 98.1314 235.456V241.12H96.9314V235.872C96.9314 234.896 96.5154 234.272 95.5074 234.272C94.7234 234.272 93.8914 234.848 93.4754 235.472V241.12H92.2754V233.392H93.4754V234.512C93.7954 234.016 94.8354 233.2 95.9714 233.2C97.1554 233.2 97.8274 233.84 98.0514 234.64C98.4834 233.936 99.5234 233.2 100.643 233.2C102.051 233.2 102.803 233.984 102.803 235.536V241.12ZM108.685 241.312C106.397 241.312 104.749 239.664 104.749 237.248C104.749 235.008 106.349 233.2 108.557 233.2C110.893 233.2 112.269 235.024 112.269 237.344V237.648H106.013C106.109 239.104 107.133 240.32 108.797 240.32C109.677 240.32 110.573 239.968 111.181 239.344L111.757 240.128C110.989 240.896 109.949 241.312 108.685 241.312ZM111.085 236.768C111.069 235.616 110.301 234.192 108.541 234.192C106.893 234.192 106.077 235.584 106.013 236.768H111.085ZM121.013 241.12H119.813V239.968C119.237 240.752 118.293 241.312 117.205 241.312C115.189 241.312 113.765 239.776 113.765 237.264C113.765 234.8 115.173 233.2 117.205 233.2C118.245 233.2 119.189 233.712 119.813 234.56V230.448H121.013V241.12ZM117.493 240.24C118.453 240.24 119.381 239.696 119.813 239.024V235.52C119.381 234.848 118.453 234.272 117.493 234.272C115.941 234.272 115.013 235.552 115.013 237.264C115.013 238.976 115.941 240.24 117.493 240.24ZM124.008 232.288C123.576 232.288 123.208 231.936 123.208 231.488C123.208 231.04 123.576 230.672 124.008 230.672C124.456 230.672 124.824 231.04 124.824 231.488C124.824 231.936 124.456 232.288 124.008 232.288ZM124.616 241.12H123.416V233.392H124.616V241.12ZM133.042 241.12H131.842V240.24C131.202 240.944 130.322 241.312 129.282 241.312C127.97 241.312 126.578 240.432 126.578 238.752C126.578 237.024 127.97 236.208 129.282 236.208C130.338 236.208 131.218 236.544 131.842 237.264V235.872C131.842 234.832 131.01 234.24 129.89 234.24C128.962 234.24 128.21 234.576 127.522 235.312L126.962 234.48C127.794 233.616 128.786 233.2 130.05 233.2C131.682 233.2 133.042 233.936 133.042 235.808V241.12ZM129.714 240.448C130.562 240.448 131.378 240.128 131.842 239.488V238.032C131.378 237.392 130.562 237.072 129.714 237.072C128.594 237.072 127.81 237.776 127.81 238.768C127.81 239.744 128.594 240.448 129.714 240.448ZM141.863 241.12H140.663V236.064C140.663 234.704 139.975 234.272 138.935 234.272C137.991 234.272 137.095 234.848 136.647 235.472V241.12H135.447V233.392H136.647V234.512C137.191 233.872 138.247 233.2 139.399 233.2C141.015 233.2 141.863 234.016 141.863 235.696V241.12ZM154.705 239.68L147.649 236.192V235.344L154.705 231.84V232.848L148.673 235.776L154.705 238.688V239.68ZM171.022 241.12H169.822V235.872C169.822 234.896 169.39 234.272 168.398 234.272C167.598 234.272 166.75 234.848 166.35 235.456V241.12H165.15V235.872C165.15 234.896 164.734 234.272 163.726 234.272C162.942 234.272 162.11 234.848 161.694 235.472V241.12H160.494V233.392H161.694V234.512C162.014 234.016 163.054 233.2 164.19 233.2C165.374 233.2 166.046 233.84 166.27 234.64C166.702 233.936 167.742 233.2 168.862 233.2C170.27 233.2 171.022 233.984 171.022 235.536V241.12ZM176.792 241.312C174.44 241.312 172.968 239.488 172.968 237.248C172.968 235.008 174.44 233.2 176.792 233.2C179.144 233.2 180.616 235.008 180.616 237.248C180.616 239.488 179.144 241.312 176.792 241.312ZM176.792 240.24C178.44 240.24 179.352 238.832 179.352 237.248C179.352 235.68 178.44 234.272 176.792 234.272C175.144 234.272 174.216 235.68 174.216 237.248C174.216 238.832 175.144 240.24 176.792 240.24ZM189.372 241.12H188.172V239.968C187.596 240.752 186.652 241.312 185.564 241.312C183.548 241.312 182.124 239.776 182.124 237.264C182.124 234.8 183.532 233.2 185.564 233.2C186.604 233.2 187.548 233.712 188.172 234.56V230.448H189.372V241.12ZM185.852 240.24C186.812 240.24 187.74 239.696 188.172 239.024V235.52C187.74 234.848 186.812 234.272 185.852 234.272C184.3 234.272 183.372 235.552 183.372 237.264C183.372 238.976 184.3 240.24 185.852 240.24ZM195.263 241.312C192.975 241.312 191.327 239.664 191.327 237.248C191.327 235.008 192.927 233.2 195.135 233.2C197.471 233.2 198.847 235.024 198.847 237.344V237.648H192.591C192.687 239.104 193.711 240.32 195.375 240.32C196.255 240.32 197.151 239.968 197.759 239.344L198.335 240.128C197.567 240.896 196.527 241.312 195.263 241.312ZM197.663 236.768C197.647 235.616 196.879 234.192 195.119 234.192C193.471 234.192 192.655 235.584 192.591 236.768H197.663Z" fill="#21374D"/>
<path d="M61.0617 28.8804H59.7817L53.5577 20.3684V28.8804H52.2297V18.2084H53.5897L59.7337 26.5444V18.2084H61.0617V28.8804ZM66.9978 29.0724C64.7098 29.0724 63.0618 27.4244 63.0618 25.0084C63.0618 22.7684 64.6618 20.9604 66.8698 20.9604C69.2058 20.9604 70.5818 22.7844 70.5818 25.1044V25.4084H64.3258C64.4218 26.8644 65.4458 28.0804 67.1098 28.0804C67.9898 28.0804 68.8858 27.7284 69.4938 27.1044L70.0698 27.8884C69.3018 28.6564 68.2618 29.0724 66.9978 29.0724ZM69.3978 24.5284C69.3818 23.3764 68.6138 21.9524 66.8538 21.9524C65.2058 21.9524 64.3898 23.3444 64.3258 24.5284H69.3978ZM75.6294 32.0164C74.3174 32.0164 73.4214 31.7604 72.5094 30.8644L73.1174 29.9684C73.7574 30.7364 74.5254 31.0244 75.6294 31.0244C76.9094 31.0244 78.1094 30.4004 78.1094 28.7044V27.6004C77.5494 28.3844 76.6054 28.9764 75.5174 28.9764C73.5014 28.9764 72.0774 27.4724 72.0774 24.9764C72.0774 22.4964 73.4854 20.9604 75.5174 20.9604C76.5574 20.9604 77.4854 21.4724 78.1094 22.3204V21.1524H79.3094V28.6564C79.3094 31.2164 77.5174 32.0164 75.6294 32.0164ZM75.8054 27.9204C76.7654 27.9204 77.6934 27.3284 78.1094 26.6564V23.2804C77.6934 22.6084 76.7654 22.0324 75.8054 22.0324C74.2534 22.0324 73.3254 23.2644 73.3254 24.9764C73.3254 26.6724 74.2534 27.9204 75.8054 27.9204ZM87.7449 28.8804H86.5449V28.0004C85.9049 28.7044 85.0249 29.0724 83.9849 29.0724C82.6729 29.0724 81.2809 28.1924 81.2809 26.5124C81.2809 24.7844 82.6729 23.9684 83.9849 23.9684C85.0409 23.9684 85.9209 24.3044 86.5449 25.0244V23.6324C86.5449 22.5924 85.7129 22.0004 84.5929 22.0004C83.6649 22.0004 82.9129 22.3364 82.2249 23.0724L81.6649 22.2404C82.4969 21.3764 83.4889 20.9604 84.7529 20.9604C86.3849 20.9604 87.7449 21.6964 87.7449 23.5684V28.8804ZM84.4169 28.2084C85.2649 28.2084 86.0809 27.8884 86.5449 27.2484V25.7924C86.0809 25.1524 85.2649 24.8324 84.4169 24.8324C83.2969 24.8324 82.5129 25.5364 82.5129 26.5284C82.5129 27.5044 83.2969 28.2084 84.4169 28.2084ZM92.1024 29.0724C90.9664 29.0724 90.3904 28.4164 90.3904 27.2644V22.2084H89.1104V21.1524H90.3904V19.0404H91.5904V21.1524H93.1584V22.2084H91.5904V27.0084C91.5904 27.5844 91.8464 28.0004 92.3744 28.0004C92.7104 28.0004 93.0304 27.8564 93.1904 27.6804L93.5424 28.5764C93.2384 28.8644 92.8064 29.0724 92.1024 29.0724ZM95.4456 20.0484C95.0136 20.0484 94.6456 19.6964 94.6456 19.2484C94.6456 18.8004 95.0136 18.4324 95.4456 18.4324C95.8936 18.4324 96.2616 18.8004 96.2616 19.2484C96.2616 19.6964 95.8936 20.0484 95.4456 20.0484ZM96.0536 28.8804H94.8536V21.1524H96.0536V28.8804ZM101.823 28.8804H100.511L97.2953 21.1524H98.5913L101.167 27.4884L103.727 21.1524H105.039L101.823 28.8804ZM109.779 29.0724C107.491 29.0724 105.843 27.4244 105.843 25.0084C105.843 22.7684 107.443 20.9604 109.651 20.9604C111.987 20.9604 113.363 22.7844 113.363 25.1044V25.4084H107.107C107.203 26.8644 108.227 28.0804 109.891 28.0804C110.771 28.0804 111.667 27.7284 112.275 27.1044L112.851 27.8884C112.083 28.6564 111.043 29.0724 109.779 29.0724ZM112.179 24.5284C112.163 23.3764 111.395 21.9524 109.635 21.9524C107.987 21.9524 107.171 23.3444 107.107 24.5284H112.179ZM116.507 28.8804H115.307V18.2084H116.507V28.8804ZM118.468 31.9044L118.66 30.8164C118.836 30.8964 119.124 30.9444 119.316 30.9444C119.844 30.9444 120.196 30.7684 120.468 30.1284L120.98 28.9604L117.748 21.1524H119.044L121.62 27.4884L124.18 21.1524H125.492L121.62 30.4484C121.156 31.5684 120.372 32.0004 119.348 32.0164C119.092 32.0164 118.692 31.9684 118.468 31.9044ZM133.317 29.0724C132.053 29.0724 130.981 28.6884 130.197 27.8564L130.821 26.9924C131.333 27.5844 132.309 28.0964 133.365 28.0964C134.549 28.0964 135.189 27.5364 135.189 26.7684C135.189 24.8964 130.405 26.0484 130.405 23.1844C130.405 21.9844 131.445 20.9604 133.285 20.9604C134.597 20.9604 135.525 21.4564 136.149 22.0804L135.589 22.9124C135.125 22.3524 134.277 21.9364 133.285 21.9364C132.229 21.9364 131.573 22.4644 131.573 23.1524C131.573 24.8484 136.357 23.7284 136.357 26.7364C136.357 28.0324 135.317 29.0724 133.317 29.0724ZM145.107 28.8804H143.571L140.787 25.4084L139.507 26.6724V28.8804H138.307V18.2084H139.507V25.2644L143.571 21.1524H145.091L141.667 24.6564L145.107 28.8804ZM149.967 29.0724C147.679 29.0724 146.031 27.4244 146.031 25.0084C146.031 22.7684 147.631 20.9604 149.839 20.9604C152.175 20.9604 153.551 22.7844 153.551 25.1044V25.4084H147.295C147.391 26.8644 148.415 28.0804 150.079 28.0804C150.959 28.0804 151.855 27.7284 152.463 27.1044L153.039 27.8884C152.271 28.6564 151.231 29.0724 149.967 29.0724ZM152.367 24.5284C152.351 23.3764 151.583 21.9524 149.823 21.9524C148.175 21.9524 147.359 23.3444 147.295 24.5284H152.367ZM163.382 28.8804H162.182L160.166 22.6724L158.15 28.8804H156.95L154.486 21.1524H155.734L157.622 27.3124L159.654 21.1524H160.678L162.71 27.3124L164.598 21.1524H165.846L163.382 28.8804ZM170.732 29.0724C168.444 29.0724 166.796 27.4244 166.796 25.0084C166.796 22.7684 168.396 20.9604 170.604 20.9604C172.94 20.9604 174.316 22.7844 174.316 25.1044V25.4084H168.06C168.156 26.8644 169.18 28.0804 170.844 28.0804C171.724 28.0804 172.62 27.7284 173.228 27.1044L173.804 27.8884C173.036 28.6564 171.996 29.0724 170.732 29.0724ZM173.132 24.5284C173.116 23.3764 172.348 21.9524 170.588 21.9524C168.94 21.9524 168.124 23.3444 168.06 24.5284H173.132ZM183.06 28.8804H181.86V27.7284C181.284 28.5124 180.34 29.0724 179.252 29.0724C177.236 29.0724 175.812 27.5364 175.812 25.0244C175.812 22.5604 177.22 20.9604 179.252 20.9604C180.292 20.9604 181.236 21.4724 181.86 22.3204V18.2084H183.06V28.8804ZM179.54 28.0004C180.5 28.0004 181.428 27.4564 181.86 26.7844V23.2804C181.428 22.6084 180.5 22.0324 179.54 22.0324C177.988 22.0324 177.06 23.3124 177.06 25.0244C177.06 26.7364 177.988 28.0004 179.54 28.0004ZM74.9429 47.5044L74.2229 48.0644C72.7829 46.0964 71.9669 43.5684 71.9669 40.9924C71.9669 38.4164 72.7829 35.9044 74.2229 33.9204L74.9429 34.4644C73.9189 36.4964 73.2789 38.3204 73.2789 40.9924C73.2789 43.6484 73.9189 45.4884 74.9429 47.5044ZM82.7677 44.8804H76.4797V34.2084H77.8077V43.6964H82.7677V44.8804ZM87.7322 45.0724C85.4442 45.0724 83.7962 43.4244 83.7962 41.0084C83.7962 38.7684 85.3962 36.9604 87.6042 36.9604C89.9402 36.9604 91.3162 38.7844 91.3162 41.1044V41.4084H85.0602C85.1562 42.8644 86.1802 44.0804 87.8442 44.0804C88.7242 44.0804 89.6202 43.7284 90.2282 43.1044L90.8042 43.8884C90.0362 44.6564 88.9962 45.0724 87.7322 45.0724ZM90.1322 40.5284C90.1162 39.3764 89.3482 37.9524 87.5882 37.9524C85.9402 37.9524 85.1242 39.3444 85.0602 40.5284H90.1322ZM94.7958 44.8804H93.5958V38.2084H92.3158V37.1524H93.5958V36.5604C93.5958 34.9764 94.4598 34.0484 95.8358 34.0484C96.4438 34.0484 96.9878 34.1924 97.4678 34.6404L96.9718 35.4244C96.7158 35.2004 96.4118 35.0404 96.0118 35.0404C95.2278 35.0404 94.7958 35.5844 94.7958 36.5604V37.1524H96.3638V38.2084H94.7958V44.8804ZM99.7431 45.0724C98.6071 45.0724 98.0311 44.4164 98.0311 43.2644V38.2084H96.7511V37.1524H98.0311V35.0404H99.2311V37.1524H100.799V38.2084H99.2311V43.0084C99.2311 43.5844 99.4871 44.0004 100.015 44.0004C100.351 44.0004 100.671 43.8564 100.831 43.6804L101.183 44.5764C100.879 44.8644 100.447 45.0724 99.7431 45.0724ZM109.067 45.0724C107.803 45.0724 106.731 44.6884 105.947 43.8564L106.571 42.9924C107.083 43.5844 108.059 44.0964 109.115 44.0964C110.299 44.0964 110.939 43.5364 110.939 42.7684C110.939 40.8964 106.155 42.0484 106.155 39.1844C106.155 37.9844 107.195 36.9604 109.035 36.9604C110.347 36.9604 111.275 37.4564 111.899 38.0804L111.339 38.9124C110.875 38.3524 110.027 37.9364 109.035 37.9364C107.979 37.9364 107.323 38.4644 107.323 39.1524C107.323 40.8484 112.107 39.7284 112.107 42.7364C112.107 44.0324 111.067 45.0724 109.067 45.0724ZM120.857 44.8804H119.321L116.537 41.4084L115.257 42.6724V44.8804H114.057V34.2084H115.257V41.2644L119.321 37.1524H120.841L117.417 40.6564L120.857 44.8804ZM125.717 45.0724C123.429 45.0724 121.781 43.4244 121.781 41.0084C121.781 38.7684 123.381 36.9604 125.589 36.9604C127.925 36.9604 129.301 38.7844 129.301 41.1044V41.4084H123.045C123.141 42.8644 124.165 44.0804 125.829 44.0804C126.709 44.0804 127.605 43.7284 128.213 43.1044L128.789 43.8884C128.021 44.6564 126.981 45.0724 125.717 45.0724ZM128.117 40.5284C128.101 39.3764 127.333 37.9524 125.573 37.9524C123.925 37.9524 123.109 39.3444 123.045 40.5284H128.117ZM139.132 44.8804H137.932L135.916 38.6724L133.9 44.8804H132.7L130.236 37.1524H131.484L133.372 43.3124L135.404 37.1524H136.428L138.46 43.3124L140.348 37.1524H141.596L139.132 44.8804ZM146.482 45.0724C144.194 45.0724 142.546 43.4244 142.546 41.0084C142.546 38.7684 144.146 36.9604 146.354 36.9604C148.69 36.9604 150.066 38.7844 150.066 41.1044V41.4084H143.81C143.906 42.8644 144.93 44.0804 146.594 44.0804C147.474 44.0804 148.37 43.7284 148.978 43.1044L149.554 43.8884C148.786 44.6564 147.746 45.0724 146.482 45.0724ZM148.882 40.5284C148.866 39.3764 148.098 37.9524 146.338 37.9524C144.69 37.9524 143.874 39.3444 143.81 40.5284H148.882ZM158.81 44.8804H157.61V43.7284C157.034 44.5124 156.09 45.0724 155.002 45.0724C152.986 45.0724 151.562 43.5364 151.562 41.0244C151.562 38.5604 152.97 36.9604 155.002 36.9604C156.042 36.9604 156.986 37.4724 157.61 38.3204V34.2084H158.81V44.8804ZM155.29 44.0004C156.25 44.0004 157.178 43.4564 157.61 42.7844V39.2804C157.178 38.6084 156.25 38.0324 155.29 38.0324C153.738 38.0324 152.81 39.3124 152.81 41.0244C152.81 42.7364 153.738 44.0004 155.29 44.0004ZM161.005 48.0644L160.285 47.5044C161.325 45.4884 161.965 43.6484 161.965 40.9924C161.965 38.3204 161.325 36.4964 160.285 34.4644L161.005 33.9204C162.461 35.9044 163.277 38.4164 163.277 40.9924C163.277 43.5684 162.461 46.0964 161.005 48.0644Z" fill="#21374D"/>
<path d="M102.238 97.0437H100.91V88.2597L97.2782 97.0437H96.7342L93.1182 88.2597V97.0437H91.7902V86.3717H93.6942L97.0062 94.4037L100.334 86.3717H102.238V97.0437ZM108.168 97.2357C105.88 97.2357 104.232 95.5877 104.232 93.1717C104.232 90.9317 105.832 89.1237 108.04 89.1237C110.376 89.1237 111.752 90.9477 111.752 93.2677V93.5717H105.496C105.592 95.0277 106.616 96.2437 108.28 96.2437C109.16 96.2437 110.056 95.8917 110.664 95.2677L111.24 96.0517C110.472 96.8197 109.432 97.2357 108.168 97.2357ZM110.568 92.6917C110.552 91.5397 109.784 90.1157 108.024 90.1157C106.376 90.1157 105.56 91.5077 105.496 92.6917H110.568ZM120.495 97.0437H119.295V95.8917C118.719 96.6757 117.775 97.2357 116.687 97.2357C114.671 97.2357 113.247 95.6997 113.247 93.1877C113.247 90.7237 114.655 89.1237 116.687 89.1237C117.727 89.1237 118.671 89.6357 119.295 90.4837V86.3717H120.495V97.0437ZM116.975 96.1637C117.935 96.1637 118.863 95.6197 119.295 94.9477V91.4437C118.863 90.7717 117.935 90.1957 116.975 90.1957C115.423 90.1957 114.495 91.4757 114.495 93.1877C114.495 94.8997 115.423 96.1637 116.975 96.1637ZM123.49 88.2117C123.058 88.2117 122.69 87.8597 122.69 87.4117C122.69 86.9637 123.058 86.5957 123.49 86.5957C123.938 86.5957 124.306 86.9637 124.306 87.4117C124.306 87.8597 123.938 88.2117 123.49 88.2117ZM124.098 97.0437H122.898V89.3157H124.098V97.0437ZM132.524 97.0437H131.324V96.1637C130.684 96.8677 129.804 97.2357 128.764 97.2357C127.452 97.2357 126.06 96.3557 126.06 94.6757C126.06 92.9477 127.452 92.1317 128.764 92.1317C129.82 92.1317 130.7 92.4677 131.324 93.1877V91.7957C131.324 90.7557 130.492 90.1637 129.372 90.1637C128.444 90.1637 127.692 90.4997 127.004 91.2357L126.444 90.4037C127.276 89.5397 128.268 89.1237 129.532 89.1237C131.164 89.1237 132.524 89.8597 132.524 91.7317V97.0437ZM129.196 96.3717C130.044 96.3717 130.86 96.0517 131.324 95.4117V93.9557C130.86 93.3157 130.044 92.9957 129.196 92.9957C128.076 92.9957 127.292 93.6997 127.292 94.6917C127.292 95.6677 128.076 96.3717 129.196 96.3717ZM141.346 97.0437H140.146V91.9877C140.146 90.6277 139.458 90.1957 138.418 90.1957C137.474 90.1957 136.578 90.7717 136.13 91.3957V97.0437H134.93V89.3157H136.13V90.4357C136.674 89.7957 137.73 89.1237 138.882 89.1237C140.498 89.1237 141.346 89.9397 141.346 91.6197V97.0437Z" fill="#21374D"/>
<path d="M13.1589 179.908L13.1589 181.236L2.48693 181.236L2.48693 174.244L3.67093 174.244L3.67093 179.908L7.11094 179.908L7.11093 174.356L8.29493 174.356L8.29494 179.908L13.1589 179.908ZM13.1589 171.288L13.1589 172.488L5.43093 172.488L5.43093 171.288L6.67893 171.288C5.86293 170.664 5.27093 169.768 5.27093 168.712L6.50293 168.712C6.47093 168.856 6.45493 169 6.45493 169.192C6.45493 169.928 7.06293 170.936 7.68693 171.288L13.1589 171.288ZM13.3509 163.718C13.3509 166.006 11.7029 167.654 9.28693 167.654C7.04693 167.654 5.23893 166.054 5.23893 163.846C5.23893 161.51 7.06293 160.134 9.38293 160.134L9.68693 160.134L9.68693 166.39C11.1429 166.294 12.3589 165.27 12.3589 163.606C12.3589 162.726 12.0069 161.83 11.3829 161.222L12.1669 160.646C12.9349 161.414 13.3509 162.454 13.3509 163.718ZM8.80693 161.318C7.65493 161.334 6.23093 162.102 6.23093 163.862C6.23093 165.51 7.62293 166.326 8.80693 166.39L8.80693 161.318ZM12.2789 154.959C12.2789 153.999 11.7029 153.055 11.0309 152.655L7.54293 152.655C6.87093 153.055 6.31093 153.999 6.31093 154.959C6.31093 156.511 7.57493 157.423 9.28693 157.423C10.9989 157.423 12.2789 156.511 12.2789 154.959ZM13.3509 155.247C13.3509 157.279 11.7829 158.687 9.28693 158.687C6.77493 158.687 5.23893 157.279 5.23893 155.247C5.23893 154.159 5.79893 153.199 6.58293 152.655L5.43093 152.655L5.43093 151.455L16.1029 151.455L16.1029 152.655L11.9909 152.655C12.8549 153.279 13.3509 154.207 13.3509 155.247ZM13.1589 142.618L13.1589 143.818L12.0709 143.818C12.7429 144.41 13.3509 145.418 13.3509 146.57C13.3509 148.186 12.5669 149.034 10.8869 149.034L5.43093 149.034L5.43093 147.834L10.5189 147.834C11.8789 147.834 12.2789 147.146 12.2789 146.106C12.2789 145.162 11.7349 144.266 11.1109 143.818L5.43093 143.818L5.43093 142.618L13.1589 142.618ZM13.3509 136.734C13.3509 139.022 11.7029 140.67 9.28693 140.67C7.04693 140.67 5.23893 139.07 5.23893 136.862C5.23893 134.526 7.06293 133.15 9.38293 133.15L9.68693 133.15L9.68693 139.406C11.1429 139.31 12.3589 138.286 12.3589 136.622C12.3589 135.742 12.0069 134.846 11.3829 134.238L12.1669 133.662C12.9349 134.43 13.3509 135.47 13.3509 136.734ZM8.80693 134.334C7.65493 134.35 6.23093 135.118 6.23093 136.878C6.23093 138.526 7.62293 139.342 8.80693 139.406L8.80693 134.334ZM13.1589 124.79L13.1589 125.99L8.10293 125.99C6.74293 125.99 6.31093 126.678 6.31093 127.718C6.31093 128.662 6.88693 129.558 7.51093 130.006L13.1589 130.006L13.1589 131.206L5.43093 131.206L5.43093 130.006L6.55093 130.006C5.91093 129.462 5.23893 128.406 5.23893 127.254C5.23893 125.638 6.05493 124.79 7.73493 124.79L13.1589 124.79ZM13.3509 118.986C13.3509 121.29 11.5909 122.842 9.28693 122.842C6.99893 122.842 5.23893 121.29 5.23893 118.986C5.23893 117.578 5.81493 116.746 6.58293 116.154L7.31893 116.954C6.61493 117.466 6.31093 118.122 6.31093 118.922C6.31093 120.57 7.57493 121.594 9.28693 121.594C10.9989 121.594 12.2789 120.57 12.2789 118.922C12.2789 118.122 11.9589 117.466 11.2709 116.954L12.0069 116.154C12.7749 116.746 13.3509 117.578 13.3509 118.986ZM16.1829 114.904L15.0949 114.712C15.1749 114.536 15.2229 114.248 15.2229 114.056C15.2229 113.528 15.0469 113.176 14.4069 112.904L13.2389 112.392L5.43093 115.624L5.43093 114.328L11.7669 111.752L5.43093 109.192L5.43093 107.88L14.7269 111.752C15.8469 112.216 16.2789 113 16.2949 114.024C16.2949 114.28 16.2469 114.68 16.1829 114.904Z" fill="#21374D"/>
<path d="M310.118 204.005L310.118 86.4984" stroke="#21374D" stroke-width="2" stroke-linecap="round" stroke-linejoin="round" stroke-dasharray="3 6"/>
<path d="M219.085 86.308V204.005H402.719" stroke="#21374D" stroke-width="2" stroke-linecap="round" stroke-linejoin="round"/>
<path d="M223.662 204.005C270.618 204.005 279.848 86.308 310.309 86.308C340.769 86.308 350.775 204.005 398.143 203.752" stroke="#1ABC9C" stroke-width="2" stroke-linecap="round" stroke-linejoin="round"/>
<path d="M251.301 81.2967H249.973V72.5127L246.341 81.2967H245.797L242.181 72.5127V81.2967H240.853V70.6247H242.757L246.069 78.6567L249.397 70.6247H251.301V81.2967ZM257.231 81.4887C254.943 81.4887 253.295 79.8407 253.295 77.4247C253.295 75.1847 254.895 73.3767 257.103 73.3767C259.439 73.3767 260.815 75.2007 260.815 77.5207V77.8247H254.559C254.655 79.2807 255.679 80.4967 257.343 80.4967C258.223 80.4967 259.119 80.1447 259.727 79.5207L260.303 80.3047C259.535 81.0727 258.495 81.4887 257.231 81.4887ZM259.631 76.9447C259.615 75.7927 258.847 74.3687 257.087 74.3687C255.439 74.3687 254.623 75.7607 254.559 76.9447H259.631ZM268.79 81.2967H267.59V80.4167C266.95 81.1207 266.07 81.4887 265.03 81.4887C263.718 81.4887 262.326 80.6087 262.326 78.9287C262.326 77.2007 263.718 76.3847 265.03 76.3847C266.086 76.3847 266.966 76.7207 267.59 77.4407V76.0487C267.59 75.0087 266.758 74.4167 265.638 74.4167C264.71 74.4167 263.958 74.7527 263.27 75.4887L262.71 74.6567C263.542 73.7927 264.534 73.3767 265.798 73.3767C267.43 73.3767 268.79 74.1127 268.79 75.9847V81.2967ZM265.462 80.6247C266.31 80.6247 267.126 80.3047 267.59 79.6647V78.2087C267.126 77.5687 266.31 77.2487 265.462 77.2487C264.342 77.2487 263.558 77.9527 263.558 78.9447C263.558 79.9207 264.342 80.6247 265.462 80.6247ZM277.612 81.2967H276.412V76.2407C276.412 74.8807 275.724 74.4487 274.684 74.4487C273.74 74.4487 272.844 75.0247 272.396 75.6487V81.2967H271.196V73.5687H272.396V74.6887C272.94 74.0487 273.996 73.3767 275.148 73.3767C276.764 73.3767 277.612 74.1927 277.612 75.8727V81.2967ZM294.661 81.2967H293.461V76.0487C293.461 75.0727 293.029 74.4487 292.037 74.4487C291.237 74.4487 290.389 75.0247 289.989 75.6327V81.2967H288.789V76.0487C288.789 75.0727 288.373 74.4487 287.365 74.4487C286.581 74.4487 285.749 75.0247 285.333 75.6487V81.2967H284.133V73.5687H285.333V74.6887C285.653 74.1927 286.693 73.3767 287.829 73.3767C289.013 73.3767 289.685 74.0167 289.909 74.8167C290.341 74.1127 291.381 73.3767 292.501 73.3767C293.909 73.3767 294.661 74.1607 294.661 75.7127V81.2967ZM300.543 81.4887C298.255 81.4887 296.607 79.8407 296.607 77.4247C296.607 75.1847 298.207 73.3767 300.415 73.3767C302.751 73.3767 304.127 75.2007 304.127 77.5207V77.8247H297.871C297.967 79.2807 298.991 80.4967 300.655 80.4967C301.535 80.4967 302.431 80.1447 303.039 79.5207L303.615 80.3047C302.847 81.0727 301.807 81.4887 300.543 81.4887ZM302.943 76.9447C302.927 75.7927 302.159 74.3687 300.399 74.3687C298.751 74.3687 297.935 75.7607 297.871 76.9447H302.943ZM312.871 81.2967H311.671V80.1447C311.095 80.9287 310.151 81.4887 309.063 81.4887C307.047 81.4887 305.623 79.9527 305.623 77.4407C305.623 74.9767 307.031 73.3767 309.063 73.3767C310.103 73.3767 311.047 73.8887 311.671 74.7367V70.6247H312.871V81.2967ZM309.351 80.4167C310.311 80.4167 311.239 79.8727 311.671 79.2007V75.6967C311.239 75.0247 310.311 74.4487 309.351 74.4487C307.799 74.4487 306.871 75.7287 306.871 77.4407C306.871 79.1527 307.799 80.4167 309.351 80.4167ZM315.866 72.4647C315.434 72.4647 315.066 72.1127 315.066 71.6647C315.066 71.2167 315.434 70.8487 315.866 70.8487C316.314 70.8487 316.682 71.2167 316.682 71.6647C316.682 72.1127 316.314 72.4647 315.866 72.4647ZM316.474 81.2967H315.274V73.5687H316.474V81.2967ZM324.9 81.2967H323.7V80.4167C323.06 81.1207 322.18 81.4887 321.14 81.4887C319.828 81.4887 318.436 80.6087 318.436 78.9287C318.436 77.2007 319.828 76.3847 321.14 76.3847C322.196 76.3847 323.076 76.7207 323.7 77.4407V76.0487C323.7 75.0087 322.868 74.4167 321.748 74.4167C320.82 74.4167 320.068 74.7527 319.38 75.4887L318.82 74.6567C319.652 73.7927 320.644 73.3767 321.908 73.3767C323.54 73.3767 324.9 74.1127 324.9 75.9847V81.2967ZM321.572 80.6247C322.42 80.6247 323.236 80.3047 323.7 79.6647V78.2087C323.236 77.5687 322.42 77.2487 321.572 77.2487C320.452 77.2487 319.668 77.9527 319.668 78.9447C319.668 79.9207 320.452 80.6247 321.572 80.6247ZM333.721 81.2967H332.521V76.2407C332.521 74.8807 331.833 74.4487 330.793 74.4487C329.849 74.4487 328.953 75.0247 328.505 75.6487V81.2967H327.305V73.5687H328.505V74.6887C329.049 74.0487 330.105 73.3767 331.257 73.3767C332.873 73.3767 333.721 74.1927 333.721 75.8727V81.2967ZM350.771 81.2967H349.571V76.0487C349.571 75.0727 349.139 74.4487 348.147 74.4487C347.347 74.4487 346.499 75.0247 346.099 75.6327V81.2967H344.899V76.0487C344.899 75.0727 344.483 74.4487 343.475 74.4487C342.691 74.4487 341.859 75.0247 341.443 75.6487V81.2967H340.243V73.5687H341.443V74.6887C341.763 74.1927 342.803 73.3767 343.939 73.3767C345.123 73.3767 345.795 74.0167 346.019 74.8167C346.451 74.1127 347.491 73.3767 348.611 73.3767C350.019 73.3767 350.771 74.1607 350.771 75.7127V81.2967ZM356.541 81.4887C354.189 81.4887 352.717 79.6647 352.717 77.4247C352.717 75.1847 354.189 73.3767 356.541 73.3767C358.893 73.3767 360.365 75.1847 360.365 77.4247C360.365 79.6647 358.893 81.4887 356.541 81.4887ZM356.541 80.4167C358.189 80.4167 359.101 79.0087 359.101 77.4247C359.101 75.8567 358.189 74.4487 356.541 74.4487C354.893 74.4487 353.965 75.8567 353.965 77.4247C353.965 79.0087 354.893 80.4167 356.541 80.4167ZM369.121 81.2967H367.921V80.1447C367.345 80.9287 366.401 81.4887 365.313 81.4887C363.297 81.4887 361.873 79.9527 361.873 77.4407C361.873 74.9767 363.281 73.3767 365.313 73.3767C366.353 73.3767 367.297 73.8887 367.921 74.7367V70.6247H369.121V81.2967ZM365.601 80.4167C366.561 80.4167 367.489 79.8727 367.921 79.2007V75.6967C367.489 75.0247 366.561 74.4487 365.601 74.4487C364.049 74.4487 363.121 75.7287 363.121 77.4407C363.121 79.1527 364.049 80.4167 365.601 80.4167ZM375.012 81.4887C372.724 81.4887 371.076 79.8407 371.076 77.4247C371.076 75.1847 372.676 73.3767 374.884 73.3767C377.22 73.3767 378.596 75.2007 378.596 77.5207V77.8247H372.34C372.436 79.2807 373.46 80.4967 375.124 80.4967C376.004 80.4967 376.9 80.1447 377.508 79.5207L378.084 80.3047C377.316 81.0727 376.276 81.4887 375.012 81.4887ZM377.412 76.9447C377.396 75.7927 376.628 74.3687 374.868 74.3687C373.22 74.3687 372.404 75.7607 372.34 76.9447H377.412Z" fill="#21374D"/>
<path d="M231.739 29.0724C229.883 29.0724 228.523 28.3684 227.643 27.3764L228.427 26.3684C229.131 27.1524 230.283 27.8884 231.787 27.8884C233.691 27.8884 234.299 26.8644 234.299 26.0484C234.299 23.2964 227.979 24.8164 227.979 21.0084C227.979 19.2484 229.547 18.0484 231.643 18.0484C233.275 18.0484 234.539 18.5924 235.435 19.5364L234.635 20.5124C233.835 19.6324 232.715 19.2324 231.547 19.2324C230.267 19.2324 229.355 19.9204 229.355 20.9284C229.355 23.3284 235.675 21.9524 235.675 25.9364C235.675 27.4884 234.619 29.0724 231.739 29.0724ZM237.084 31.9044L237.276 30.8164C237.452 30.8964 237.74 30.9444 237.932 30.9444C238.46 30.9444 238.812 30.7684 239.084 30.1284L239.596 28.9604L236.364 21.1524H237.66L240.236 27.4884L242.796 21.1524H244.108L240.236 30.4484C239.772 31.5684 238.988 32.0004 237.964 32.0164C237.708 32.0164 237.308 31.9684 237.084 31.9044ZM255.888 28.8804H254.688V23.6324C254.688 22.6564 254.256 22.0324 253.264 22.0324C252.464 22.0324 251.616 22.6084 251.216 23.2164V28.8804H250.016V23.6324C250.016 22.6564 249.6 22.0324 248.592 22.0324C247.808 22.0324 246.976 22.6084 246.56 23.2324V28.8804H245.36V21.1524H246.56V22.2724C246.88 21.7764 247.92 20.9604 249.056 20.9604C250.24 20.9604 250.912 21.6004 251.136 22.4004C251.568 21.6964 252.608 20.9604 253.728 20.9604C255.136 20.9604 255.888 21.7444 255.888 23.2964V28.8804ZM268.81 28.8804H267.61V23.6324C267.61 22.6564 267.178 22.0324 266.186 22.0324C265.386 22.0324 264.538 22.6084 264.138 23.2164V28.8804H262.938V23.6324C262.938 22.6564 262.522 22.0324 261.514 22.0324C260.73 22.0324 259.898 22.6084 259.482 23.2324V28.8804H258.282V21.1524H259.482V22.2724C259.802 21.7764 260.842 20.9604 261.978 20.9604C263.162 20.9604 263.834 21.6004 264.058 22.4004C264.49 21.6964 265.53 20.9604 266.65 20.9604C268.058 20.9604 268.81 21.7444 268.81 23.2964V28.8804ZM274.692 29.0724C272.404 29.0724 270.756 27.4244 270.756 25.0084C270.756 22.7684 272.356 20.9604 274.564 20.9604C276.9 20.9604 278.276 22.7844 278.276 25.1044V25.4084H272.02C272.116 26.8644 273.14 28.0804 274.804 28.0804C275.684 28.0804 276.58 27.7284 277.188 27.1044L277.764 27.8884C276.996 28.6564 275.956 29.0724 274.692 29.0724ZM277.092 24.5284C277.076 23.3764 276.308 21.9524 274.548 21.9524C272.9 21.9524 272.084 23.3444 272.02 24.5284H277.092ZM282.172 29.0724C281.036 29.0724 280.46 28.4164 280.46 27.2644V22.2084H279.18V21.1524H280.46V19.0404H281.66V21.1524H283.228V22.2084H281.66V27.0084C281.66 27.5844 281.916 28.0004 282.444 28.0004C282.78 28.0004 283.1 27.8564 283.26 27.6804L283.612 28.5764C283.308 28.8644 282.876 29.0724 282.172 29.0724ZM286.123 28.8804H284.923V21.1524H286.123V22.4004C286.747 21.5844 287.643 20.9924 288.699 20.9924V22.2244C288.555 22.1924 288.411 22.1764 288.219 22.1764C287.483 22.1764 286.475 22.7844 286.123 23.4084V28.8804ZM290.796 20.0484C290.364 20.0484 289.996 19.6964 289.996 19.2484C289.996 18.8004 290.364 18.4324 290.796 18.4324C291.244 18.4324 291.612 18.8004 291.612 19.2484C291.612 19.6964 291.244 20.0484 290.796 20.0484ZM291.404 28.8804H290.204V21.1524H291.404V28.8804ZM297.206 29.0724C294.902 29.0724 293.35 27.3124 293.35 25.0084C293.35 22.7204 294.902 20.9604 297.206 20.9604C298.614 20.9604 299.446 21.5364 300.038 22.3044L299.238 23.0404C298.726 22.3364 298.07 22.0324 297.27 22.0324C295.622 22.0324 294.598 23.2964 294.598 25.0084C294.598 26.7204 295.622 28.0004 297.27 28.0004C298.07 28.0004 298.726 27.6804 299.238 26.9924L300.038 27.7284C299.446 28.4964 298.614 29.0724 297.206 29.0724ZM307.752 28.8804H306.552V28.0004C305.912 28.7044 305.032 29.0724 303.992 29.0724C302.68 29.0724 301.288 28.1924 301.288 26.5124C301.288 24.7844 302.68 23.9684 303.992 23.9684C305.048 23.9684 305.928 24.3044 306.552 25.0244V23.6324C306.552 22.5924 305.72 22.0004 304.6 22.0004C303.672 22.0004 302.92 22.3364 302.232 23.0724L301.672 22.2404C302.504 21.3764 303.496 20.9604 304.76 20.9604C306.392 20.9604 307.752 21.6964 307.752 23.5684V28.8804ZM304.424 28.2084C305.272 28.2084 306.088 27.8884 306.552 27.2484V25.7924C306.088 25.1524 305.272 24.8324 304.424 24.8324C303.304 24.8324 302.52 25.5364 302.52 26.5284C302.52 27.5044 303.304 28.2084 304.424 28.2084ZM311.357 28.8804H310.157V18.2084H311.357V28.8804ZM324.676 28.8804H323.476V27.7284C322.9 28.5124 321.956 29.0724 320.868 29.0724C318.852 29.0724 317.428 27.5364 317.428 25.0244C317.428 22.5604 318.836 20.9604 320.868 20.9604C321.908 20.9604 322.852 21.4724 323.476 22.3204V18.2084H324.676V28.8804ZM321.156 28.0004C322.116 28.0004 323.044 27.4564 323.476 26.7844V23.2804C323.044 22.6084 322.116 22.0324 321.156 22.0324C319.604 22.0324 318.676 23.3124 318.676 25.0244C318.676 26.7364 319.604 28.0004 321.156 28.0004ZM327.671 20.0484C327.239 20.0484 326.871 19.6964 326.871 19.2484C326.871 18.8004 327.239 18.4324 327.671 18.4324C328.119 18.4324 328.487 18.8004 328.487 19.2484C328.487 19.6964 328.119 20.0484 327.671 20.0484ZM328.279 28.8804H327.079V21.1524H328.279V28.8804ZM333.121 29.0724C331.857 29.0724 330.785 28.6884 330.001 27.8564L330.625 26.9924C331.137 27.5844 332.113 28.0964 333.169 28.0964C334.353 28.0964 334.993 27.5364 334.993 26.7684C334.993 24.8964 330.209 26.0484 330.209 23.1844C330.209 21.9844 331.249 20.9604 333.089 20.9604C334.401 20.9604 335.329 21.4564 335.953 22.0804L335.393 22.9124C334.929 22.3524 334.081 21.9364 333.089 21.9364C332.033 21.9364 331.377 22.4644 331.377 23.1524C331.377 24.8484 336.161 23.7284 336.161 26.7364C336.161 28.0324 335.121 29.0724 333.121 29.0724ZM340.062 29.0724C338.926 29.0724 338.35 28.4164 338.35 27.2644V22.2084H337.07V21.1524H338.35V19.0404H339.55V21.1524H341.118V22.2084H339.55V27.0084C339.55 27.5844 339.806 28.0004 340.334 28.0004C340.67 28.0004 340.99 27.8564 341.15 27.6804L341.502 28.5764C341.198 28.8644 340.766 29.0724 340.062 29.0724ZM344.013 28.8804H342.813V21.1524H344.013V22.4004C344.637 21.5844 345.533 20.9924 346.589 20.9924V22.2244C346.445 22.1924 346.301 22.1764 346.109 22.1764C345.373 22.1764 344.365 22.7844 344.013 23.4084V28.8804ZM348.687 20.0484C348.255 20.0484 347.887 19.6964 347.887 19.2484C347.887 18.8004 348.255 18.4324 348.687 18.4324C349.135 18.4324 349.503 18.8004 349.503 19.2484C349.503 19.6964 349.135 20.0484 348.687 20.0484ZM349.295 28.8804H348.095V21.1524H349.295V28.8804ZM352.888 26.7844C353.304 27.4564 354.248 28.0004 355.192 28.0004C356.76 28.0004 357.688 26.7364 357.688 25.0244C357.688 23.3124 356.76 22.0324 355.192 22.0324C354.248 22.0324 353.304 22.6084 352.888 23.2804V26.7844ZM352.888 28.8804H351.688V18.2084H352.888V22.3204C353.512 21.4724 354.44 20.9604 355.496 20.9604C357.512 20.9604 358.936 22.5604 358.936 25.0244C358.936 27.5364 357.512 29.0724 355.496 29.0724C354.408 29.0724 353.464 28.5124 352.888 27.7284V28.8804ZM367.307 28.8804H366.107V27.7924C365.515 28.4644 364.507 29.0724 363.355 29.0724C361.739 29.0724 360.891 28.2884 360.891 26.6084V21.1524H362.091V26.2404C362.091 27.6004 362.779 28.0004 363.819 28.0004C364.763 28.0004 365.659 27.4564 366.107 26.8324V21.1524H367.307V28.8804ZM371.656 29.0724C370.52 29.0724 369.944 28.4164 369.944 27.2644V22.2084H368.664V21.1524H369.944V19.0404H371.144V21.1524H372.712V22.2084H371.144V27.0084C371.144 27.5844 371.4 28.0004 371.928 28.0004C372.264 28.0004 372.584 27.8564 372.744 27.6804L373.096 28.5764C372.792 28.8644 372.36 29.0724 371.656 29.0724ZM374.999 20.0484C374.567 20.0484 374.199 19.6964 374.199 19.2484C374.199 18.8004 374.567 18.4324 374.999 18.4324C375.447 18.4324 375.815 18.8004 375.815 19.2484C375.815 19.6964 375.447 20.0484 374.999 20.0484ZM375.607 28.8804H374.407V21.1524H375.607V28.8804ZM381.377 29.0724C379.025 29.0724 377.553 27.2484 377.553 25.0084C377.553 22.7684 379.025 20.9604 381.377 20.9604C383.729 20.9604 385.201 22.7684 385.201 25.0084C385.201 27.2484 383.729 29.0724 381.377 29.0724ZM381.377 28.0004C383.025 28.0004 383.937 26.5924 383.937 25.0084C383.937 23.4404 383.025 22.0324 381.377 22.0324C379.729 22.0324 378.801 23.4404 378.801 25.0084C378.801 26.5924 379.729 28.0004 381.377 28.0004ZM393.573 28.8804H392.373V23.8244C392.373 22.4644 391.685 22.0324 390.645 22.0324C389.701 22.0324 388.805 22.6084 388.357 23.2324V28.8804H387.157V21.1524H388.357V22.2724C388.901 21.6324 389.957 20.9604 391.109 20.9604C392.725 20.9604 393.573 21.7764 393.573 23.4564V28.8804Z" fill="#21374D"/>
<path d="M240.818 241.12H239.618V235.872C239.618 234.896 239.186 234.272 238.194 234.272C237.394 234.272 236.546 234.848 236.146 235.456V241.12H234.946V235.872C234.946 234.896 234.53 234.272 233.522 234.272C232.738 234.272 231.906 234.848 231.49 235.472V241.12H230.29V233.392H231.49V234.512C231.81 234.016 232.85 233.2 233.986 233.2C235.17 233.2 235.842 233.84 236.066 234.64C236.498 233.936 237.538 233.2 238.658 233.2C240.066 233.2 240.818 233.984 240.818 235.536V241.12ZM246.7 241.312C244.412 241.312 242.764 239.664 242.764 237.248C242.764 235.008 244.364 233.2 246.572 233.2C248.908 233.2 250.284 235.024 250.284 237.344V237.648H244.028C244.124 239.104 245.148 240.32 246.812 240.32C247.692 240.32 248.588 239.968 249.196 239.344L249.772 240.128C249.004 240.896 247.964 241.312 246.7 241.312ZM249.1 236.768C249.084 235.616 248.316 234.192 246.556 234.192C244.908 234.192 244.092 235.584 244.028 236.768H249.1ZM258.259 241.12H257.059V240.24C256.419 240.944 255.539 241.312 254.499 241.312C253.187 241.312 251.795 240.432 251.795 238.752C251.795 237.024 253.187 236.208 254.499 236.208C255.555 236.208 256.435 236.544 257.059 237.264V235.872C257.059 234.832 256.227 234.24 255.107 234.24C254.179 234.24 253.427 234.576 252.739 235.312L252.179 234.48C253.011 233.616 254.003 233.2 255.267 233.2C256.899 233.2 258.259 233.936 258.259 235.808V241.12ZM254.931 240.448C255.779 240.448 256.595 240.128 257.059 239.488V238.032C256.595 237.392 255.779 237.072 254.931 237.072C253.811 237.072 253.027 237.776 253.027 238.768C253.027 239.744 253.811 240.448 254.931 240.448ZM267.081 241.12H265.881V236.064C265.881 234.704 265.193 234.272 264.153 234.272C263.209 234.272 262.313 234.848 261.865 235.472V241.12H260.665V233.392H261.865V234.512C262.409 233.872 263.465 233.2 264.617 233.2C266.233 233.2 267.081 234.016 267.081 235.696V241.12ZM273.298 235.568C273.298 235.429 273.373 235.322 273.522 235.248H283.714C283.874 235.322 283.954 235.429 283.954 235.568C283.954 235.685 283.88 235.786 283.73 235.872L278.642 235.888H273.554C273.384 235.834 273.298 235.728 273.298 235.568ZM273.298 238.672C273.298 238.512 273.384 238.405 273.554 238.352H283.73C283.741 238.362 283.762 238.384 283.794 238.416C283.837 238.437 283.864 238.458 283.874 238.48C283.896 238.49 283.912 238.517 283.922 238.56C283.944 238.592 283.954 238.629 283.954 238.672C283.954 238.81 283.874 238.917 283.714 238.992H273.522C273.373 238.917 273.298 238.81 273.298 238.672ZM296.583 241.12H295.383V235.872C295.383 234.896 294.951 234.272 293.959 234.272C293.159 234.272 292.311 234.848 291.911 235.456V241.12H290.711V235.872C290.711 234.896 290.295 234.272 289.287 234.272C288.503 234.272 287.671 234.848 287.255 235.472V241.12H286.055V233.392H287.255V234.512C287.575 234.016 288.615 233.2 289.751 233.2C290.935 233.2 291.607 233.84 291.831 234.64C292.263 233.936 293.303 233.2 294.423 233.2C295.831 233.2 296.583 233.984 296.583 235.536V241.12ZM302.465 241.312C300.177 241.312 298.529 239.664 298.529 237.248C298.529 235.008 300.129 233.2 302.337 233.2C304.673 233.2 306.049 235.024 306.049 237.344V237.648H299.793C299.889 239.104 300.913 240.32 302.577 240.32C303.457 240.32 304.353 239.968 304.961 239.344L305.537 240.128C304.769 240.896 303.729 241.312 302.465 241.312ZM304.865 236.768C304.849 235.616 304.081 234.192 302.321 234.192C300.673 234.192 299.857 235.584 299.793 236.768H304.865ZM314.793 241.12H313.593V239.968C313.017 240.752 312.073 241.312 310.985 241.312C308.969 241.312 307.545 239.776 307.545 237.264C307.545 234.8 308.953 233.2 310.985 233.2C312.025 233.2 312.969 233.712 313.593 234.56V230.448H314.793V241.12ZM311.273 240.24C312.233 240.24 313.161 239.696 313.593 239.024V235.52C313.161 234.848 312.233 234.272 311.273 234.272C309.721 234.272 308.793 235.552 308.793 237.264C308.793 238.976 309.721 240.24 311.273 240.24ZM317.788 232.288C317.356 232.288 316.988 231.936 316.988 231.488C316.988 231.04 317.356 230.672 317.788 230.672C318.236 230.672 318.604 231.04 318.604 231.488C318.604 231.936 318.236 232.288 317.788 232.288ZM318.396 241.12H317.196V233.392H318.396V241.12ZM326.822 241.12H325.622V240.24C324.982 240.944 324.102 241.312 323.062 241.312C321.75 241.312 320.358 240.432 320.358 238.752C320.358 237.024 321.75 236.208 323.062 236.208C324.118 236.208 324.998 236.544 325.622 237.264V235.872C325.622 234.832 324.79 234.24 323.67 234.24C322.742 234.24 321.99 234.576 321.302 235.312L320.742 234.48C321.574 233.616 322.566 233.2 323.83 233.2C325.462 233.2 326.822 233.936 326.822 235.808V241.12ZM323.494 240.448C324.342 240.448 325.158 240.128 325.622 239.488V238.032C325.158 237.392 324.342 237.072 323.494 237.072C322.374 237.072 321.59 237.776 321.59 238.768C321.59 239.744 322.374 240.448 323.494 240.448ZM335.643 241.12H334.443V236.064C334.443 234.704 333.755 234.272 332.715 234.272C331.771 234.272 330.875 234.848 330.427 235.472V241.12H329.227V233.392H330.427V234.512C330.971 233.872 332.027 233.2 333.179 233.2C334.795 233.2 335.643 234.016 335.643 235.696V241.12ZM341.861 235.568C341.861 235.429 341.936 235.322 342.085 235.248H352.277C352.437 235.322 352.517 235.429 352.517 235.568C352.517 235.685 352.442 235.786 352.293 235.872L347.205 235.888H342.117C341.946 235.834 341.861 235.728 341.861 235.568ZM341.861 238.672C341.861 238.512 341.946 238.405 342.117 238.352H352.293C352.304 238.362 352.325 238.384 352.357 238.416C352.4 238.437 352.426 238.458 352.437 238.48C352.458 238.49 352.474 238.517 352.485 238.56C352.506 238.592 352.517 238.629 352.517 238.672C352.517 238.81 352.437 238.917 352.277 238.992H342.085C341.936 238.917 341.861 238.81 341.861 238.672ZM365.146 241.12H363.946V235.872C363.946 234.896 363.514 234.272 362.522 234.272C361.722 234.272 360.874 234.848 360.474 235.456V241.12H359.274V235.872C359.274 234.896 358.858 234.272 357.85 234.272C357.066 234.272 356.234 234.848 355.818 235.472V241.12H354.618V233.392H355.818V234.512C356.138 234.016 357.178 233.2 358.314 233.2C359.498 233.2 360.17 233.84 360.394 234.64C360.826 233.936 361.866 233.2 362.986 233.2C364.394 233.2 365.146 233.984 365.146 235.536V241.12ZM370.916 241.312C368.564 241.312 367.092 239.488 367.092 237.248C367.092 235.008 368.564 233.2 370.916 233.2C373.268 233.2 374.74 235.008 374.74 237.248C374.74 239.488 373.268 241.312 370.916 241.312ZM370.916 240.24C372.564 240.24 373.476 238.832 373.476 237.248C373.476 235.68 372.564 234.272 370.916 234.272C369.268 234.272 368.34 235.68 368.34 237.248C368.34 238.832 369.268 240.24 370.916 240.24ZM383.496 241.12H382.296V239.968C381.72 240.752 380.776 241.312 379.688 241.312C377.672 241.312 376.248 239.776 376.248 237.264C376.248 234.8 377.656 233.2 379.688 233.2C380.728 233.2 381.672 233.712 382.296 234.56V230.448H383.496V241.12ZM379.976 240.24C380.936 240.24 381.864 239.696 382.296 239.024V235.52C381.864 234.848 380.936 234.272 379.976 234.272C378.424 234.272 377.496 235.552 377.496 237.264C377.496 238.976 378.424 240.24 379.976 240.24ZM389.387 241.312C387.099 241.312 385.451 239.664 385.451 237.248C385.451 235.008 387.051 233.2 389.259 233.2C391.595 233.2 392.971 235.024 392.971 237.344V237.648H386.715C386.811 239.104 387.835 240.32 389.499 240.32C390.379 240.32 391.275 239.968 391.883 239.344L392.459 240.128C391.691 240.896 390.651 241.312 389.387 241.312ZM391.787 236.768C391.771 235.616 391.003 234.192 389.243 234.192C387.595 234.192 386.779 235.584 386.715 236.768H391.787Z" fill="#21374D"/>
</g>
<defs>
<clipPath id="clip0_4895_182">
<rect width="596" height="260" fill="white"/>
</clipPath>
</defs>
</svg>
